<svg width="1732" height="252" viewBox="0 0 1732 252" fill="none" xmlns="http://www.w3.org/2000/svg">
<g clip-path="url(#clip0_2435_691)">
<path d="M1660.32 251V147.773H1731.75V167.592H1684.56V189.406H1728.04V209.225H1684.56V231.182H1731.89V251H1660.32Z" fill="#F4F5F7" fill-opacity="0.5"/>
<path d="M1620.25 147.773H1644.63V214.357C1644.63 237.455 1627.1 252.354 1601.15 252.426C1574.99 252.354 1557.66 237.455 1557.66 214.357V147.773H1581.9V212.361C1581.9 223.269 1589.67 231.182 1601.15 231.182C1612.55 231.182 1620.33 223.269 1620.25 212.361V147.773Z" fill="#F4F5F7" fill-opacity="0.5"/>
<path d="M1477.39 251V147.773H1501.63V231.182H1544.97V251H1477.39Z" fill="#F4F5F7" fill-opacity="0.5"/>
<path d="M1390.42 251H1364.18L1399.26 147.773H1431.48L1466.41 251H1440.32L1433.33 228.9H1397.4L1390.42 251ZM1403.25 210.365H1427.49L1415.8 173.295H1414.94L1403.25 210.365Z" fill="#F4F5F7" fill-opacity="0.5"/>
<path d="M1298.17 147.773L1321.7 223.91H1322.55L1346.08 147.773H1373.17L1338.23 251H1306.01L1270.94 147.773H1298.17Z" fill="#F4F5F7" fill-opacity="0.5"/>
<path d="M1177.83 251H1140.05V147.773H1177.83C1209.34 147.773 1228.73 167.093 1228.73 199.387C1228.73 231.609 1209.34 251 1177.83 251ZM1164.29 230.184H1176.98C1194.66 230.255 1204.35 221.771 1204.35 199.387C1204.35 176.931 1194.66 168.519 1176.69 168.447H1164.29V230.184Z" fill="#F4F5F7" fill-opacity="0.5"/>
<path d="M1124.37 147.773V251H1103.69L1061.78 190.404H1061.06V251H1036.82V147.773H1057.78L1099.27 208.369H1100.13V147.773H1124.37Z" fill="#F4F5F7" fill-opacity="0.5"/>
<path d="M949.852 251H923.617L958.691 147.773H990.914L1025.85 251H999.754L992.768 228.9H956.838L949.852 251ZM962.684 210.365H986.922L975.23 173.295H974.375L962.684 210.365Z" fill="#F4F5F7" fill-opacity="0.5"/>
<path d="M880.131 147.773V251H859.457L817.539 190.404H816.826V251H792.588V147.773H813.547L855.037 208.369H855.893V147.773H880.131Z" fill="#F4F5F7" fill-opacity="0.5"/>
<path d="M778.188 199.387C778.259 233.392 756.801 252.426 729.141 252.426C701.338 252.426 680.094 233.249 680.094 199.387C680.094 165.311 701.338 146.348 729.141 146.348C756.801 146.348 778.259 165.311 778.188 199.387ZM704.902 199.387C704.902 219.918 714.099 231.039 729.141 231.039C744.254 231.039 753.45 219.918 753.379 199.387C753.45 178.855 744.254 167.663 729.141 167.734C714.099 167.663 704.902 178.855 704.902 199.387Z" fill="#F4F5F7" fill-opacity="0.5"/>
<path d="M665.693 147.773V251H641.455V147.773H665.693Z" fill="#F4F5F7" fill-opacity="0.5"/>
<path d="M542.506 167.592V147.773H629.336V167.592H597.969V251H573.873V167.592H542.506Z" fill="#F4F5F7" fill-opacity="0.5"/>
<path d="M471.93 251H445.695L480.77 147.773H512.992L547.924 251H521.832L514.846 228.9H478.916L471.93 251ZM484.762 210.365H509L497.309 173.295H496.453L484.762 210.365Z" fill="#F4F5F7" fill-opacity="0.5"/>
<path d="M379.682 147.773L403.207 223.91H404.062L427.588 147.773H454.678L419.746 251H387.523L352.449 147.773H379.682Z" fill="#F4F5F7" fill-opacity="0.5"/>
<path d="M349.027 199.387C349.099 233.392 327.641 252.426 299.98 252.426C272.178 252.426 250.934 233.249 250.934 199.387C250.934 165.311 272.178 146.348 299.98 146.348C327.641 146.348 349.099 165.311 349.027 199.387ZM275.742 199.387C275.742 219.918 284.938 231.039 299.98 231.039C315.094 231.039 324.29 219.918 324.219 199.387C324.29 178.855 315.094 167.663 299.98 167.734C284.938 167.663 275.742 178.855 275.742 199.387Z" fill="#F4F5F7" fill-opacity="0.5"/>
<path d="M236.533 147.773V251H215.859L173.941 190.404H173.229V251H148.99V147.773H169.949L211.439 208.369H212.295V147.773H236.533Z" fill="#F4F5F7" fill-opacity="0.5"/>
<path d="M133.307 147.773V251H112.633L70.7148 190.404H70.002V251H45.7637V147.773H66.7227L108.213 208.369H109.068V147.773H133.307Z" fill="#F4F5F7" fill-opacity="0.5"/>
<path d="M30.0801 147.773V251H5.8418V147.773H30.0801Z" fill="#F4F5F7" fill-opacity="0.5"/>
<path d="M1330.39 105V1.77344H1372.6C1395.84 1.77344 1410.17 14.9619 1410.09 35.9922C1410.17 50.25 1403.61 60.373 1392.2 65.5771L1413.8 105H1387.14L1368.18 69.498H1354.63V105H1330.39ZM1354.63 50.1074H1367.46C1378.94 50.1787 1385 45.6875 1385 35.9922C1385 26.2969 1378.94 21.4492 1367.46 21.4492H1354.63V50.1074Z" fill="#F4F5F7" fill-opacity="0.5"/>
<path d="M1315.99 53.3867C1316.06 87.3916 1294.61 106.426 1266.95 106.426C1239.14 106.426 1217.9 87.249 1217.9 53.3867C1217.9 19.3105 1239.14 0.347656 1266.95 0.347656C1294.61 0.347656 1316.06 19.3105 1315.99 53.3867ZM1242.71 53.3867C1242.71 73.918 1251.9 85.0391 1266.95 85.0391C1282.06 85.0391 1291.25 73.918 1291.18 53.3867C1291.25 32.8555 1282.06 21.6631 1266.95 21.7344C1251.9 21.6631 1242.71 32.8555 1242.71 53.3867Z" fill="#F4F5F7" fill-opacity="0.5"/>
<path d="M1136.63 105V1.77344H1206.63V21.5918H1160.87V43.4062H1202.07V63.2246H1160.87V105H1136.63Z" fill="#F4F5F7" fill-opacity="0.5"/>
<path d="M1010.59 105V1.77344H1052.79C1076.03 1.77344 1090.36 14.9619 1090.29 35.9922C1090.36 50.25 1083.8 60.373 1072.4 65.5771L1094 105H1067.34L1048.37 69.498H1034.83V105H1010.59ZM1034.83 50.1074H1047.66C1059.14 50.1787 1065.2 45.6875 1065.2 35.9922C1065.2 26.2969 1059.14 21.4492 1047.66 21.4492H1034.83V50.1074Z" fill="#F4F5F7" fill-opacity="0.5"/>
<path d="M923.617 105V1.77344H995.049V21.5918H947.855V43.4062H991.342V63.2246H947.855V85.1816H995.191V105H923.617Z" fill="#F4F5F7" fill-opacity="0.5"/>
<path d="M907.934 1.77344V105H887.26L845.342 44.4043H844.629V105H820.391V1.77344H841.35L882.84 62.3691H883.695V1.77344H907.934Z" fill="#F4F5F7" fill-opacity="0.5"/>
<path d="M721.441 21.5918V1.77344H808.271V21.5918H776.904V105H752.809V21.5918H721.441Z" fill="#F4F5F7" fill-opacity="0.5"/>
<path d="M631.617 105V1.77344H673.82C697.061 1.77344 711.39 14.9619 711.318 35.9922C711.39 50.25 704.831 60.373 693.425 65.5771L715.025 105H688.363L669.4 69.498H655.855V105H631.617ZM655.855 50.1074H668.688C680.165 50.1787 686.225 45.6875 686.225 35.9922C686.225 26.2969 680.165 21.4492 668.688 21.4492H655.855V50.1074Z" fill="#F4F5F7" fill-opacity="0.5"/>
<path d="M544.645 105H518.41L553.484 1.77344H585.707L620.639 105H594.547L587.561 82.9004H551.631L544.645 105ZM557.477 64.3652H581.715L570.023 27.2949H569.168L557.477 64.3652Z" fill="#F4F5F7" fill-opacity="0.5"/>
<path d="M443.699 105V1.77344H485.902C509.143 1.77344 523.472 16.2451 523.4 37.2754C523.472 58.5908 508.857 72.6348 485.189 72.6348H467.938V105H443.699ZM467.938 53.3867H480.77C492.247 53.458 498.307 47.042 498.307 37.2754C498.307 27.6514 492.247 21.4492 480.77 21.4492H467.938V53.3867Z" fill="#F4F5F7" fill-opacity="0.5"/>
<path d="M317.66 105V1.77344H359.863C383.104 1.77344 397.433 14.9619 397.361 35.9922C397.433 50.25 390.874 60.373 379.468 65.5771L401.068 105H374.406L355.443 69.498H341.898V105H317.66ZM341.898 50.1074H354.73C366.208 50.1787 372.268 45.6875 372.268 35.9922C372.268 26.2969 366.208 21.4492 354.73 21.4492H341.898V50.1074Z" fill="#F4F5F7" fill-opacity="0.5"/>
<path d="M277.596 1.77344H301.977V68.3574C301.977 91.4551 284.439 106.354 258.49 106.426C232.327 106.354 215.004 91.4551 215.004 68.3574V1.77344H239.242V66.3613C239.242 77.2686 247.013 85.1816 258.49 85.1816C269.896 85.1816 277.667 77.2686 277.596 66.3613V1.77344Z" fill="#F4F5F7" fill-opacity="0.5"/>
<path d="M200.604 53.3867C200.675 87.3916 179.217 106.426 151.557 106.426C123.754 106.426 102.51 87.249 102.51 53.3867C102.51 19.3105 123.754 0.347656 151.557 0.347656C179.217 0.347656 200.675 19.3105 200.604 53.3867ZM127.318 53.3867C127.318 73.918 136.515 85.0391 151.557 85.0391C166.67 85.0391 175.866 73.918 175.795 53.3867C175.866 32.8555 166.67 21.6631 151.557 21.7344C136.515 21.6631 127.318 32.8555 127.318 53.3867Z" fill="#F4F5F7" fill-opacity="0.5"/>
<path d="M0.423828 1.77344H27.6562L49.8984 45.1172H50.7539L72.9961 1.77344H100.086L62.4453 70.0684V105H38.207V70.0684L0.423828 1.77344Z" fill="#F4F5F7" fill-opacity="0.5"/>
</g>
<defs>
<clipPath id="clip0_2435_691">
<rect width="1732" height="252" fill="white"/>
</clipPath>
</defs>
</svg>
