<svg width="76" height="76" viewBox="0 0 76 76" fill="none" xmlns="http://www.w3.org/2000/svg">
<rect width="76" height="76" rx="38" fill="white" fill-opacity="0.15"/>
<path d="M51.7464 44.4183V34.9513L38.6507 41.9713C38.1627 42.2388 37.6475 42.3725 37.1053 42.3725C36.563 42.3725 36.0478 42.2388 35.5598 41.9713L21.8134 34.5903C21.5152 34.4298 21.3048 34.2292 21.1822 33.9885C21.0597 33.7479 20.9989 33.4804 21 33.1863C21.0011 32.8921 21.0624 32.6247 21.1838 32.384C21.3053 32.1433 21.5152 31.9427 21.8134 31.7822L35.5598 24.4012C35.8038 24.2675 36.0549 24.1669 36.313 24.0995C36.5711 24.0321 36.8352 23.999 37.1053 24C37.3753 24.0011 37.6399 24.0348 37.8991 24.1011C38.1583 24.1674 38.4089 24.2675 38.6507 24.4012L54.1459 32.745C54.4171 32.8787 54.6275 33.0729 54.7771 33.3275C54.9268 33.5821 55.0011 33.8559 55 34.149V44.4183C55 44.873 54.8438 45.2543 54.5315 45.5624C54.2191 45.8705 53.833 46.024 53.3732 46.0229C52.9134 46.0218 52.5273 45.8678 52.2149 45.5608C51.9026 45.2538 51.7464 44.873 51.7464 44.4183ZM35.5598 51.5988L27.4258 47.2665C26.8836 46.9723 26.4633 46.5711 26.1651 46.063C25.8668 45.5549 25.7177 45.0067 25.7177 44.4183V38.3209L35.5598 43.5759C36.0478 43.8434 36.563 43.9771 37.1053 43.9771C37.6475 43.9771 38.1627 43.8434 38.6507 43.5759L48.4928 38.3209V44.4183C48.4928 45.0067 48.3437 45.5549 48.0454 46.063C47.7472 46.5711 47.3269 46.9723 46.7847 47.2665L38.6507 51.5988C38.4067 51.7325 38.1562 51.8331 37.8991 51.9005C37.6421 51.9679 37.3775 52.001 37.1053 52C36.833 51.9989 36.5684 51.9657 36.3114 51.9005C36.0544 51.8352 35.8038 51.7347 35.5598 51.5988Z" fill="white"/>
</svg>
