<svg width="76" height="76" viewBox="0 0 76 76" fill="none" xmlns="http://www.w3.org/2000/svg">
<rect width="76" height="76" rx="38" fill="white" fill-opacity="0.15"/>
<path d="M51.8883 33.7454L49.7223 27.2474C49.4081 26.3013 48.8038 25.4784 47.9951 24.8954C47.1865 24.3124 46.2146 23.9991 45.2178 24H30.7809C29.784 23.9991 28.8122 24.3124 28.0036 24.8954C27.1949 25.4784 26.5906 26.3013 26.2763 27.2474L24.1103 33.7454C23.5344 33.9864 23.0425 34.3923 22.6965 34.9121C22.3506 35.4319 22.166 36.0423 22.166 36.6667V44.5833C22.166 45.7518 22.8057 46.762 23.7493 47.3114V50.9167C23.7493 51.3366 23.9162 51.7393 24.2131 52.0363C24.51 52.3332 24.9128 52.5 25.3327 52.5H26.916C27.3359 52.5 27.7387 52.3332 28.0356 52.0363C28.3325 51.7393 28.4993 51.3366 28.4993 50.9167V47.75H47.4993V50.9167C47.4993 51.3366 47.6662 51.7393 47.9631 52.0363C48.26 52.3332 48.6627 52.5 49.0827 52.5H50.666C51.0859 52.5 51.4887 52.3332 51.7856 52.0363C52.0825 51.7393 52.2493 51.3366 52.2493 50.9167V47.3114C52.7297 47.0359 53.129 46.6387 53.407 46.1598C53.6849 45.6808 53.8318 45.1371 53.8327 44.5833V36.6667C53.8327 36.0423 53.6481 35.4319 53.3021 34.9121C52.9562 34.3923 52.4643 33.9864 51.8883 33.7454ZM30.7809 27.1667H45.2162C45.8986 27.1667 46.5034 27.6005 46.7188 28.2497L48.4699 33.5H27.5288L29.2783 28.2497C29.3834 27.9343 29.5851 27.6599 29.8548 27.4655C30.1244 27.2712 30.4485 27.1666 30.7809 27.1667ZM27.7077 43C27.3957 42.9999 27.0868 42.9383 26.7986 42.8189C26.5104 42.6994 26.2485 42.5243 26.028 42.3036C25.8074 42.0829 25.6325 41.8209 25.5132 41.5327C25.3939 41.2444 25.3326 40.9354 25.3327 40.6234C25.3328 40.3114 25.3943 40.0025 25.5138 39.7143C25.6333 39.4261 25.8084 39.1643 26.0291 38.9437C26.2498 38.7232 26.5117 38.5483 26.8 38.429C27.0883 38.3097 27.3973 38.2483 27.7093 38.2484C28.3394 38.2486 28.9436 38.4991 29.389 38.9448C29.8344 39.3905 30.0845 39.9949 30.0843 40.625C30.0841 41.2551 29.8335 41.8593 29.3878 42.3047C28.9422 42.7501 28.3378 43.0002 27.7077 43ZM48.291 43C47.979 42.9999 47.6701 42.9383 47.3819 42.8189C47.0937 42.6994 46.8318 42.5243 46.6113 42.3036C46.3908 42.0829 46.2158 41.8209 46.0965 41.5327C45.9773 41.2444 45.9159 40.9354 45.916 40.6234C45.9161 40.3114 45.9777 40.0025 46.0972 39.7143C46.2166 39.4261 46.3917 39.1643 46.6124 38.9437C46.8331 38.7232 47.0951 38.5483 47.3834 38.429C47.6716 38.3097 47.9806 38.2483 48.2926 38.2484C48.9227 38.2486 49.5269 38.4991 49.9723 38.9448C50.4177 39.3905 50.6678 39.9949 50.6676 40.625C50.6674 41.2551 50.4169 41.8593 49.9712 42.3047C49.5255 42.7501 48.9211 43.0002 48.291 43Z" fill="white"/>
</svg>
