<svg width="76" height="76" viewBox="0 0 76 76" fill="none" xmlns="http://www.w3.org/2000/svg">
<rect width="76" height="76" rx="38" fill="white" fill-opacity="0.15"/>
<path fill-rule="evenodd" clip-rule="evenodd" d="M25.334 25.3333C25.334 24.9134 25.5008 24.5107 25.7977 24.2137C26.0947 23.9168 26.4974 23.75 26.9173 23.75H49.084C49.5039 23.75 49.9066 23.9168 50.2036 24.2137C50.5005 24.5107 50.6673 24.9134 50.6673 25.3333C50.6673 25.7533 50.5005 26.156 50.2036 26.4529C49.9066 26.7499 49.5039 26.9167 49.084 26.9167V49.0833C49.5039 49.0833 49.9066 49.2501 50.2036 49.5471C50.5005 49.844 50.6673 50.2467 50.6673 50.6667C50.6673 51.0866 50.5005 51.4893 50.2036 51.7863C49.9066 52.0832 49.5039 52.25 49.084 52.25H26.9173C26.4974 52.25 26.0947 52.0832 25.7977 51.7863C25.5008 51.4893 25.334 51.0866 25.334 50.6667C25.334 50.2467 25.5008 49.844 25.7977 49.5471C26.0947 49.2501 26.4974 49.0833 26.9173 49.0833V26.9167C26.4974 26.9167 26.0947 26.7499 25.7977 26.4529C25.5008 26.156 25.334 25.7533 25.334 25.3333ZM33.2506 28.5C32.8307 28.5 32.428 28.6668 32.1311 28.9637C31.8341 29.2607 31.6673 29.6634 31.6673 30.0833V31.6667C31.6673 32.0866 31.8341 32.4893 32.1311 32.7863C32.428 33.0832 32.8307 33.25 33.2506 33.25H34.834C35.2539 33.25 35.6566 33.0832 35.9536 32.7863C36.2505 32.4893 36.4173 32.0866 36.4173 31.6667V30.0833C36.4173 29.6634 36.2505 29.2607 35.9536 28.9637C35.6566 28.6668 35.2539 28.5 34.834 28.5H33.2506ZM41.1673 28.5C40.7474 28.5 40.3447 28.6668 40.0477 28.9637C39.7508 29.2607 39.584 29.6634 39.584 30.0833V31.6667C39.584 32.0866 39.7508 32.4893 40.0477 32.7863C40.3447 33.0832 40.7474 33.25 41.1673 33.25H42.7506C43.1706 33.25 43.5733 33.0832 43.8702 32.7863C44.1672 32.4893 44.334 32.0866 44.334 31.6667V30.0833C44.334 29.6634 44.1672 29.2607 43.8702 28.9637C43.5733 28.6668 43.1706 28.5 42.7506 28.5H41.1673ZM33.2506 34.8333C32.8307 34.8333 32.428 35.0001 32.1311 35.2971C31.8341 35.594 31.6673 35.9967 31.6673 36.4167V38C31.6673 38.4199 31.8341 38.8227 32.1311 39.1196C32.428 39.4165 32.8307 39.5833 33.2506 39.5833H34.834C35.2539 39.5833 35.6566 39.4165 35.9536 39.1196C36.2505 38.8227 36.4173 38.4199 36.4173 38V36.4167C36.4173 35.9967 36.2505 35.594 35.9536 35.2971C35.6566 35.0001 35.2539 34.8333 34.834 34.8333H33.2506ZM41.1673 34.8333C40.7474 34.8333 40.3447 35.0001 40.0477 35.2971C39.7508 35.594 39.584 35.9967 39.584 36.4167V38C39.584 38.4199 39.7508 38.8227 40.0477 39.1196C40.3447 39.4165 40.7474 39.5833 41.1673 39.5833H42.7506C43.1706 39.5833 43.5733 39.4165 43.8702 39.1196C44.1672 38.8227 44.334 38.4199 44.334 38V36.4167C44.334 35.9967 44.1672 35.594 43.8702 35.2971C43.5733 35.0001 43.1706 34.8333 42.7506 34.8333H41.1673ZM36.4173 41.1667C35.5775 41.1667 34.772 41.5003 34.1781 42.0942C33.5843 42.688 33.2506 43.4935 33.2506 44.3333V49.0833H36.4173V44.3333H39.584V49.0833H42.7506V44.3333C42.7506 43.4935 42.417 42.688 41.8232 42.0942C41.2293 41.5003 40.4238 41.1667 39.584 41.1667H36.4173Z" fill="white"/>
</svg>
