<svg width="184" height="36" viewBox="0 0 184 36" fill="none" xmlns="http://www.w3.org/2000/svg">
<path d="M90.6533 26.5095H77.9141V10.2659H81.1512V23.6789H90.6533V26.5095ZM95.2006 30.1132H91.9635V9.62354H95.2006V16.6567H98.0193V19.7159H95.2006V30.1132Z" fill="white"/>
<path d="M111.738 17.7454C111.441 18.453 111.012 19.0845 110.461 19.618C109.911 20.1514 109.228 20.576 108.446 20.8809C107.654 21.1857 106.773 21.349 105.782 21.349C104.791 21.349 103.91 21.1966 103.117 20.8809C102.324 20.576 101.653 20.1514 101.102 19.618C100.552 19.0845 100.122 18.4639 99.814 17.7454C99.5057 17.0377 99.3516 16.2865 99.3516 15.4917C99.3516 14.697 99.5057 13.9566 99.814 13.2381C100.122 12.5304 100.552 11.899 101.102 11.3655C101.653 10.832 102.324 10.4074 103.117 10.1026C103.91 9.79773 104.791 9.63442 105.782 9.63442C106.773 9.63442 107.654 9.78684 108.446 10.1026C109.239 10.4074 109.911 10.832 110.461 11.3655C111.012 11.899 111.441 12.5195 111.749 13.2381C112.058 13.9457 112.212 14.697 112.212 15.4917C112.212 16.2865 112.058 17.0268 111.738 17.7454ZM118.29 29.9172H101.609V22.6773H104.846V27.0866H118.29V29.9172ZM105.782 18.551C106.762 18.551 107.543 18.268 108.116 17.6909C108.689 17.1139 108.975 16.3845 108.975 15.4917C108.975 14.599 108.689 13.8586 108.116 13.2925C107.543 12.7155 106.762 12.4324 105.782 12.4324C104.802 12.4324 104.02 12.7155 103.447 13.2925C102.875 13.8695 102.589 14.599 102.589 15.4917C102.589 16.3845 102.875 17.1248 103.447 17.6909C104.02 18.268 104.802 18.551 105.782 18.551ZM117.794 24.2886H114.557V9.62354H117.794V24.2886Z" fill="white"/>
<path d="M140.839 28.7411H120.426V25.9104H128.992V21.0112H132.273V25.9104H140.839V28.7411ZM138.252 22.6116C137.514 22.0999 136.831 21.61 136.193 21.1418C135.554 20.6737 134.927 20.2055 134.321 19.7374C133.716 19.2692 133.11 18.8011 132.504 18.3221C131.899 17.843 131.282 17.3313 130.644 16.787C130.005 17.3313 129.377 17.843 128.783 18.3221C128.177 18.8011 127.572 19.2692 126.966 19.7374C126.36 20.2055 125.722 20.6737 125.072 21.1418C124.423 21.61 123.74 22.0999 123.024 22.6116L121.053 20.4559C122.209 19.6067 123.388 18.714 124.577 17.7777C125.766 16.8414 126.834 15.9378 127.792 15.0777C128.188 14.7184 128.474 14.3591 128.684 13.9998C128.882 13.6406 128.992 13.1942 128.992 12.6607V10.0151H132.328V12.6389C132.328 13.1615 132.427 13.6079 132.636 13.989C132.846 14.37 133.132 14.7184 133.528 15.0777C134.486 15.9486 135.554 16.8414 136.743 17.7777C137.933 18.714 139.1 19.6067 140.267 20.4559L138.296 22.6116H138.252Z" fill="white"/>
<path d="M162.421 28.7413H142.008V25.9106H162.421V28.7413ZM160.99 22.6663H143.439V19.8356H146.423V13.0855H143.913V10.2549H160.528V13.0855H158.017V19.8356H161.001V22.6663H160.99ZM154.769 19.8356V13.0855H149.649V19.8356H154.769Z" fill="white"/>
<path d="M183.999 28.7416H163.586V25.911H183.999V28.7416ZM182.502 23.2654H165.491V10.1572H182.106V12.9879H168.728V15.3069H181.863V18.094H168.728V20.4347H182.502V23.2654Z" fill="white"/>
<path d="M49.6367 19.9201C49.6367 21.2658 50.7376 22.3458 52.0899 22.3458H67.572V17.4858H52.0899C50.729 17.4858 49.6367 18.5744 49.6367 19.9116V19.9201Z" fill="white"/>
<path d="M46.6889 8.26278C43.9756 8.26278 41.7738 10.4399 41.7738 13.1228V25.9971C41.7738 27.3085 39.9621 27.6856 39.4246 26.4856C37.1621 21.4542 34.9083 16.4142 32.6458 11.3828C29.9585 5.38278 20.8912 7.28563 20.8912 13.8428V25.9885C20.8912 27.2999 19.0795 27.6771 18.5421 26.4771C16.2796 21.4456 14.0257 16.4056 11.7632 11.3742C9.06732 5.38278 0 7.28564 0 13.8513V31.5856H4.91507V13.8513C4.91507 12.5399 6.7268 12.1628 7.26425 13.3628C9.52675 18.3942 11.7806 23.4342 14.0431 28.4656C16.7303 34.4656 25.7976 32.5628 25.7976 26.0056V13.8599C25.7976 12.5485 27.6094 12.1713 28.1468 13.3713C30.4093 18.4028 32.6631 23.4428 34.9256 28.4742C37.6129 34.4742 46.6802 32.5713 46.6802 26.0142V14.3485C46.6802 13.6799 47.2263 13.1313 47.9111 13.1313H67.5714V8.27135H46.6889V8.26278Z" fill="white"/>
<path d="M23.8379 5.82857C25.4676 5.82857 26.7852 4.52571 26.7852 2.91429C26.7852 1.30286 25.4676 0 23.8379 0C22.2082 0 20.8906 1.30286 20.8906 2.91429C20.8906 4.52571 22.2082 5.82857 23.8379 5.82857Z" fill="white"/>
<path d="M49.6367 29.1599C49.6367 30.5056 50.7376 31.5856 52.0899 31.5856H67.572V26.7256H52.0899C50.729 26.7256 49.6367 27.8142 49.6367 29.1513V29.1599Z" fill="white"/>
</svg>
