<svg width="193" height="38" viewBox="0 0 193 38" fill="none" xmlns="http://www.w3.org/2000/svg">
<path d="M95.0869 27.9825H81.7246V10.8364H85.1201V24.9946H95.0869V27.9825ZM99.8567 31.7864H96.4613V10.1584H99.8567V17.5822H102.813V20.8115H99.8567V31.7864Z" fill="#222222"/>
<path d="M117.202 18.7314C116.89 19.4784 116.439 20.1449 115.862 20.7081C115.285 21.2712 114.569 21.7194 113.749 22.0411C112.917 22.3629 111.993 22.5353 110.954 22.5353C109.914 22.5353 108.99 22.3744 108.159 22.0411C107.327 21.7194 106.623 21.2712 106.045 20.7081C105.468 20.1449 105.017 19.4899 104.694 18.7314C104.371 17.9844 104.209 17.1915 104.209 16.3526C104.209 15.5137 104.371 14.7322 104.694 13.9737C105.017 13.2267 105.468 12.5602 106.045 11.9971C106.623 11.434 107.327 10.9858 108.159 10.664C108.99 10.3423 109.914 10.1699 110.954 10.1699C111.993 10.1699 112.917 10.3308 113.749 10.664C114.58 10.9858 115.285 11.434 115.862 11.9971C116.439 12.5602 116.89 13.2153 117.213 13.9737C117.537 14.7207 117.698 15.5137 117.698 16.3526C117.698 17.1915 117.537 17.973 117.202 18.7314ZM124.073 31.5795H106.577V23.9373H109.972V28.5916H124.073V31.5795ZM110.954 19.5818C111.982 19.5818 112.802 19.283 113.402 18.674C114.003 18.0649 114.303 17.2949 114.303 16.3526C114.303 15.4102 114.003 14.6288 113.402 14.0312C112.802 13.4221 111.982 13.1233 110.954 13.1233C109.926 13.1233 109.106 13.4221 108.505 14.0312C107.905 14.6403 107.604 15.4102 107.604 16.3526C107.604 17.2949 107.905 18.0764 108.505 18.674C109.106 19.283 109.926 19.5818 110.954 19.5818ZM123.554 25.6381H120.158V10.1584H123.554V25.6381Z" fill="#222222"/>
<path d="M147.726 30.3382H126.314V27.3503H135.3V22.1789H138.741V27.3503H147.726V30.3382ZM145.012 23.8682C144.239 23.3281 143.523 22.8109 142.853 22.3168C142.183 21.8226 141.525 21.3284 140.889 20.8343C140.254 20.3401 139.619 19.846 138.984 19.3403C138.349 18.8347 137.702 18.2946 137.032 17.72C136.362 18.2946 135.704 18.8347 135.08 19.3403C134.445 19.846 133.81 20.3401 133.175 20.8343C132.539 21.3284 131.87 21.8226 131.188 22.3168C130.507 22.8109 129.791 23.3281 129.04 23.8682L126.973 21.5928C128.185 20.6964 129.421 19.754 130.668 18.7657C131.916 17.7774 133.036 16.8236 134.041 15.9157C134.457 15.5365 134.757 15.1572 134.976 14.778C135.184 14.3988 135.3 13.9276 135.3 13.3645V10.5719H138.799V13.3415C138.799 13.8931 138.903 14.3643 139.122 14.7665C139.342 15.1687 139.642 15.5365 140.058 15.9157C141.063 16.8351 142.183 17.7774 143.43 18.7657C144.678 19.754 145.902 20.6964 147.126 21.5928L145.059 23.8682H145.012Z" fill="#222222"/>
<path d="M170.363 30.3385H148.951V27.3505H170.363V30.3385ZM168.862 23.9259H150.453V20.938H153.582V13.8129H150.949V10.825H168.377V13.8129H165.744V20.938H168.873V23.9259H168.862ZM162.337 20.938V13.8129H156.966V20.938H162.337Z" fill="#222222"/>
<path d="M192.998 30.3386H171.586V27.3507H192.998V30.3386ZM191.427 24.5581H173.584V10.7217H191.012V13.7097H176.979V16.1575H190.757V19.0994H176.979V21.5702H191.427V24.5581Z" fill="#222222"/>
<path d="M52.0645 21.0267C52.0645 22.4472 53.2192 23.5872 54.6377 23.5872H70.877V18.4572H54.6377C53.2101 18.4572 52.0645 19.6062 52.0645 21.0176V21.0267Z" fill="url(#paint0_radial_2361_1420)"/>
<path d="M48.9726 8.7219C46.1266 8.7219 43.8171 11.02 43.8171 13.8519V27.4414C43.8171 28.8257 41.9167 29.2238 41.353 27.9571C38.9798 22.6462 36.6158 17.3262 34.2426 12.0152C31.4239 5.6819 21.9131 7.69047 21.9131 14.6119V27.4324C21.9131 28.8167 20.0127 29.2148 19.449 27.9481C17.0758 22.6371 14.7118 17.3171 12.3386 12.0062C9.51082 5.6819 0 7.69048 0 14.621V33.3405H5.15548V14.621C5.15548 13.2367 7.05583 12.8386 7.61957 14.1052C9.99273 19.4162 12.3568 24.7362 14.73 30.0471C17.5487 36.3805 27.0595 34.3719 27.0595 27.4505V14.63C27.0595 13.2457 28.9598 12.8476 29.5236 14.1143C31.8967 19.4252 34.2608 24.7452 36.6339 30.0562C39.4526 36.3895 48.9635 34.381 48.9635 27.4595V15.1457C48.9635 14.44 49.5363 13.861 50.2546 13.861H70.8765V8.73095H48.9726V8.7219Z" fill="url(#paint1_radial_2361_1420)"/>
<path d="M25.0036 6.15238C26.713 6.15238 28.0951 4.77714 28.0951 3.07619C28.0951 1.37524 26.713 0 25.0036 0C23.2942 0 21.9121 1.37524 21.9121 3.07619C21.9121 4.77714 23.2942 6.15238 25.0036 6.15238Z" fill="url(#paint2_radial_2361_1420)"/>
<path d="M52.0645 30.78C52.0645 32.2004 53.2192 33.3404 54.6377 33.3404H70.877V28.2104H54.6377C53.2101 28.2104 52.0645 29.3595 52.0645 30.7709V30.78Z" fill="url(#paint3_radial_2361_1420)"/>
<defs>
<radialGradient id="paint0_radial_2361_1420" cx="0" cy="0" r="1" gradientUnits="userSpaceOnUse" gradientTransform="translate(24.9231 2.91334) scale(46.1811 45.9529)">
<stop offset="0.1" stop-color="#F6AB00"/>
<stop offset="0.29" stop-color="#F39802"/>
<stop offset="0.66" stop-color="#ED6807"/>
<stop offset="1" stop-color="#E8380D"/>
</radialGradient>
<radialGradient id="paint1_radial_2361_1420" cx="0" cy="0" r="1" gradientUnits="userSpaceOnUse" gradientTransform="translate(0.454629 2.91333) scale(46.1811 45.9529)">
<stop offset="0.1" stop-color="#F6AB00"/>
<stop offset="0.29" stop-color="#F39802"/>
<stop offset="0.66" stop-color="#ED6807"/>
<stop offset="1" stop-color="#E8380D"/>
</radialGradient>
<radialGradient id="paint2_radial_2361_1420" cx="0" cy="0" r="1" gradientUnits="userSpaceOnUse" gradientTransform="translate(0.453657 2.91333) scale(46.1811 45.9529)">
<stop offset="0.1" stop-color="#F6AB00"/>
<stop offset="0.29" stop-color="#F39802"/>
<stop offset="0.66" stop-color="#ED6807"/>
<stop offset="1" stop-color="#E8380D"/>
</radialGradient>
<radialGradient id="paint3_radial_2361_1420" cx="0" cy="0" r="1" gradientUnits="userSpaceOnUse" gradientTransform="translate(0.455057 2.91332) scale(46.1811 45.9528)">
<stop offset="0.1" stop-color="#F6AB00"/>
<stop offset="0.29" stop-color="#F39802"/>
<stop offset="0.66" stop-color="#ED6807"/>
<stop offset="1" stop-color="#E8380D"/>
</radialGradient>
</defs>
</svg>
