<svg width="155" height="46" viewBox="0 0 155 46" fill="none" xmlns="http://www.w3.org/2000/svg">
<g clip-path="url(#clip0_2361_1832)">
<path d="M35.4067 21.9526C31.4238 19.2379 26.3227 20.3443 23.647 24.4316C21.4105 27.8428 18.0352 28.2679 16.728 28.2679C12.4694 28.2679 9.54867 25.2613 8.68572 22.1523C8.6755 22.1216 8.6704 22.096 8.66529 22.0652C8.66018 22.0294 8.64487 21.9987 8.63465 21.9577C8.29764 20.6618 8.21083 20.037 8.21083 18.6592C8.21083 11.2221 15.8191 2.93998 26.7822 2.93998C37.7453 2.93998 44.4243 11.509 46.0787 16.2723C46.0481 16.1904 46.0225 16.1033 45.997 16.0162C42.8056 6.69947 33.9973 0 23.6317 0C10.5852 0 0 10.6126 0 23.7043C0 35.4078 8.41508 45.4212 20.0879 45.4212C29.3966 45.4212 35.6518 40.1866 38.5215 32.9698C40.0942 29.0259 38.981 24.3855 35.4067 21.9474" fill="#003668"/>
<path d="M46.222 16.7284C44.8434 12.0828 38.3738 2.93506 26.7775 2.93506C15.8144 2.93506 8.20605 11.2172 8.20605 18.6542C8.20605 20.032 8.28775 20.6569 8.62987 21.9528C8.4869 21.3842 8.4103 20.8157 8.4103 20.2625C8.4103 12.5182 16.1463 7.14528 24.0916 7.14528C34.8504 7.14528 43.577 15.8986 43.577 26.6905C43.577 35.1519 38.7261 42.4763 31.6693 45.995C40.7584 42.6965 47.2535 33.9637 47.2535 23.7044C47.2535 21.2767 46.9267 19.1357 46.2118 16.7284" fill="#E6002D"/>
<path d="M74.8264 26.6235V33.2308H72.4775V28.6876H60.0489V26.6286H66.3807V23.8474H58.8643V21.7884H76.2255V23.8474H68.7091V26.6286H74.8264V26.6235ZM74.8264 14.6279V20.2774H72.4775V16.7074H60.2634V14.6279H74.8315H74.8264Z" fill="#595757"/>
<path d="M94.6242 26.2855H88.4864V29.7274H96.0028V31.7865H78.6416V29.7274H86.1376V26.2855H80.0356V15.2017H94.5833V17.2607H82.3436V19.7243H94.5833V21.7424H82.3436V24.2265H94.6242V26.2855Z" fill="#595757"/>
<path d="M102.545 29.7279V23.848H104.766V29.7279H107.922V23.848H110.164V29.7279H115.775V31.787H98.4141V29.7279H102.54H102.545ZM112.027 26.3936V17.3021H99.8132V15.2021H114.381V26.3936H112.032H112.027Z" fill="#595757"/>
<path d="M135.337 25.0767H117.976V23.1458H125.492V21.9114H119.375V14.459H133.917V16.39H121.662V17.3273H133.917V19.0892H121.662V20.0419H133.963V21.9114H127.8V23.1458H135.337V25.0767ZM131.293 29.7274C131.293 30.3216 131.17 30.8799 130.925 31.4023C130.675 31.9248 130.348 32.3806 129.94 32.7596C129.516 33.154 129.031 33.4716 128.479 33.7072C127.928 33.9428 127.335 34.0555 126.702 34.0555C126.069 34.0555 125.472 33.9377 124.91 33.7072C124.353 33.4716 123.863 33.1591 123.439 32.7596C123.031 32.3755 122.704 31.9248 122.459 31.4023C122.209 30.8799 122.086 30.3216 122.086 29.7274C122.086 29.1333 122.209 28.5801 122.459 28.0577C122.704 27.5404 123.031 27.0897 123.439 26.7106C123.863 26.3162 124.353 25.9987 124.91 25.7682C125.466 25.5326 126.064 25.4199 126.702 25.4199C127.34 25.4199 127.928 25.5377 128.479 25.7682C129.031 26.0038 129.516 26.3162 129.94 26.7106C130.348 27.0948 130.675 27.5404 130.925 28.0577C131.17 28.575 131.293 29.1282 131.293 29.7274ZM129.025 29.707C129.025 29.0718 128.796 28.5238 128.346 28.0628C127.897 27.6018 127.346 27.3714 126.697 27.3714C126.049 27.3714 125.492 27.6018 125.038 28.0628C124.578 28.5238 124.348 29.0718 124.348 29.707C124.348 30.3421 124.578 30.8901 125.038 31.3409C125.497 31.7916 126.049 32.0221 126.697 32.0221C127.346 32.0221 127.897 31.7967 128.346 31.3409C128.796 30.8901 129.025 30.3421 129.025 29.707Z" fill="#595757"/>
<path d="M137.639 26.2088H155V28.2883H147.484V33.1746H145.135V28.2883H137.639V26.2088ZM141.346 16.9483H151.277V14.5513H153.606V23.6632H139.038V14.5513H141.346V16.9483ZM151.272 18.9869H141.341V21.599H151.272V18.9869Z" fill="#595757"/>
</g>
<defs>
<clipPath id="clip0_2361_1832">
<rect width="155" height="46" fill="white"/>
</clipPath>
</defs>
</svg>
