<svg width="259" height="44" viewBox="0 0 259 44" fill="none" xmlns="http://www.w3.org/2000/svg">
<g clip-path="url(#clip0_2361_1725)">
<path d="M107.056 14.2531C107.159 13.4266 107.205 12.7812 107.182 12.2943H100.884V10.6299H109.09C109.113 11.4111 109.067 12.3736 108.953 13.5058C108.839 14.6381 108.69 15.6005 108.519 16.3818H111.628V17.9783H106.062V20.2089H109.216V25.7344H107.365V21.828H100.747V20.2089H104.107V17.9783H98.4844V16.3818H106.679C106.827 15.793 106.953 15.091 107.056 14.2645V14.2531Z" fill="#222222"/>
<path d="M112.279 18.7755C112.896 18.4924 113.514 18.1414 114.108 17.7111C114.714 17.2809 115.251 16.8053 115.731 16.2845C116.222 15.7523 116.634 15.1748 116.942 14.5521C117.251 13.9407 117.445 13.2953 117.502 12.6385H113.239V10.9854H119.571C119.525 12.0498 119.365 13.0348 119.068 13.952C118.771 14.8691 118.371 15.6957 117.868 16.4203C117.342 17.1903 116.702 17.881 115.971 18.4811C115.228 19.0812 114.405 19.602 113.491 20.0323L112.291 18.7755H112.279ZM125.285 14.5408V16.1486H123.274V23.3385H121.457V10.1362H123.274V14.5408H125.285Z" fill="#222222"/>
<path d="M125.387 17.5413C125.878 17.1563 126.301 16.7374 126.678 16.2731C127.055 15.8089 127.352 15.356 127.547 14.8918C127.718 14.4955 127.855 14.0312 127.947 13.4877C128.05 12.9556 128.095 12.4234 128.095 11.9026V10.6571H129.958V11.9026C129.958 12.3894 130.004 12.8876 130.095 13.3858C130.187 13.8954 130.313 14.3256 130.461 14.688C130.644 15.1069 130.895 15.5258 131.238 15.9335C131.57 16.3411 131.958 16.726 132.393 17.0657L131.444 18.3792C131.215 18.2093 130.953 17.9829 130.655 17.7111C130.358 17.428 130.118 17.1676 129.913 16.9185C129.65 16.5902 129.455 16.3297 129.318 16.1373C129.181 15.9448 129.113 15.8202 129.09 15.7636C129.055 15.8542 128.964 16.024 128.793 16.2731C128.633 16.5222 128.438 16.794 128.221 17.0657C127.981 17.3828 127.73 17.6771 127.467 17.9489C127.204 18.2206 126.884 18.4811 126.518 18.7415L125.387 17.53V17.5413ZM136.107 25.252C135.433 25.9427 134.598 26.2824 133.604 26.2824C132.61 26.2824 131.798 25.9427 131.113 25.252C130.427 24.5613 130.084 23.7235 130.084 22.7497C130.084 21.776 130.427 20.9268 131.113 20.2361C131.798 19.5454 132.633 19.1944 133.604 19.1944C134.575 19.1944 135.421 19.5454 136.107 20.2361C136.781 20.9268 137.124 21.7646 137.124 22.7497C137.124 23.7348 136.781 24.5613 136.107 25.252ZM134.804 21.4023C134.473 21.0287 134.073 20.8475 133.615 20.8475C133.158 20.8475 132.747 21.0287 132.404 21.4023C132.061 21.7646 131.89 22.2175 131.89 22.7497C131.89 23.2819 132.05 23.7121 132.381 24.0858C132.713 24.4594 133.101 24.6406 133.57 24.6406C134.038 24.6406 134.438 24.4594 134.781 24.0858C135.124 23.7121 135.307 23.2706 135.307 22.7497C135.307 22.2289 135.147 21.7646 134.815 21.4023H134.804ZM135.73 10.1476H137.524V19.0812H135.73V15.3107H134.393V18.6396H132.655V10.3287H134.393V13.5897H135.73V10.1362V10.1476Z" fill="#222222"/>
<path d="M146.06 10.7963V18.2127H139.797V10.7963H146.06ZM141.66 16.6049H144.22V12.3702H141.66V16.6049ZM149.351 25.2328C148.677 25.9235 147.843 26.2631 146.848 26.2631C145.854 26.2631 145.043 25.9235 144.357 25.2328C143.671 24.5421 143.328 23.7042 143.328 22.7305C143.328 21.7567 143.671 20.9075 144.357 20.2168C145.043 19.5261 145.877 19.1751 146.848 19.1751C147.82 19.1751 148.677 19.5261 149.351 20.2168C150.026 20.9075 150.369 21.7454 150.369 22.7305C150.369 23.7155 150.026 24.5421 149.351 25.2328ZM148.014 24.0665C148.357 23.6929 148.54 23.2513 148.54 22.7305C148.54 22.2096 148.368 21.7454 148.037 21.3831C147.706 21.0094 147.306 20.8282 146.848 20.8282C146.391 20.8282 145.98 21.0094 145.637 21.3831C145.294 21.7454 145.123 22.1983 145.123 22.7305C145.123 23.2626 145.283 23.6929 145.614 24.0665C145.946 24.4402 146.334 24.6213 146.803 24.6213C147.271 24.6213 147.671 24.4402 148.014 24.0665ZM148.849 10.0943H150.677V19.4695H148.849V16.8313H146.631V15.2462H148.849V13.7516H146.631V12.1664H148.849V10.083V10.0943Z" fill="#222222"/>
<path d="M153.82 11.7022C154.528 10.9322 155.397 10.5472 156.414 10.5472C157.431 10.5472 158.3 10.9322 159.008 11.7022C159.717 12.4721 160.071 13.4006 160.071 14.4989C160.071 15.5972 159.717 16.5369 159.008 17.3069C158.3 18.0768 157.431 18.4618 156.414 18.4618C155.397 18.4618 154.528 18.0768 153.82 17.3069C153.111 16.5369 152.757 15.5972 152.757 14.4989C152.757 13.4006 153.111 12.4721 153.82 11.7022ZM157.683 12.9024C157.328 12.4721 156.905 12.257 156.414 12.257C155.923 12.257 155.5 12.4721 155.145 12.9024C154.791 13.3326 154.62 13.8648 154.62 14.4989C154.62 15.1329 154.803 15.6538 155.145 16.084C155.5 16.5256 155.923 16.7408 156.414 16.7408C156.905 16.7408 157.328 16.5256 157.683 16.084C158.037 15.6538 158.208 15.1216 158.208 14.4989C158.208 13.8761 158.037 13.3326 157.683 12.9024ZM158.026 20.4999V23.7948H164.494V25.4479H156.174V20.4999H158.026ZM162.334 10.1057H164.163V21.3491H162.334V17.2842H160.197V15.6311H162.334V13.5704H160.197V11.9173H162.334V10.083V10.1057Z" fill="#222222"/>
<path d="M174.428 14.7111C174.53 13.7714 174.576 13.0467 174.553 12.5145H168.29V10.8501H176.485C176.485 11.7106 176.416 12.7636 176.29 14.0091C176.153 15.2433 176.005 16.3416 175.845 17.2814H178.828V18.9005H173.445V23.724H171.502V18.9005H166.027V17.2814H174.028C174.199 16.5114 174.336 15.6622 174.439 14.7225L174.428 14.7111Z" fill="#222222"/>
<path d="M180.265 12.6473V10.9603H187.397V12.6473H184.734C184.757 13.2701 184.825 13.8702 184.928 14.4476C185.043 15.0251 185.214 15.5346 185.443 15.9762C185.683 16.4631 186.037 16.95 186.506 17.4255C186.974 17.9011 187.511 18.354 188.117 18.7729L187.077 20.0637C186.791 19.8939 186.494 19.6787 186.174 19.4296C185.854 19.1805 185.545 18.8975 185.237 18.5918C184.951 18.2974 184.688 18.003 184.437 17.6973C184.185 17.3916 183.991 17.0972 183.831 16.8141C183.683 17.1085 183.5 17.4142 183.26 17.7199C183.031 18.0256 182.78 18.32 182.505 18.6031C182.185 18.9314 181.865 19.2372 181.523 19.5315C181.18 19.8259 180.848 20.075 180.517 20.2902L179.408 19.022C180.117 18.5578 180.711 18.0369 181.203 17.4482C181.694 16.8594 182.048 16.3159 182.288 15.795C182.471 15.3761 182.608 14.8892 182.711 14.3457C182.814 13.8023 182.871 13.2474 182.871 12.6813H180.265V12.6473ZM192.666 14.5496V16.1574H190.666V23.3473H188.848V10.145H190.666V14.5496H192.666Z" fill="#222222"/>
<path d="M195.983 18.6925H192.794V17.1639H195.434C196.497 17.1639 197.72 17.1186 199.103 17.028C200.486 16.9374 201.537 16.8469 202.268 16.7563V18.2622C201.857 18.3188 201.286 18.3754 200.554 18.4434C199.823 18.5 199.068 18.5679 198.268 18.6245V20.6853H196.394V18.6925H195.983ZM194.897 11.1063C195.583 10.4495 196.405 10.1099 197.377 10.1099C198.348 10.1099 199.171 10.4382 199.857 11.1063C200.543 11.7743 200.886 12.5669 200.886 13.5067C200.886 14.4465 200.531 15.2164 199.811 15.8391C199.091 16.4732 198.28 16.7789 197.377 16.7789C196.474 16.7789 195.64 16.4619 194.943 15.8391C194.234 15.2051 193.88 14.4351 193.88 13.5067C193.88 12.5782 194.223 11.763 194.908 11.1063H194.897ZM198.474 12.2499C198.143 11.8988 197.765 11.729 197.365 11.729C196.965 11.729 196.611 11.8988 196.268 12.2499C195.925 12.5895 195.754 13.0198 195.754 13.518C195.754 14.0162 195.925 14.4238 196.268 14.7635C196.611 15.1032 196.977 15.2843 197.365 15.2843C197.754 15.2843 198.131 15.1145 198.474 14.7635C198.806 14.4125 198.977 14.0049 198.977 13.518C198.977 13.0311 198.806 12.5895 198.474 12.2499ZM198.257 21.3306V23.8103H204.714V25.4634H196.417V21.3306H198.268H198.257ZM199.823 20.5494V19.0661H202.783V10.1212H204.611V21.7949H202.783V20.5381H199.823V20.5494Z" fill="#222222"/>
<path d="M207.136 12.397V10.7892H214.131V12.397H211.605V12.8386C211.605 13.3255 211.696 13.8011 211.868 14.254C212.039 14.7182 212.256 15.0918 212.508 15.3976C212.771 15.7259 213.114 16.043 213.514 16.36C213.925 16.677 214.336 16.9374 214.759 17.1639L213.834 18.4887C213.548 18.3528 213.216 18.1716 212.851 17.9452C212.485 17.7187 212.176 17.4923 211.925 17.2658C211.651 17.028 211.411 16.7902 211.193 16.5411C210.976 16.3034 210.816 16.0882 210.713 15.9071C210.645 16.0656 210.519 16.2581 210.348 16.4732C210.176 16.6883 209.948 16.9714 209.639 17.2998C209.308 17.6395 208.976 17.9338 208.633 18.2056C208.291 18.466 207.959 18.6811 207.651 18.8623L206.462 17.5715C206.896 17.3451 207.319 17.0507 207.742 16.677C208.165 16.3034 208.519 15.9184 208.805 15.4995C209.045 15.1485 209.251 14.7295 209.422 14.254C209.593 13.7784 209.673 13.3142 209.673 12.8613V12.3857H207.148L207.136 12.397ZM216.736 25.2483C216.062 25.939 215.228 26.2787 214.234 26.2787C213.239 26.2787 212.428 25.939 211.742 25.2483C211.056 24.5576 210.713 23.7197 210.713 22.746C210.713 21.7722 211.056 20.923 211.742 20.2323C212.428 19.5417 213.251 19.1907 214.234 19.1907C215.216 19.1907 216.051 19.5417 216.736 20.2323C217.411 20.923 217.754 21.7609 217.754 22.746C217.754 23.7311 217.411 24.5576 216.736 25.2483ZM215.399 24.0821C215.742 23.7084 215.914 23.2668 215.914 22.746C215.914 22.2251 215.754 21.7609 215.422 21.3986C215.091 21.0249 214.691 20.8438 214.234 20.8438C213.776 20.8438 213.365 21.0249 213.022 21.3986C212.679 21.7609 212.508 22.2138 212.508 22.746C212.508 23.2781 212.668 23.7084 212.999 24.0821C213.331 24.4557 213.719 24.6369 214.188 24.6369C214.656 24.6369 215.056 24.4557 215.399 24.0821ZM216.234 10.1099H218.062V19.4398H216.234V15.1258H213.536V13.5406H216.234V10.1099Z" fill="#222222"/>
<path d="M222.292 18.3193V10.5859H224.121V12.8958H228.544V10.5859H230.372V18.3193H227.344V20.3914H232.932V22.0105H219.789V20.3914H225.412V18.3193H222.303H222.292ZM224.121 16.7228H228.544V14.4809H224.121V16.7228Z" fill="#222222"/>
<path d="M237.261 17.0091C237.124 16.794 236.999 16.5902 236.884 16.3864C236.793 16.6015 236.679 16.8166 236.541 17.0431C236.404 17.2582 236.256 17.4847 236.096 17.7111C235.844 18.0508 235.581 18.3678 235.307 18.6396C235.033 18.9226 234.701 19.217 234.324 19.5114L233.17 18.2886C233.627 17.9036 234.05 17.4847 234.416 17.0318C234.781 16.5788 235.079 16.1146 235.284 15.6391C235.479 15.2088 235.627 14.6993 235.741 14.0992C235.856 13.5104 235.913 12.9103 235.913 12.3215V10.6571H237.776V12.3215C237.776 12.8537 237.821 13.3972 237.913 13.9633C238.004 14.5294 238.141 15.005 238.313 15.4013C238.496 15.8202 238.747 16.2392 239.067 16.6581C239.399 17.077 239.764 17.462 240.187 17.8017L239.239 19.1038C238.907 18.8547 238.621 18.6169 238.381 18.3905C238.141 18.164 237.924 17.9149 237.707 17.6432C237.536 17.4394 237.387 17.2242 237.25 17.0091H237.261ZM239.01 20.5418V23.8027H245.479V25.4558H237.159V20.5418H239.01ZM238.804 14.7446V13.1254H240.679V10.3174H242.416V20.5305H240.679V14.7332H238.804V14.7446ZM243.536 10.1362H245.342V20.9268H243.536V10.1362Z" fill="#222222"/>
<path d="M253.743 14.3529V15.9494H249.755V18.0554H251.263C251.938 18.0327 252.692 17.9874 253.526 17.9308C254.36 17.8629 255.195 17.7836 256.041 17.6704V19.2329C255.195 19.3801 254.212 19.4934 253.126 19.5613C252.029 19.6406 251.183 19.6745 250.6 19.6745H247.938V10.8768H254.006V12.5412H249.743V14.3642H253.732L253.743 14.3529ZM256.681 10.1182H258.532V23.3431H256.681V15.7795H254.441V14.0924H256.681V10.1182Z" fill="#222222"/>
<path d="M60.791 9.69531H69.1226V34.9336H64.9625V13.9074H60.791V9.69531Z" fill="#222222"/>
<path fill-rule="evenodd" clip-rule="evenodd" d="M3.85334 6.69873V34.9262H0.0246863C0.127546 25.5737 -0.181033 15.7682 0.18469 6.69873H3.85334Z" fill="#222222"/>
<path fill-rule="evenodd" clip-rule="evenodd" d="M41.3715 6.69873H45.0516V17.5459C45.0516 22.2788 44.3087 28.076 46.7316 29.7631C49.1545 31.4502 54.9146 30.7481 56.0804 28.3817C57.6004 25.2906 56.6061 18.6329 54.0918 17.7044C51.9774 16.9231 49.3831 17.9308 46.743 17.5346C46.8345 16.0852 46.5602 14.2283 46.8916 13.0621C53.5089 12.5526 58.2061 13.515 59.909 18.2252C60.9948 21.2371 60.7776 26.4116 60.2176 28.7214C58.9833 33.8166 53.5889 35.8094 47.3488 34.7451C44.4801 34.2582 41.6686 31.2124 41.2229 27.8609C40.3429 21.3729 41.8743 14.6926 41.2229 7.20825C41.2115 6.95915 41.1886 6.72138 41.3715 6.69873Z" fill="#222222"/>
<path fill-rule="evenodd" clip-rule="evenodd" d="M17.1789 14.7835C14.5389 17.4896 12.1617 20.5015 9.52162 23.2189C10.8016 25.0192 13.236 27.7367 15.1903 29.9333C15.6932 30.4881 17.1675 31.6203 17.1789 31.994C17.2132 32.8092 14.7446 34.4737 14.2646 35.0964C12.7103 33.0923 11.1102 31.5524 9.21304 29.4124C8.0473 28.099 4.66437 25.3023 4.61865 23.3887C4.57294 21.5545 7.76158 18.8144 9.05303 17.3651C11.2474 14.8967 12.7217 13.504 14.2532 11.5112C15.4189 12.3831 16.3903 13.4701 17.1675 14.7835H17.1789Z" fill="#222222"/>
<path fill-rule="evenodd" clip-rule="evenodd" d="M25.9306 13.2457C31.7022 12.5437 36.6509 13.8345 37.8738 19.4392C38.3423 21.5905 38.5481 26.2215 37.7252 29.0748C37.1423 31.079 35.3366 33.3775 33.4394 34.238C30.7308 35.4608 25.5535 35.3476 23.0277 34.0681C21.1534 33.117 19.5991 30.9091 19.0505 28.7352C18.5362 26.7197 18.0676 22.168 19.1991 18.5787C19.8276 16.5972 21.7934 13.7552 25.9421 13.2457H25.9306ZM26.0792 17.5483C21.6905 18.1371 21.4734 28.1351 24.5478 29.9467C26.7535 31.2375 33.908 30.7619 34.0451 27.535C35.1308 19.0203 32.7651 16.6425 26.0792 17.5483Z" fill="#222222"/>
<path fill-rule="evenodd" clip-rule="evenodd" d="M92.664 26.1231H88.6753C88.9382 30.4371 83.5666 31.2523 79.9437 30.0861C77.1894 29.1916 76.4693 24.187 77.4979 20.2693C78.6751 15.7515 89.0296 15.8874 88.8353 21.4695H92.664C92.3783 14.2456 87.3153 12.0603 79.9551 13.0341C79.2694 13.1247 78.4122 13.3285 77.6579 13.7248C72.5493 16.363 71.4978 27.8442 75.6693 32.3167C80.1151 37.0835 93.304 35.7135 92.664 26.1231Z" fill="#222222"/>
<path fill-rule="evenodd" clip-rule="evenodd" d="M69.1215 13.9263V34.9299H64.9842C65.0871 27.9891 64.7785 20.584 65.1328 13.9263H69.11H69.1215Z" fill="#222222"/>
<path fill-rule="evenodd" clip-rule="evenodd" d="M65.5673 0.0256921C66.7673 -0.144148 68.2073 0.523891 68.7102 2.15436C70.4474 7.62323 62.2415 8.31391 62.7215 2.86769C62.8472 1.48632 63.7158 0.297437 65.5558 0.0370148L65.5673 0.0256921Z" fill="#EE7500"/>
<path d="M96.3541 30.6201L95.8398 30.9485L96.1598 30.8692C96.297 30.8239 96.3084 30.7333 96.3541 30.6201Z" fill="#EE7500"/>
<path d="M95.3598 31.2549L95.2688 31.3115L95.2119 31.3794L95.3598 31.2549Z" fill="#EE7500"/>
<path d="M94.5166 31.9069L94.9623 31.5898C94.8252 31.6578 94.6766 31.7597 94.5166 31.9069Z" fill="#EE7500"/>
<path d="M95.2685 31.5004C95.1885 31.5004 95.1314 31.4665 95.2 31.3872L94.96 31.591L95.2685 31.5004Z" fill="#EE7500"/>
<path d="M95.2695 31.4984C95.3492 31.4984 95.4516 31.4757 95.4971 31.4871H95.2695V31.4984Z" fill="#EE7500"/>
<path d="M95.6837 32.5844C95.6151 32.6749 95.4551 32.3919 95.318 32.573C94.9523 32.924 94.6665 33.2864 94.278 33.5468C94.1408 33.728 93.6608 33.6147 93.5122 33.7846C93.1237 34.1129 92.2322 35.1546 92.8836 34.7357C93.8551 34.1242 94.438 33.6374 95.2608 33.0033C95.8894 32.4372 96.4609 31.8597 97.1123 31.2936L97.6952 30.9199L96.8494 31.3275C96.438 31.4974 96.2323 32.1315 95.6951 32.573L95.6837 32.5844Z" fill="#EE7500"/>
<path d="M100.115 28.1215C100.046 28.2121 99.9204 28.3932 99.9204 28.3932C99.3947 28.4952 99.0518 28.8575 98.709 29.2311H98.9833C99.2004 29.0386 99.1776 28.9481 98.9261 29.05C99.509 28.8575 99.9776 28.5518 100.412 28.2008C100.332 28.1555 100.275 28.0649 100.115 28.1328V28.1215Z" fill="#EE7500"/>
<path d="M100.653 27.9756L100.401 28.1907L100.436 28.202L100.664 27.9756H100.653Z" fill="#EE7500"/>
<path d="M92.7771 33.3713C91.5543 34.0846 90.4228 34.8206 89.2456 35.3754C89.1885 35.4773 89.1542 35.5679 89.0171 35.6019L88.6856 35.6471L88.1713 35.8962L87.9999 36.0095C87.9199 36.1001 87.977 36.1227 88.0456 36.134H88.2856C88.2856 36.134 88.137 36.134 88.0456 36.134L87.737 36.1906L87.257 36.4511C87.4284 36.3152 87.5884 36.2359 87.737 36.1906L87.9999 35.9982L88.0685 35.9302L86.8913 36.4964L86.6627 36.6435C86.3999 36.8134 86.137 36.9832 85.8856 36.9266L85.6684 37.0172H85.7141L85.6227 37.0285L84.7084 37.4022L84.1827 37.8324C84.1827 37.8324 84.0112 37.7985 83.9198 37.7758C83.8741 37.889 83.7826 37.9909 83.6569 38.0702L84.2055 38.1155C84.4684 38.1721 84.5255 37.6173 84.8912 37.7871C84.5255 37.6173 84.4798 38.1721 84.2055 38.1155L83.6569 38.0702C83.3941 38.2514 82.9941 38.3306 82.6398 38.308C82.9598 38.0362 83.3255 38.0476 83.6569 38.0702C83.7826 37.9796 83.8741 37.8777 83.9198 37.7758C84.0112 37.7985 84.1827 37.8324 84.1827 37.8324L84.7084 37.4022C84.1141 37.6286 83.5198 37.9117 82.8912 38.1042C78.8911 39.5082 75.1082 40.6178 70.7424 41.0028C68.388 41.1839 66.1023 41.1387 63.9194 40.8103C59.6221 40.1762 55.5192 39.6327 51.3477 37.7645C49.7591 37.0738 46.6961 36.2925 45.2332 35.7151C43.1646 35.3981 43.5075 37.0285 43.5761 37.1644C44.3989 38.8062 45.7018 38.6137 48.239 40.097C46.479 39.1572 49.8162 39.8139 51.4162 41.0141C53.7477 42.8484 57.6449 42.7578 60.9822 43.4938C61.8165 43.6523 62.7308 43.7202 63.7479 43.7882C69.0509 44.4902 74.011 43.3239 79.2568 41.7954C80.6511 41.3764 81.7598 40.6631 82.8226 40.0517C83.6341 39.6894 84.5712 39.4855 85.2227 39.1685C86.2398 38.6816 87.1084 38.2287 87.8627 37.6513C86.9713 38.1948 86.297 38.5458 85.2684 39.0779C84.5712 39.4176 85.5884 38.4778 86.0113 38.1948C86.1713 38.0362 86.6399 38.2174 86.8113 38.0589C87.2456 37.8664 87.5656 37.5267 87.977 37.221C88.137 37.0625 88.2628 37.3569 88.3428 37.2663C88.9256 36.8813 89.1999 36.2699 89.6342 36.1453L90.5371 35.8396L91.04 35.5679L91.3257 35.3075C91.1885 35.2735 91.0971 35.1942 91.0057 35.1037C91.1657 35.0244 91.4285 34.9565 91.5885 34.8772C91.4171 34.9565 91.1657 35.0244 91.0057 35.1037C91.0971 35.1942 91.1885 35.2735 91.3257 35.3075C92.0114 34.6847 92.8228 34.0054 93.5771 33.3939L93.5543 33.3713C93.0857 33.6883 92.5943 33.9487 91.9885 34.0733C92.24 34.0054 92.2628 34.0959 92.0228 34.2658L91.7485 34.2431C92.1371 33.9035 92.5143 33.5751 93.0514 33.5298C93.0514 33.5298 93.2 33.36 93.2686 33.2694C93.4286 33.2241 93.4743 33.3147 93.5543 33.3713L93.8172 33.1675C93.5429 33.1675 92.7886 33.36 92.7886 33.3713H92.7771Z" fill="#EE7500"/>
<path d="M87.7406 36.197L87.9692 36.0498L86.9863 36.514C87.2263 36.5593 87.4892 36.3782 87.7406 36.197Z" fill="#EE7500"/>
<path d="M98.4707 27.3062H99.945V31.4616L103.374 27.3062H105.065L101.191 32.0617L105.065 36.8172H103.374L99.945 32.6844V36.8172H98.4707V27.3062Z" fill="#777777"/>
<path d="M106.242 30.8212C106.86 30.1078 107.591 29.7568 108.448 29.7568C109.305 29.7568 110.06 30.1078 110.665 30.8212C111.283 31.5345 111.58 32.3837 111.58 33.3914C111.58 34.3991 111.271 35.271 110.665 35.9843C110.06 36.6977 109.317 37.0487 108.448 37.0487C107.58 37.0487 106.86 36.6977 106.242 35.9843C105.625 35.271 105.328 34.4105 105.328 33.3914C105.328 32.3724 105.637 31.5345 106.242 30.8212ZM107.134 31.8629C106.757 32.2818 106.574 32.7913 106.574 33.3914C106.574 33.9915 106.757 34.5011 107.134 34.9313C107.511 35.3616 107.945 35.5767 108.448 35.5767C108.951 35.5767 109.408 35.3616 109.785 34.9313C110.163 34.5011 110.345 33.9915 110.345 33.3914C110.345 32.7913 110.163 32.2931 109.785 31.8629C109.408 31.4439 108.962 31.2288 108.448 31.2288C107.934 31.2288 107.511 31.4439 107.134 31.8629Z" fill="#777777"/>
<path d="M113.877 30.5867C114.002 30.3942 114.208 30.2131 114.482 30.0432C114.837 29.8168 115.282 29.7602 115.831 29.8507V31.1076C115.248 31.0623 114.814 31.1302 114.528 31.3227C114.185 31.5491 113.957 31.8322 113.831 32.1832C113.705 32.5342 113.648 32.772 113.648 32.8965V36.8142H112.174V29.9979H113.648V30.9717C113.671 30.9151 113.751 30.7792 113.888 30.598L113.877 30.5867Z" fill="#777777"/>
<path d="M117.512 34.0338C117.604 34.4527 117.81 34.8151 118.13 35.1208C118.45 35.4265 118.861 35.585 119.364 35.585C119.764 35.585 120.095 35.4718 120.358 35.2566C120.633 35.0302 120.815 34.8264 120.907 34.6339H122.278C122.05 35.3585 121.684 35.9473 121.193 36.3889C120.701 36.8305 120.084 37.057 119.364 37.057C118.495 37.057 117.752 36.706 117.147 35.9926C116.53 35.2793 116.232 34.4188 116.232 33.3997C116.232 32.3807 116.541 31.5428 117.147 30.8295C117.764 30.1161 118.495 29.7651 119.364 29.7651C120.084 29.7651 120.815 30.1161 121.547 30.8295C122.278 31.5428 122.587 32.6071 122.461 34.0338H117.501H117.512ZM121.147 32.5618C121.033 32.1429 120.815 31.8259 120.473 31.5881C120.13 31.3503 119.764 31.2371 119.375 31.2371C118.952 31.2371 118.587 31.3616 118.278 31.6221C117.97 31.8825 117.741 32.1882 117.592 32.5618H121.147Z" fill="#777777"/>
<path d="M127.944 35.863C127.612 36.2706 127.247 36.5763 126.824 36.7688C126.401 36.9613 126.012 37.0519 125.635 37.0292C124.926 37.0179 124.264 36.6556 123.646 35.9762C123.029 35.2855 122.721 34.425 122.721 33.3947C122.721 32.3643 123.029 31.5038 123.646 30.8131C124.264 30.1224 124.938 29.7827 125.658 29.7827C126.012 29.7827 126.389 29.862 126.789 30.0092C127.189 30.1564 127.578 30.4847 127.944 30.9942V29.9978H129.418V36.8141H127.944V35.863ZM124.744 35.0138C125.109 35.4441 125.555 35.6479 126.069 35.6479C126.584 35.6479 127.029 35.4327 127.395 35.0138C127.761 34.5835 127.944 34.0627 127.944 33.4399C127.944 32.8172 127.761 32.319 127.395 31.8887C127.029 31.4585 126.584 31.2547 126.069 31.2547C125.555 31.2547 125.121 31.4698 124.744 31.8887C124.378 32.319 124.195 32.8285 124.195 33.4399C124.195 34.0514 124.378 34.5835 124.744 35.0138Z" fill="#777777"/>
<path d="M137.867 27.3057H141.284C142.096 27.3057 142.713 27.5548 143.124 28.0643C143.547 28.5738 143.753 29.1399 143.753 29.7514C143.753 30.2722 143.479 30.8836 142.919 31.5856C143.764 32.265 144.187 33.0236 144.187 33.8615C144.187 34.9711 143.856 35.7411 143.204 36.1713C142.553 36.6016 141.982 36.8167 141.49 36.8167H137.867V27.3057ZM139.33 28.7776V30.9629H141.296C141.616 30.9629 141.867 30.8497 142.039 30.6232C142.21 30.3968 142.29 30.1477 142.29 29.8759C142.29 29.6042 142.21 29.3551 142.039 29.1286C141.867 28.9022 141.616 28.7889 141.296 28.7889H139.33V28.7776ZM139.33 32.4348V35.3335H141.456C141.764 35.3335 142.062 35.1976 142.324 34.9372C142.587 34.6767 142.724 34.3257 142.724 33.8842C142.724 33.4426 142.587 33.0916 142.324 32.8311C142.062 32.5707 141.764 32.4348 141.456 32.4348H139.33Z" fill="#777777"/>
<path d="M144.668 28.7776V27.3057H146.142V28.7776H144.668ZM144.668 36.8054V30.2269H146.142V36.8054H144.668Z" fill="#777777"/>
<path d="M147.728 30.8212C148.345 30.1078 149.076 29.7568 149.934 29.7568C150.791 29.7568 151.545 30.1078 152.151 30.8212C152.768 31.5345 153.065 32.3837 153.065 33.3914C153.065 34.3991 152.756 35.271 152.151 35.9843C151.534 36.6977 150.802 37.0487 149.934 37.0487C149.065 37.0487 148.345 36.6977 147.728 35.9843C147.111 35.271 146.813 34.4105 146.813 33.3914C146.813 32.3724 147.122 31.5345 147.728 30.8212ZM148.619 31.8629C148.242 32.2818 148.059 32.7913 148.059 33.3914C148.059 33.9915 148.242 34.5011 148.619 34.9313C148.996 35.3616 149.431 35.5767 149.934 35.5767C150.436 35.5767 150.894 35.3616 151.271 34.9313C151.648 34.5011 151.831 33.9915 151.831 33.3914C151.831 32.7913 151.648 32.2931 151.271 31.8629C150.894 31.4439 150.448 31.2288 149.934 31.2288C149.419 31.2288 148.996 31.4439 148.619 31.8629Z" fill="#777777"/>
<path d="M153.662 28.7776V27.3057H155.136V28.7776H153.662ZM153.662 36.8054V30.2269H155.136V36.8054H153.662Z" fill="#777777"/>
<path d="M161.294 30.6287C161.785 31.2175 162.025 31.8402 162.025 32.5082V36.8109H160.551V33.0744C160.551 32.6441 160.391 32.2365 160.082 31.8289C159.762 31.4213 159.385 31.2288 158.939 31.2288C158.494 31.2288 158.116 31.4326 157.796 31.8289C157.476 32.2365 157.328 32.6441 157.328 33.0744V36.8109H155.854V29.9946H157.328V30.9004C158.071 30.1418 158.802 29.7568 159.511 29.7568C160.219 29.7568 160.791 30.0512 161.282 30.64L161.294 30.6287Z" fill="#777777"/>
<path d="M163.661 31.2049H162.495V29.9934H163.661C163.752 29.1894 163.992 28.5554 164.369 28.1138C164.804 27.6269 165.478 27.3665 166.392 27.3325V28.6573C165.969 28.6573 165.649 28.7818 165.432 29.0196C165.261 29.2234 165.158 29.5518 165.124 29.9934H166.392V31.2049H165.124V36.8096H163.649V31.2049H163.661Z" fill="#777777"/>
<path d="M167.694 30.8212C168.299 30.1078 169.042 29.7568 169.899 29.7568C170.757 29.7568 171.511 30.1078 172.128 30.8212C172.745 31.5345 173.042 32.3837 173.042 33.3914C173.042 34.3991 172.734 35.271 172.128 35.9843C171.511 36.6977 170.779 37.0487 169.899 37.0487C169.019 37.0487 168.311 36.6977 167.694 35.9843C167.076 35.271 166.779 34.4105 166.779 33.3914C166.779 32.3724 167.088 31.5345 167.694 30.8212ZM168.585 31.8629C168.208 32.2818 168.025 32.7913 168.025 33.3914C168.025 33.9915 168.208 34.5011 168.585 34.9313C168.962 35.3616 169.397 35.5767 169.899 35.5767C170.402 35.5767 170.859 35.3616 171.237 34.9313C171.614 34.5011 171.797 33.9915 171.797 33.3914C171.797 32.7913 171.614 32.2931 171.237 31.8629C170.859 31.4439 170.414 31.2288 169.899 31.2288C169.385 31.2288 168.962 31.4439 168.585 31.8629Z" fill="#777777"/>
<path d="M175.328 30.5867C175.454 30.3942 175.66 30.2131 175.934 30.0432C176.288 29.8168 176.734 29.7602 177.283 29.8507V31.1076C176.7 31.0623 176.265 31.1302 175.98 31.3227C175.637 31.5491 175.408 31.8322 175.282 32.1832C175.157 32.5342 175.1 32.772 175.1 32.8965V36.8142H173.637V29.9979H175.1V30.9717C175.122 30.9151 175.202 30.7792 175.34 30.598L175.328 30.5867Z" fill="#777777"/>
<path d="M185.983 30.4815C186.406 30.9684 186.612 31.5345 186.612 32.1799V36.8109H185.149V32.4743C185.149 32.1346 185.035 31.8402 184.806 31.5911C184.577 31.3533 184.315 31.2288 184.017 31.2288C183.629 31.2288 183.343 31.376 183.16 31.693C182.977 31.9987 182.875 32.2591 182.875 32.4743V36.8109H181.572V32.4743C181.572 32.2139 181.469 31.9308 181.252 31.659C181.046 31.376 180.749 31.2401 180.36 31.2401C179.972 31.2401 179.709 31.376 179.492 31.659C179.286 31.9421 179.172 32.2139 179.172 32.4743V36.8109H177.697V29.9946H179.172V30.7306C179.789 30.0852 180.383 29.7568 180.966 29.7568C181.48 29.7568 182.04 30.0965 182.635 30.7759C183.217 30.0965 183.812 29.7568 184.406 29.7568C185 29.7568 185.537 29.9946 185.96 30.4815H185.983Z" fill="#777777"/>
<path d="M192.439 35.863C192.107 36.2706 191.742 36.5763 191.319 36.7688C190.896 36.9613 190.507 37.0519 190.13 37.0292C189.422 37.0179 188.759 36.6556 188.142 35.9762C187.524 35.2855 187.216 34.425 187.216 33.3947C187.216 32.3643 187.524 31.5038 188.142 30.8131C188.759 30.1224 189.433 29.7827 190.153 29.7827C190.507 29.7827 190.884 29.862 191.284 30.0092C191.684 30.1564 192.073 30.4847 192.439 30.9942V29.9978H193.913V36.8141H192.439V35.863ZM189.239 35.0138C189.604 35.4441 190.05 35.6479 190.564 35.6479C191.079 35.6479 191.524 35.4327 191.89 35.0138C192.256 34.5835 192.439 34.0627 192.439 33.4399C192.439 32.8172 192.256 32.319 191.89 31.8887C191.524 31.4585 191.079 31.2547 190.564 31.2547C190.05 31.2547 189.604 31.4698 189.239 31.8887C188.873 32.319 188.69 32.8285 188.69 33.4399C188.69 34.0514 188.873 34.5835 189.239 35.0138Z" fill="#777777"/>
<path d="M197.021 31.2012V36.8059H195.558V31.2012H194.369V29.9896H195.558V27.3062H197.021V29.9896H198.209V31.2012H197.021Z" fill="#777777"/>
<path d="M198.716 28.7776V27.3057H200.19V28.7776H198.716ZM198.716 36.8054V30.2269H200.19V36.8054H198.716Z" fill="#777777"/>
<path d="M201.776 30.8212C202.393 30.1078 203.124 29.7568 203.981 29.7568C204.839 29.7568 205.593 30.1078 206.21 30.8212C206.827 31.5345 207.124 32.3837 207.124 33.3914C207.124 34.3991 206.816 35.271 206.21 35.9843C205.593 36.6977 204.861 37.0487 203.981 37.0487C203.101 37.0487 202.393 36.6977 201.776 35.9843C201.158 35.271 200.861 34.4105 200.861 33.3914C200.861 32.3724 201.17 31.5345 201.776 30.8212ZM202.667 31.8629C202.29 32.2818 202.107 32.7913 202.107 33.3914C202.107 33.9915 202.29 34.5011 202.667 34.9313C203.044 35.3616 203.479 35.5767 203.981 35.5767C204.484 35.5767 204.941 35.3616 205.319 34.9313C205.696 34.5011 205.879 33.9915 205.879 33.3914C205.879 32.7913 205.696 32.2931 205.319 31.8629C204.941 31.4439 204.496 31.2288 203.981 31.2288C203.467 31.2288 203.044 31.4439 202.667 31.8629Z" fill="#777777"/>
<path d="M213.101 30.6287C213.593 31.2175 213.833 31.8402 213.833 32.5082V36.8109H212.358V33.0744C212.358 32.6441 212.198 32.2365 211.89 31.8289C211.57 31.4213 211.193 31.2288 210.747 31.2288C210.301 31.2288 209.924 31.4326 209.604 31.8289C209.284 32.2365 209.135 32.6441 209.135 33.0744V36.8109H207.661V29.9946H209.135V30.9004C209.878 30.1418 210.61 29.7568 211.318 29.7568C212.027 29.7568 212.598 30.0512 213.09 30.64L213.101 30.6287Z" fill="#777777"/>
<path d="M228.989 30.4903C228.852 30.0941 228.555 29.6751 228.098 29.2222C227.641 28.7693 227.058 28.5428 226.338 28.5428C225.572 28.5428 224.898 28.8712 224.304 29.5392C223.709 30.2073 223.412 31.0452 223.412 32.0642C223.412 33.0832 223.709 33.8985 224.315 34.5665C224.909 35.2346 225.584 35.5742 226.338 35.5742C227.092 35.5742 227.629 35.3591 228.064 34.9288C228.487 34.4986 228.795 34.0796 228.989 33.6494H230.441C230.189 34.6571 229.675 35.4837 228.921 36.1064C228.166 36.7292 227.309 37.0462 226.338 37.0462C225.172 37.0462 224.144 36.5593 223.264 35.5856C222.384 34.6118 221.949 33.4342 221.949 32.0529C221.949 30.6715 222.384 29.494 223.264 28.5202C224.144 27.5464 225.161 27.0596 226.338 27.0596C227.298 27.0596 228.166 27.3766 228.921 27.9994C229.675 28.6221 230.178 29.4487 230.441 30.479H228.989V30.4903Z" fill="#777777"/>
<path d="M232.289 34.0338C232.38 34.4527 232.597 34.8151 232.906 35.1208C233.226 35.4265 233.637 35.585 234.14 35.585C234.529 35.585 234.871 35.4718 235.134 35.2566C235.409 35.0302 235.591 34.8264 235.683 34.6339H237.054C236.826 35.3585 236.46 35.9473 235.969 36.3889C235.466 36.8305 234.86 37.057 234.14 37.057C233.271 37.057 232.529 36.706 231.911 35.9926C231.294 35.2793 230.997 34.4188 230.997 33.3997C230.997 32.3807 231.306 31.5428 231.911 30.8295C232.529 30.1161 233.26 29.7651 234.14 29.7651C234.86 29.7651 235.591 30.1161 236.323 30.8295C237.054 31.5428 237.363 32.6071 237.237 34.0338H232.277H232.289ZM235.923 32.5618C235.82 32.1429 235.591 31.8259 235.249 31.5881C234.906 31.3503 234.54 31.2371 234.151 31.2371C233.729 31.2371 233.363 31.3616 233.054 31.6221C232.746 31.8825 232.517 32.1882 232.369 32.5618H235.911H235.923Z" fill="#777777"/>
<path d="M243.139 30.6287C243.63 31.2175 243.87 31.8402 243.87 32.5082V36.8109H242.407V33.0744C242.407 32.6441 242.247 32.2365 241.939 31.8289C241.619 31.4213 241.241 31.2288 240.796 31.2288C240.35 31.2288 239.973 31.4326 239.653 31.8289C239.333 32.2365 239.184 32.6441 239.184 33.0744V36.8109H237.71V29.9946H239.184V30.9004C239.927 30.1418 240.659 29.7568 241.367 29.7568C242.076 29.7568 242.647 30.0512 243.139 30.64V30.6287Z" fill="#777777"/>
<path d="M247.022 31.2007V36.8054H245.559V31.2007H244.37V29.9891H245.559V27.3057H247.022V29.9891H248.21V31.2007H247.022Z" fill="#777777"/>
<path d="M249.913 34.0338C250.005 34.4527 250.21 34.8151 250.53 35.1208C250.85 35.4265 251.262 35.585 251.765 35.585C252.153 35.585 252.485 35.4718 252.759 35.2566C253.033 35.0302 253.216 34.8264 253.308 34.6339H254.668C254.439 35.3585 254.073 35.9473 253.582 36.3889C253.09 36.8305 252.473 37.057 251.753 37.057C250.885 37.057 250.142 36.706 249.525 35.9926C248.908 35.2793 248.61 34.4188 248.61 33.3997C248.61 32.3807 248.919 31.5428 249.525 30.8295C250.142 30.1161 250.873 29.7651 251.753 29.7651C252.473 29.7651 253.205 30.1161 253.936 30.8295C254.668 31.5428 254.976 32.6071 254.85 34.0338H249.89H249.913ZM253.548 32.5618C253.433 32.1429 253.216 31.8259 252.873 31.5881C252.53 31.3503 252.165 31.2371 251.776 31.2371C251.353 31.2371 250.988 31.3616 250.679 31.6221C250.37 31.8825 250.142 32.1882 249.993 32.5618H253.548Z" fill="#777777"/>
<path d="M257.058 30.5867C257.183 30.3942 257.389 30.2131 257.663 30.0432C258.018 29.8168 258.463 29.7602 259.012 29.8507V31.1076C258.429 31.0623 257.995 31.1302 257.709 31.3227C257.366 31.5491 257.138 31.8322 257.012 32.1832C256.886 32.5342 256.829 32.772 256.829 32.8965V36.8142H255.366V29.9979H256.829V30.9717C256.852 30.9151 256.932 30.7792 257.069 30.598L257.058 30.5867Z" fill="#777777"/>
</g>
<defs>
<clipPath id="clip0_2361_1725">
<rect width="259" height="44" fill="white"/>
</clipPath>
</defs>
</svg>
