<svg width="160" height="46" viewBox="0 0 160 46" fill="none" xmlns="http://www.w3.org/2000/svg">
<g clip-path="url(#clip0_2361_1679)">
<path d="M45.3866 23C45.3866 35.7005 35.2244 46 22.6933 46C10.1622 46 0 35.7005 0 23C0 10.2995 10.1622 0 22.6933 0C35.2244 0 45.3866 10.2995 45.3866 23Z" fill="white"/>
<path d="M33.3383 21.3942C29.7321 18.9092 25.115 19.9185 22.6857 23.6575C20.6639 26.7772 17.6084 27.1672 16.4315 27.1672C12.5688 27.1672 9.93583 24.4145 9.15122 21.5701C9.15122 21.5701 9.13613 21.5166 9.12859 21.486C9.12105 21.4554 9.1135 21.4248 9.10596 21.3942C8.79664 20.2014 8.7212 19.6432 8.7212 18.3816C8.7212 11.5841 15.6092 4.0066 25.5224 4.0066C35.4356 4.0066 41.4937 11.844 42.995 16.2024C42.9649 16.1183 42.9422 16.0495 42.9196 15.973C40.0301 7.44742 32.0633 1.32275 22.6706 1.32275C10.8713 1.32275 1.29004 11.0259 1.29004 23C1.29004 33.7047 8.90226 42.8573 19.4719 42.8573C27.8913 42.8573 33.5571 38.0708 36.1523 31.472C37.5782 27.863 36.5673 23.6193 33.3383 21.3942Z" fill="#003763"/>
<path d="M43.1238 16.6154C41.8714 12.364 36.017 3.99902 25.5229 3.99902C15.6096 3.99902 8.72168 11.5765 8.72168 18.374C8.72168 19.6357 8.79712 20.2015 9.10644 21.3867C8.97819 20.8667 8.91029 20.3468 8.91029 19.8421C8.91029 12.754 15.9039 7.85275 23.1012 7.85275C32.8409 7.85275 40.7398 15.8507 40.7398 25.7221C40.7398 33.4601 36.349 40.1583 29.9665 43.3773C38.1973 40.3647 44.0668 32.3743 44.0668 22.9924C44.0668 20.7749 43.7726 18.8175 43.1313 16.6154" fill="#E4022D"/>
<path d="M60.0227 13.8169V12.0889H62.7085V13.8169H66.4429V15.9426H55.8809V13.8169H60.0302H60.0227ZM65.9903 20.7903C65.9903 21.3867 65.862 21.9449 65.6206 22.4725C65.3716 22.9925 65.0397 23.4512 64.6172 23.8412C64.1947 24.2388 63.7119 24.5447 63.1611 24.774C62.6104 25.0034 62.0144 25.1181 61.3807 25.1181C60.7469 25.1181 60.1509 25.0034 59.6002 24.774C59.0495 24.5447 58.5591 24.2312 58.1442 23.8412C57.7217 23.4512 57.3897 22.9925 57.1408 22.4725C56.8918 21.9526 56.7711 21.3944 56.7711 20.7903C56.7711 20.1863 56.8918 19.6281 57.1408 19.1005C57.3897 18.5729 57.7217 18.1141 58.1442 17.7165C58.5666 17.3189 59.0495 17.0131 59.6002 16.7837C60.1509 16.5543 60.7469 16.4396 61.3807 16.4396C62.0144 16.4396 62.6104 16.5543 63.1611 16.7837C63.7119 17.0131 64.1947 17.3266 64.6172 17.7165C65.0397 18.1065 65.3716 18.5729 65.6206 19.1005C65.8695 19.6281 65.9903 20.1939 65.9903 20.7903ZM63.6364 20.7597C63.6364 20.148 63.4176 19.6128 62.9725 19.1617C62.5274 18.7105 61.9993 18.4888 61.3731 18.4888C60.7469 18.4888 60.2188 18.7105 59.7888 19.1617C59.3512 19.6128 59.1325 20.1404 59.1325 20.7597C59.1325 21.3791 59.3512 21.899 59.7888 22.3425C60.2264 22.786 60.7545 23.0077 61.3731 23.0077C61.9918 23.0077 62.5274 22.786 62.9725 22.3425C63.4176 21.899 63.6364 21.3714 63.6364 20.7597ZM72.5463 29.1095C72.5463 29.7365 72.4105 30.3329 72.1464 30.8911C71.8824 31.4492 71.5353 31.9462 71.0978 32.3668C70.6451 32.795 70.1245 33.1314 69.5361 33.3837C68.9476 33.6361 68.3139 33.7661 67.65 33.7661C66.9861 33.7661 66.3448 33.6361 65.7488 33.3837C65.1528 33.1314 64.6247 32.795 64.1721 32.3668C63.7345 31.9386 63.3875 31.4492 63.1234 30.8911C62.8594 30.3329 62.7236 29.7365 62.7236 29.1095C62.7236 28.4825 62.8518 27.8784 63.1234 27.3126C63.3875 26.7468 63.7345 26.2498 64.1721 25.8216C64.6247 25.3934 65.1453 25.0569 65.7488 24.8046C66.3448 24.5523 66.9786 24.4223 67.65 24.4223C68.3214 24.4223 68.9476 24.5446 69.5361 24.8046C70.1245 25.0569 70.6451 25.3934 71.0978 25.8216C71.5353 26.2498 71.8824 26.7468 72.1464 27.3126C72.4105 27.8784 72.5463 28.4825 72.5463 29.1095ZM70.0717 29.0865C70.0717 28.4213 69.8303 27.8478 69.3475 27.3585C68.8646 26.8691 68.2913 26.6244 67.6198 26.6244C66.9484 26.6244 66.3826 26.8691 65.9073 27.3585C65.432 27.8478 65.1981 28.4213 65.1981 29.0865C65.1981 29.7518 65.432 30.3176 65.9073 30.7993C66.3826 31.281 66.9559 31.5181 67.6198 31.5181C68.2837 31.5181 68.8646 31.281 69.3475 30.7993C69.8303 30.3176 70.0717 29.7441 70.0717 29.0865ZM70.0265 23.7877H67.6953V12.54H70.0265V17.0054H72.1012V12.5171H74.5229V24.0782H72.1012V19.3299H70.0265V23.7953V23.7877Z" fill="#575756"/>
<path d="M77.4653 15.3003V13.0982H89.1288V15.3003H84.1646L89.34 21.7079L87.5671 23.176L83.4178 17.9307L79.291 23.5354L77.4502 22.0214L82.603 15.308H77.4728L77.4653 15.3003ZM93.6026 28.7272C93.6026 29.423 93.4592 30.0729 93.1801 30.677C92.901 31.2811 92.5237 31.8163 92.0635 32.2751C91.5807 32.7338 91.0149 33.0932 90.3736 33.3608C89.7324 33.6285 89.0458 33.7661 88.3366 33.7661C87.6275 33.7661 86.941 33.6285 86.2846 33.3608C85.6282 33.0932 85.0624 32.7262 84.5796 32.2751C84.1118 31.8163 83.7422 31.2887 83.463 30.677C83.1839 30.0729 83.0405 29.423 83.0405 28.7272C83.0405 28.0314 83.1839 27.3815 83.463 26.7621C83.7422 26.1504 84.1194 25.6152 84.5796 25.1564C85.0624 24.6976 85.6282 24.3382 86.2846 24.0706C86.941 23.803 87.6199 23.6654 88.3366 23.6654C89.0534 23.6654 89.7324 23.7953 90.3736 24.0706C91.0149 24.3459 91.5807 24.6976 92.0635 25.1564C92.5313 25.6152 92.901 26.1504 93.1801 26.7621C93.4592 27.3738 93.6026 28.0314 93.6026 28.7272ZM91.1281 28.7043C91.1281 27.932 90.8489 27.2668 90.2906 26.7086C89.7324 26.1504 89.0685 25.8675 88.3065 25.8675C87.5445 25.8675 86.8881 26.1504 86.3374 26.7086C85.7867 27.2668 85.5075 27.932 85.5075 28.7043C85.5075 29.4765 85.7867 30.1418 86.3374 30.6923C86.8881 31.2428 87.5445 31.5181 88.3065 31.5181C89.0685 31.5181 89.7324 31.2428 90.2906 30.6923C90.8489 30.1418 91.1281 29.4765 91.1281 28.7043ZM92.8104 23.436V18.9705H89.0307V16.7684H92.8104V12.5171H95.3302V23.436H92.8104Z" fill="#575756"/>
<path d="M109.838 18.2824C109.838 19.0547 109.687 19.7811 109.385 20.4539C109.083 21.1344 108.668 21.7309 108.14 22.2508C107.612 22.7555 107.001 23.1607 106.307 23.4589C105.613 23.7571 104.874 23.91 104.082 23.91C103.289 23.91 102.542 23.7571 101.856 23.4589C101.162 23.1607 100.551 22.7555 100.023 22.2508C99.4946 21.7309 99.0796 21.1344 98.7778 20.4539C98.4761 19.7734 98.3252 19.047 98.3252 18.2824C98.3252 17.5178 98.4761 16.7837 98.7778 16.1108C99.0796 15.4303 99.4946 14.8339 100.023 14.314C100.551 13.8093 101.162 13.4041 101.856 13.1059C102.55 12.8076 103.289 12.6547 104.082 12.6547C104.874 12.6547 105.613 12.8076 106.307 13.1059C107.001 13.4041 107.612 13.8093 108.14 14.314C108.668 14.8339 109.083 15.4303 109.385 16.1108C109.687 16.7914 109.838 17.5101 109.838 18.2824ZM102.112 25.8216V30.4323H115.775V32.7033H99.5926V25.8216H102.112ZM107.409 18.3053C107.409 17.8465 107.318 17.4107 107.137 17.0055C106.956 16.5926 106.722 16.2332 106.428 15.9197C106.118 15.6215 105.764 15.3844 105.364 15.2009C104.964 15.0174 104.542 14.9257 104.097 14.9257C103.651 14.9257 103.221 15.0174 102.814 15.2009C102.407 15.3844 102.052 15.6215 101.743 15.9197C101.449 16.2332 101.207 16.6002 101.034 17.0055C100.853 17.4184 100.762 17.8465 100.762 18.3053C100.762 18.7641 100.853 19.1923 101.034 19.5899C101.215 19.9951 101.449 20.3545 101.743 20.668C102.052 20.9662 102.414 21.2109 102.814 21.3868C103.221 21.5703 103.644 21.662 104.097 21.662C104.549 21.662 104.972 21.5703 105.364 21.3868C105.756 21.2033 106.111 20.9662 106.428 20.668C106.722 20.3545 106.963 19.9951 107.137 19.5899C107.318 19.1846 107.409 18.7565 107.409 18.3053ZM115.27 25.7069H112.75V12.5171H115.27V17.0055H118.182V19.5364H115.27V25.7069Z" fill="#575756"/>
<path d="M120 15.3002V13.098H131.663V15.3002H126.722L131.875 23.0076L129.958 24.3075L125.945 18.114L121.931 24.4757L119.97 23.1529L125.1 15.3078H119.992L120 15.3002ZM121.403 32.6954V25.8138H123.923V30.4245H138.053V32.6954H121.403ZM135.345 25.7067V19.628H131.565V17.357H135.345V12.5093H137.865V25.6991H135.345V25.7067Z" fill="#575756"/>
<path d="M141.343 25.5385H160V27.8095H151.927V33.1007H149.385V27.8095H141.343V25.5385ZM145.326 15.4684H156.009V12.8687H158.506V22.7706H142.837V12.8687H145.334V15.4684H145.326ZM156.009 17.6935H145.326V20.5302H156.009V17.6935Z" fill="#575756"/>
</g>
<defs>
<clipPath id="clip0_2361_1679">
<rect width="160" height="46" fill="white"/>
</clipPath>
</defs>
</svg>
