<svg width="186" height="26" viewBox="0 0 186 26" fill="none" xmlns="http://www.w3.org/2000/svg">
<g clip-path="url(#clip0_2361_1802)">
<path d="M31.7708 0.540019C30.9971 0.309579 30.1931 0.149027 29.3645 0.065918L20.3046 7.49476L1.95605 19.8535C2.25496 20.3351 2.58413 20.7941 2.94168 21.2286L20.8003 7.63076L31.7708 0.540019Z" fill="#B2B2B2"/>
<path d="M36.171 2.83891C35.6375 2.41392 35.0719 2.03049 34.4759 1.69238L21.1633 12.1396L4.78223 23.0666C5.34409 23.5256 5.94568 23.9392 6.57755 24.2981L20.6639 12.9934L36.171 2.83891Z" fill="#B2B2B2"/>
<path d="M37.8119 4.39729C37.3976 3.92885 36.9511 3.49064 36.4744 3.08643L21.2529 14.752L6.82227 24.4361C7.44278 24.7723 8.09545 25.0594 8.77271 25.2917L21.3891 15.2941L37.8119 4.39918V4.39729Z" fill="#B2B2B2"/>
<path d="M28.7625 0.0188885C28.5261 0.00566655 28.2896 0 28.0493 0C27.1091 0 26.1954 0.101998 25.3119 0.288994L20.484 4.69945L0.951172 17.8874C1.18008 18.4522 1.44872 18.9961 1.7514 19.5175L20.3497 5.24155L28.7625 0.0188885Z" fill="#B2B2B2"/>
<path d="M13.0194 0C5.82864 0 0 5.81954 0 13.0009C0 14.5328 0.266744 16.0023 0.752937 17.368L20.2158 2.16651C18.1537 0.798983 15.6811 0 13.0194 0Z" fill="#B2B2B2"/>
<path d="M34.1831 1.52982C33.5758 1.20494 32.9383 0.927281 32.2761 0.69873L21.7048 9.11733L3.16699 21.4987C3.61913 22.0219 4.11478 22.5093 4.64638 22.9531L20.3956 10.5604L34.1831 1.52982Z" fill="#B2B2B2"/>
<path d="M20.668 23.707C22.766 25.152 25.3086 26.0001 28.0498 26.0001C35.2405 26.0001 41.071 20.1805 41.071 13.001C41.071 11.3898 40.7759 9.84662 40.2405 8.42432L20.668 23.7089V23.707Z" fill="#B2B2B2"/>
<path d="M40.106 8.08446C39.8582 7.47625 39.565 6.89071 39.232 6.3335L21.7953 19.801L12.166 25.97C12.4498 25.9889 12.7354 25.9983 13.0211 25.9983C13.8251 25.9983 14.6102 25.9227 15.3726 25.7849L20.4389 21.2875L40.106 8.08446Z" fill="#B2B2B2"/>
<path d="M39.105 6.13112C38.7796 5.6098 38.4183 5.11492 38.0248 4.64648L22.2907 16.6917L9.05566 25.386C9.85779 25.6429 10.6959 25.8224 11.5585 25.9187L21.027 18.1782L39.105 6.13112Z" fill="#B2B2B2"/>
<path d="M33.4601 9.98291H32.4707V13.5283H33.4601V9.98291Z" fill="#F39200"/>
<path d="M37.9113 8.09766H34.3604V9.08552H37.9113V8.09766Z" fill="#F39200"/>
<path d="M31.506 8.09766H27.9551V9.08552H31.506V8.09766Z" fill="#F39200"/>
<path d="M33.4601 3.63623H32.4707V7.1816H33.4601V3.63623Z" fill="#F39200"/>
<path d="M8.09678 19.2947H5.96094V9.08545H8.09678V13.2371L11.9996 9.08545H14.7616L10.5883 13.2655L15.0037 19.2947H12.255L9.09187 14.8162L8.09489 15.84V19.2947H8.09678Z" fill="#E30413"/>
<path d="M16.6836 15.5699C16.6836 14.3761 17.1111 13.2504 18.3786 13.2504C19.7445 13.2504 20.0869 14.4724 20.0869 15.6832C20.0869 16.8071 19.5875 17.8591 18.3219 17.8591C17.0563 17.8591 16.6836 16.4652 16.6836 15.5718V15.5699ZM21.9977 9.08545H20.0037V12.712H19.9753C19.6613 12.2285 19.0635 11.5315 17.7808 11.5315C16.116 11.5315 14.6348 12.8121 14.6348 15.4282C14.6348 17.504 15.575 19.4949 17.8262 19.4949C18.6511 19.4949 19.5345 19.1965 20.0169 18.3446H20.0453V19.2966H21.9977V9.08734V9.08545Z" fill="#E30413"/>
<path d="M30.6285 19.2948H28.6345V14.7012C28.6345 14.1458 28.6061 13.2071 27.3386 13.2071C26.4552 13.2071 25.7722 13.8058 25.7722 14.958V19.2948H23.7764V11.73H25.6852V12.8388H25.7136C25.9841 12.3835 26.5554 11.5298 27.9932 11.5298C29.431 11.5298 30.6285 12.3968 30.6285 14.0608V19.293V19.2948Z" fill="#E30413"/>
<path d="M96.124 25.4601V0.971191H100.697V11.8566H100.772C101.485 9.92622 102.662 7.76727 103.644 5.97664L106.315 0.971191H111.489L105.439 11.5034L111.794 25.462H106.62L102.295 15.81L100.698 18.4506V25.462H96.1259L96.124 25.4601Z" fill="#4A4A49"/>
<path d="M155.953 25.4601H154.492V0.971191H155.953V25.4601Z" fill="#4A4A49"/>
<path d="M186 25.4601H184.541V0.971191H186V25.4601Z" fill="#4A4A49"/>
<path d="M118.807 21.8675V4.57323H121.832C124.565 4.57323 125.15 6.86062 125.15 12.6424C125.15 19.7199 124.891 21.8675 120.793 21.8675H118.807ZM122.71 25.4601C123.854 25.4601 125.097 25.3978 126.09 24.8141C129.863 22.6249 129.863 17.0358 129.863 12.2136C129.863 8.1677 129.569 5.4591 128.533 3.75535C127.129 1.46607 124.891 0.971191 123.788 0.971191H114.234V25.4601H122.708H122.71Z" fill="#4A4A49"/>
<path d="M144.431 0.971191H149.003V25.4601H144.227L140.674 16.7431C139.463 13.8418 138.479 10.8631 137.399 7.01362H137.333C137.507 9.04035 137.69 11.5223 137.829 14.0042C137.959 16.4541 138.056 18.902 138.056 20.8645V25.462H133.474V0.971191H138.218L141.782 9.89411C142.952 12.7331 143.945 15.6343 145.046 19.6273H145.112C144.961 17.4042 144.777 15.0186 144.658 12.6669C144.526 10.3134 144.431 7.97315 144.431 5.78398V0.971191Z" fill="#4A4A49"/>
<path d="M54.4798 7.61602C54.9868 8.21856 55.2687 8.96465 55.2687 9.85997C55.2687 10.7553 54.9868 11.5127 54.4798 12.1247C53.9709 12.7197 53.3996 13.0238 52.7828 13.0238C52.1661 13.0238 51.5948 12.7216 51.0745 12.1247C50.5581 11.5127 50.3083 10.7666 50.3083 9.85997C50.3083 8.95332 50.5562 8.24312 51.0745 7.62735C51.5948 7.00214 52.1547 6.70937 52.7828 6.70937C53.4109 6.70937 53.9709 7.00214 54.4798 7.61602ZM65.9895 22.3717H51.9523V17.6911H47.5539V25.9435H65.9895V22.3717ZM61.3186 0.644279V18.5241H65.719V9.72964H68.2029V6.14649H65.719V0.644279H61.3186ZM46.591 7.14192C46.1275 7.9409 45.9023 8.83621 45.9023 9.85997C45.9023 11.7375 46.5626 13.3222 47.8906 14.6388C49.23 15.9458 50.8645 16.605 52.7847 16.605C54.7049 16.605 56.33 15.9458 57.6712 14.6388C58.9879 13.3222 59.6709 11.7375 59.6709 9.85997C59.6709 8.83432 59.423 7.91823 58.9577 7.10792C58.4715 6.29005 57.8756 5.60817 57.1529 5.05852H59.389V1.47537H54.9811V0.105957H50.5827V1.47537H46.1729V5.05852H48.3787C47.6693 5.65162 47.0734 6.35238 46.5947 7.14003L46.591 7.14192Z" fill="#4A4A49"/>
<path d="M90.8418 18.5127H86.432V9.45002H83.407V5.86876H86.432V0.634766H90.8418V18.5127ZM91.1085 22.3546H76.7933V17.6816H72.3835V25.9359H91.1085V22.3527V22.3546ZM75.7036 5.75921C75.7036 7.08896 75.4009 8.29782 74.8277 9.34425C74.2223 10.4001 73.4429 11.2425 72.4724 11.8583C71.6722 12.3777 71.0138 12.7328 70.5049 12.9595C69.9885 13.1881 69.7047 13.2938 69.6631 13.3165L71.5416 16.5842C71.5852 16.5842 71.8235 16.52 72.253 16.3802C72.6994 16.2499 73.4543 15.874 74.5326 15.2696C75.5371 14.6954 76.3411 14.1023 76.956 13.4884C77.5595 12.8839 77.8735 12.5591 77.8962 12.5175C77.9378 12.561 78.2632 12.8839 78.8667 13.4884C79.4948 14.1023 80.3045 14.6954 81.3109 15.2469C82.3911 15.8173 83.1478 16.1743 83.5905 16.3462C84.0332 16.5086 84.2716 16.5842 84.2943 16.5842L86.0991 13.2938C86.0877 13.273 85.8266 13.1541 85.331 12.9368C84.8467 12.7102 84.1978 12.3664 83.407 11.8583C82.3609 11.1991 81.5493 10.3491 80.9647 9.28947C80.3801 8.2336 80.1002 7.03418 80.1002 5.6761V4.77134H84.788V1.19764H71.0138V4.76945H75.7036V5.75921Z" fill="#4A4A49"/>
<path d="M180.531 14.6821V18.2539H172.536V25.9566H168.126V18.2539H160.15V14.6821H180.531ZM167.307 4.78831H160.975V1.22217H179.689V4.7902H173.141C173.423 5.45886 173.93 6.11806 174.677 6.81883C175.43 7.49692 176.535 8.19769 178.045 8.91167C178.592 9.14778 179.116 9.365 179.657 9.54821C180.196 9.73143 180.487 9.82776 180.529 9.85043L178.595 13.3448C178.576 13.3448 178.327 13.2692 177.871 13.1276C177.398 12.9991 176.618 12.6969 175.497 12.236C173.853 11.5428 172.589 10.7665 171.692 9.90332C170.807 9.04011 170.349 8.58868 170.321 8.52257C170.277 8.58868 169.823 9.04011 168.947 9.89198C168.083 10.7457 166.806 11.5428 165.162 12.287C164.106 12.7725 163.327 13.0539 162.854 13.1729C162.377 13.2806 162.106 13.3448 162.074 13.3448L160.148 9.85043C160.196 9.82776 160.476 9.73143 161.017 9.55955C161.565 9.38577 162.095 9.17044 162.636 8.91167C163.998 8.19769 165.02 7.51015 165.727 6.83016C166.429 6.15017 166.968 5.47208 167.303 4.7902L167.307 4.78831Z" fill="#4A4A49"/>
</g>
<defs>
<clipPath id="clip0_2361_1802">
<rect width="186" height="26" fill="white"/>
</clipPath>
</defs>
</svg>
