<svg width="181" height="38" viewBox="0 0 181 38" fill="none" xmlns="http://www.w3.org/2000/svg">
<g clip-path="url(#clip0_2361_1783)">
<mask id="mask0_2361_1783" style="mask-type:luminance" maskUnits="userSpaceOnUse" x="0" y="0" width="181" height="38">
<path d="M181 0H0V38H181V0Z" fill="white"/>
</mask>
<g mask="url(#mask0_2361_1783)">
<path d="M37.2288 30.1972H48.8466V31.4344C48.8466 32.6092 47.8162 33.5241 46.5599 33.5657H35.862C34.6004 33.5657 33.5753 32.6092 33.5753 31.4344V24.1566C33.5753 22.9818 34.6635 21.9629 35.9251 21.9629H54.2506V17.5547H33.4175C30.5999 17.5547 28.3184 19.7588 28.3184 22.4777V33.0458C28.3184 35.7698 30.274 37.6204 33.5438 37.9739H49.041C52.3319 37.6204 54.2612 35.7698 54.2612 33.0458V25.082H37.2288V30.1919V30.1972Z" fill="#0B318F"/>
<path d="M104.929 17.5859H88.8427C85.4625 17.929 83.4229 19.7849 83.4229 22.4932V33.0199C83.7646 36.1077 85.5256 37.6048 88.9742 37.9272H104.929C108.577 37.74 110.349 35.7282 110.349 33.0199V22.4932C110.349 19.7849 108.204 17.929 104.929 17.5859ZM104.829 31.2889C104.829 32.4273 103.762 33.3578 102.437 33.3578H91.3345C90.015 33.3578 88.9426 32.4325 88.9426 31.2889V24.479C88.9163 23.1586 90.036 22.145 91.4553 22.1605H102.437C103.756 22.1605 104.829 23.0859 104.829 24.2294V31.2889Z" fill="#0B318F"/>
<path d="M150.89 17.6118H145.412V37.9478H150.89V17.6118Z" fill="#0B318F"/>
<path d="M126.992 32.6095L117.992 17.8306H111.778L124.048 37.9845H129.926L142.201 17.8306H135.991L126.992 32.6095Z" fill="#0B318F"/>
<path d="M64.5029 17.8047H59.2617V37.6155H81.4038V33.301H64.5029V17.8047Z" fill="#0B318F"/>
<path d="M175.891 25.0509V25.0406H172.127L162.896 25.0353C162.896 25.0353 161.371 25.1705 161.366 24.1621C161.366 23.9593 161.382 23.1952 161.382 23.034C161.382 21.9007 162.743 22.0306 162.743 22.0306H180.464V17.5757H160.957C157.949 17.5757 155.646 18.7401 155.694 22.5401V25.3213C155.605 29.5839 159.09 30.0466 160.157 30.1298H174.403C174.403 30.1298 175.361 30.0621 175.361 31.2682C175.361 31.4501 175.361 32.1259 175.37 32.3599C175.397 33.6438 174.346 33.5243 174.346 33.5243H156.33V38.0001H175.891C178.913 37.8233 181.011 36.7993 181.011 33.0357V29.9842C181.011 26.3505 178.924 25.2277 175.901 25.0509H175.891Z" fill="#0B318F"/>
<path d="M9.07865 5.05282H2.94911V0H0V13.1362H2.94911V7.65199H9.07865V13.1362H12.0593V0H9.07865V5.05282Z" fill="#0B318F"/>
<path d="M20.1172 5.68701L16.6162 0H13.1992L18.5139 8.03666V13.1362H21.7206V8.255L27.0984 0H23.6499L20.1172 5.68701Z" fill="#0B318F"/>
<path d="M40.0787 11.0569H40.0944V10.9581C40.1365 10.5526 40.0944 10.2511 40.0944 10.2511V0.0571289H37.3503V9.61691C37.3503 10.5994 36.9719 10.6566 36.9719 10.6566H30.958V0.0571289H28.2139V13.1362H37.3556C39.4373 13.157 39.9684 11.9198 40.0892 11.0569H40.0787Z" fill="#0B318F"/>
<path d="M54.8663 2.13673H54.8505C54.7297 1.27381 54.1987 0.0365941 52.1169 0.0573876H42.9805V13.1365H45.7246V2.5422H51.7385C51.7385 2.5422 52.1169 2.59938 52.1169 3.58188V13.1416H54.861V2.94247C54.861 2.94247 54.9031 2.64097 54.861 2.2355V2.13673H54.8663Z" fill="#0B318F"/>
<path d="M66.8137 13.1365C68.8954 13.1572 69.4263 11.9201 69.5473 11.0571H69.5631V10.9583C69.6051 10.5529 69.5631 10.2514 69.5631 10.2514V2.94248C69.5631 2.94248 69.6051 2.64098 69.5631 2.2355V2.13673H69.5473C69.4263 1.27381 68.8954 0.0365941 66.8137 0.0573876H57.4932V13.1365H66.8137ZM66.8137 3.58188V9.61718C66.8137 10.5997 66.4352 10.6568 66.4352 10.6568H60.2373V2.5422H66.4352C66.4352 2.5422 66.8137 2.59938 66.8137 3.58188Z" fill="#0B318F"/>
<path d="M72.0548 2.94247V13.1365H74.7989V8.879H81.1545V13.1365H84.1195V0.0573865H74.7989C72.7172 0.0365931 72.1863 1.279 72.0706 2.13673H72.0548V2.2355C72.0128 2.64097 72.0548 2.94247 72.0548 2.94247ZM75.1775 2.5422H81.1545V6.53454H74.7989V3.58188C74.7989 2.59938 75.1775 2.5422 75.1775 2.5422Z" fill="#0B318F"/>
<path d="M90.0396 0.0571289H86.917V13.1362H90.0396V0.0571289Z" fill="#0B318F"/>
</g>
</g>
<defs>
<clipPath id="clip0_2361_1783">
<rect width="181" height="38" fill="white"/>
</clipPath>
</defs>
</svg>
