<svg width="245" height="44" viewBox="0 0 245 44" fill="none" xmlns="http://www.w3.org/2000/svg">
<g clip-path="url(#clip0_2361_1692)">
<path d="M44.588 4.80311C44.3063 4.82315 46.5394 -1.10763 39.3305 0.18806C20.2791 3.60761 6.82034 16.2439 3.98374 19.8638C1.14715 23.4771 -7.53699 38.5712 15.4106 36.8079C38.3582 35.0447 51.039 21.9276 52.796 19.5165C59.6762 10.0727 56.9805 3.81465 44.588 4.80979V4.80311ZM39.8938 1.71751C39.8938 1.71751 44.4002 0.68897 42.5494 5.13038C42.5494 5.13038 31.3237 6.19231 15.6721 15.4224C15.6721 15.4224 23.8198 4.15527 39.8871 1.71751H39.8938ZM33.9189 30.797C23.0352 34.8377 12.7014 34.083 10.8372 29.0939C8.97293 24.1115 16.2757 16.7982 27.1593 12.7509C38.043 8.70354 48.3768 9.46492 50.241 14.4473C52.112 19.4297 44.8026 26.7497 33.9189 30.7903V30.797Z" fill="#DD0041"/>
<path d="M56.5654 44.0002L61.387 16.7641H68.5019L67.9856 19.6693C69.1859 18.4471 70.2388 17.6123 71.1374 17.1781C72.3511 16.5971 73.6319 16.3032 74.9731 16.3032C77.6287 16.3032 79.4996 17.3117 80.5927 19.3287C81.6857 21.3524 81.9741 23.8503 81.4443 26.8223C80.8609 30.1083 79.627 32.6129 77.736 34.3427C75.8449 36.0725 73.699 36.9341 71.2782 36.9341C70.1046 36.9341 69.0719 36.7337 68.18 36.333C67.2882 35.9322 66.5237 35.3445 65.9067 34.5564L64.237 43.9869H56.5654V44.0002ZM67.2479 26.6621C66.973 28.2182 67.1004 29.3736 67.6235 30.1284C68.1465 30.8831 68.9177 31.2571 69.9303 31.2571C70.8155 31.2571 71.6202 30.8964 72.3444 30.1751C73.0754 29.4538 73.585 28.2249 73.8935 26.4884C74.1751 24.8922 74.0678 23.7234 73.5783 22.9687C73.0888 22.2206 72.3914 21.8466 71.4995 21.8466C70.5271 21.8466 69.6486 22.2273 68.8708 22.982C68.0862 23.7367 67.5497 24.959 67.2479 26.6554V26.6621Z" fill="#0058A6"/>
<path d="M26.7705 16.7505H34.0732L35.0791 28.9927L41.2418 16.7505H48.0148L49.9997 29.0929L55.3578 16.7505H62.6135L51.8908 36.3528H45.1782L43.2804 24.558L37.339 36.3528H30.5996L26.7705 16.7505Z" fill="#0058A6"/>
<path d="M130.751 18.6875H114.738V22.0135H127.787V25.6268H113.49V29.0063H121.303V30.8162H114.791V34.1957H127.841V38.1161H130.805V30.8229H124.267V29.0129H132.079V25.6335H130.751V18.6942V18.6875Z" fill="#0058A6"/>
<path d="M171.945 18.6875H168.981V20.3639H159.982V18.6875H157.018V29.5072H171.945V18.6875ZM168.981 23.9638V25.8739H159.982V23.9638H168.981Z" fill="#0058A6"/>
<path d="M155.159 30.5757V34.1021H162.972V37.8556H165.942V34.1021H173.755V30.5757H155.159Z" fill="#0058A6"/>
<path d="M186.463 18.6875H183.492V20.9583H179.71V18.6875H176.746V29.4204H186.463V18.6875ZM183.492 24.2309V26.1477H179.71V24.2309H183.492Z" fill="#0058A6"/>
<path d="M180.294 37.2079H192.572V30.2285H177.323V33.3943H189.608V34.0421H177.323V41.0749H192.988V37.9091H180.287V37.2079H180.294Z" fill="#0058A6"/>
<path d="M192.571 18.7207H189.607V29.4268H192.571V25.5598H194.637V22.1803H192.571V18.7207Z" fill="#0058A6"/>
<path d="M200.923 30.8364H197.952V36.9475H214.375V33.5681H200.923V30.8364Z" fill="#0058A6"/>
<path d="M211.403 18.6875V22.1805H208.365V25.56H211.403V29.4805H214.374V18.6875H211.403Z" fill="#0058A6"/>
<path d="M198.863 29.6381C198.863 29.6381 202.249 25.9848 202.491 25.7243C202.739 25.9915 206.145 29.6381 206.145 29.6381L208.204 26.7128C208.204 26.7128 204.067 22.6187 203.523 22.0777H207.42V18.6982H197.528V22.0777H201.424C200.888 22.6187 196.824 26.6861 196.824 26.6861L198.856 29.6448L198.863 29.6381Z" fill="#0058A6"/>
<path d="M229.341 29.6342C229.341 29.6342 232.728 25.9809 232.969 25.7204C233.217 25.9876 236.624 29.6342 236.624 29.6342L238.683 26.7089C238.683 26.7089 234.545 22.6148 234.002 22.0738H237.898V18.6943H228.014V22.0738H231.91C231.373 22.6148 227.31 26.6822 227.31 26.6822L229.341 29.6409V29.6342Z" fill="#0058A6"/>
<path d="M222.783 18.8345H220.992V37.6353H222.783V18.8345Z" fill="#0058A6"/>
<path d="M225.122 33.9221H231.868V37.6756H234.121V33.9221H240.874V30.7563H225.122V33.9221Z" fill="#0058A6"/>
<path d="M245.006 18.8345H243.209V37.6353H245.006V18.8345Z" fill="#0058A6"/>
<path d="M103.202 24.7722C103.202 23.5099 102.733 22.4079 101.794 21.4729C100.855 20.5378 99.7552 20.0703 98.481 20.0703C97.1198 20.0703 95.9663 20.5378 95.0342 21.4729C94.0954 22.3611 93.626 23.4565 93.626 24.7722C93.626 26.0879 94.0954 27.1365 95.0342 28.0715C95.973 29.0533 97.1198 29.5475 98.481 29.5475C99.7485 29.5475 100.848 29.06 101.794 28.0715C102.733 27.1365 103.202 26.0345 103.202 24.7722ZM99.7149 26.0612C99.3528 26.4352 98.9303 26.6289 98.4408 26.6289C97.9178 26.6289 97.4752 26.4419 97.1131 26.0612C96.7509 25.7005 96.5699 25.2798 96.5699 24.7922C96.5699 24.3047 96.7509 23.8639 97.1131 23.5233C97.4752 23.1626 97.9178 22.9823 98.4408 22.9823C98.9303 22.9823 99.3528 23.1626 99.7149 23.5233C100.077 23.8839 100.258 24.3047 100.258 24.7922C100.258 25.2798 100.077 25.7005 99.7149 26.0612Z" fill="#0058A6"/>
<path d="M96.7511 30.8096H93.7871V36.9207H109.754V33.5412H96.7578V30.8096H96.7511Z" fill="#0058A6"/>
<path d="M109.245 22.1603V18.7007H106.281V29.4536H109.245V25.5331H111.304V22.1536H109.245V22.1603Z" fill="#0058A6"/>
<path d="M103.478 18.6809H99.8163V16.3032H96.8523V18.6809H93.1641V22.2206H103.484V18.6809H103.478Z" fill="#0058A6"/>
<path d="M148.889 18.7075V22.1671H145.852V25.5466H148.889V36.954H151.853V18.7142H148.889V18.7075Z" fill="#0058A6"/>
<path d="M139.448 18.6875L134.338 28.9395L137.134 30.8363L140.065 24.999L143.022 30.8363L145.852 28.9395L140.735 18.6875H139.448Z" fill="#0058A6"/>
</g>
<defs>
<clipPath id="clip0_2361_1692">
<rect width="245" height="44" fill="white"/>
</clipPath>
</defs>
</svg>
