<svg width="296" height="26" viewBox="0 0 296 26" fill="none" xmlns="http://www.w3.org/2000/svg">
<g clip-path="url(#clip0_2458_413)">
<mask id="mask0_2458_413" style="mask-type:luminance" maskUnits="userSpaceOnUse" x="0" y="0" width="296" height="26">
<path d="M295.295 0H0V26H295.295V0Z" fill="white"/>
</mask>
<g mask="url(#mask0_2458_413)">
<path d="M46.8118 1.96789C44.9848 0.583985 42.7233 -0.100123 40.4362 0.039252H28.0283C28.0844 1.00325 28.5063 1.90942 29.2077 2.57253C29.9091 3.23564 30.8372 3.60561 31.8021 3.60682H39.8173C41.0526 3.51834 42.2816 3.84978 43.3053 4.54747C43.6898 4.85399 43.9973 5.24638 44.203 5.6932C44.4088 6.14002 44.5071 6.62885 44.4902 7.12054C44.4977 7.67171 44.3748 8.21684 44.1314 8.71134C43.8881 9.20584 43.5312 9.63567 43.09 9.96568C41.8876 10.7766 40.449 11.1623 39.0026 11.0614H36.6745C39.4574 11.1581 42.211 11.6643 44.8465 12.5638L45.072 12.5016C45.2427 12.4552 45.407 12.3976 45.5684 12.3354C45.6454 12.3707 45.7289 12.4023 45.8041 12.4394C46.6526 11.9647 47.3824 11.3033 47.9383 10.5052C48.693 9.46704 49.0871 8.21001 49.0601 6.92647C49.0843 5.98328 48.8941 5.04691 48.504 4.18797C48.1139 3.32903 47.534 2.56992 46.8081 1.96789" fill="#00BE6E"/>
<path d="M33.5284 14.2239C32.9763 14.0776 32.4459 13.8591 31.951 13.5739C31.7414 13.4543 31.5408 13.3196 31.3506 13.1709C30.8533 13.5935 30.4563 14.1215 30.1882 14.7168C29.9202 15.312 29.788 15.9594 29.8011 16.6122V21.2281H31.9408C32.5603 21.2232 33.1526 20.9725 33.5875 20.5309C34.0224 20.0894 34.2645 19.4932 34.2605 18.8733V15.964C34.2624 15.7542 34.3057 15.5467 34.3879 15.3536C34.47 15.1605 34.5895 14.9855 34.7393 14.8386C34.9624 14.6432 35.2512 14.5397 35.5475 14.5489H35.7675C35.0114 14.525 34.2603 14.4163 33.5284 14.2248" fill="#00BE6E"/>
<path d="M48.4894 14.5944C47.764 13.6875 46.8495 12.95 45.8097 12.4336C43.3711 13.871 39.9639 14.3344 37.7573 14.4765C32.859 14.2907 31.9691 13.5535 31.9691 13.5535L31.9506 13.5627C32.4455 13.8479 32.9759 14.0665 33.528 14.2127C34.26 14.4035 35.011 14.5122 35.767 14.5368H36.4704C36.2486 14.5415 36.0528 14.5442 35.9071 14.5442C36.1985 14.5498 36.3711 14.5442 36.3711 14.5442H40.0483C44.4633 14.5442 44.878 16.8406 44.878 16.8406H38.7428C38.6575 16.8406 38.5757 16.8745 38.5154 16.9348C38.4551 16.9952 38.4213 17.077 38.4213 17.1623C38.4213 17.2477 38.4551 17.3295 38.5154 17.3899C38.5757 17.4502 38.6575 17.4841 38.7428 17.4841H45.0673C45.1647 18.0568 45.1707 18.6413 45.085 19.2159H36.9195C36.8341 19.2159 36.7522 19.2498 36.6918 19.3103C36.6314 19.3707 36.5975 19.4526 36.5975 19.5381C36.5975 19.6236 36.6314 19.7055 36.6918 19.7659C36.7522 19.8264 36.8341 19.8603 36.9195 19.8603H44.9235C44.9235 19.8603 44.4642 22.191 40.246 22.191H31.8021C30.8372 22.1922 29.9091 22.5622 29.2077 23.2253C28.5063 23.8884 28.0844 24.7946 28.0283 25.7586H41.7603C43.8876 25.8824 45.9827 25.1949 47.6237 23.8346C48.3088 23.2152 48.8514 22.4544 49.2141 21.6047C49.5768 20.7551 49.7509 19.8367 49.7245 18.9132C49.8735 17.3695 49.431 15.8268 48.4867 14.5972" fill="#008CFF"/>
<path d="M31.1723 13.0342C31.228 13.0834 31.2911 13.1215 31.3495 13.1688C33.6953 11.1037 37.8829 11.0601 37.9228 11.0601C37.1805 11.0331 36.697 11.0341 36.6766 11.0341C36.3769 11.0605 36.075 11.0254 35.7893 10.9309C35.5036 10.8364 35.2402 10.6845 35.0153 10.4846C34.7904 10.2846 34.6086 10.0407 34.4812 9.76798C34.3538 9.49522 34.2834 9.19929 34.2743 8.89834H39.67C39.7554 8.89834 39.8373 8.86439 39.8977 8.80396C39.9581 8.74353 39.992 8.66158 39.992 8.57612C39.992 8.49066 39.9581 8.40871 39.8977 8.34828C39.8373 8.28785 39.7554 8.25391 39.67 8.25391H34.2622V6.50448H41.6854C41.7707 6.50448 41.8525 6.47058 41.9128 6.41024C41.9731 6.3499 42.0069 6.26806 42.0069 6.18273C42.0069 6.09739 41.9731 6.01556 41.9128 5.95522C41.8525 5.89488 41.7707 5.86098 41.6854 5.86098H34.1221L34.1165 5.84798C33.9738 5.50248 33.7317 5.20724 33.4209 4.99974C33.1101 4.79225 32.7448 4.68187 32.3712 4.68262H29.8018V9.63191C29.7529 10.266 29.8508 10.9028 30.0878 11.4929C30.3249 12.083 30.6947 12.6104 31.1686 13.0342" fill="#008CFF"/>
<path d="M35.904 14.5442L35.7639 14.5396H35.5439C35.5439 14.5396 35.6748 14.5396 35.904 14.5396" fill="#4489C8"/>
<path d="M45.1701 12.1518C44.3568 11.8596 43.5181 11.6442 42.6648 11.5083C41.0948 11.2545 39.51 11.1028 37.9204 11.0542C37.8805 11.0542 33.6929 11.0988 31.3472 13.1639C31.9951 13.6594 32.7365 14.0186 33.5268 14.2197C34.3046 14.422 35.1034 14.532 35.9069 14.5475C37.2987 14.5475 42.4662 14.4036 45.8076 12.4341C45.6034 12.3338 45.3928 12.2372 45.1692 12.1555" fill="#0264C8"/>
<path d="M102.505 16.608H116.553V18.2256H110.467V20.755H115.54V26.0033H113.666V22.3726H103.434V20.755H108.592V18.2256H102.505V16.608ZM113.665 11.9651H103.434V10.3271H115.539V12.994C115.553 13.8825 115.442 14.7685 115.211 15.6265H113.389C113.589 14.7871 113.683 13.9256 113.667 13.0627L113.665 11.9651Z" fill="#002AC1"/>
<path d="M124.207 12.0616H118.498V10.4096H126.065V13.5593C126.183 16.1587 125.54 18.7359 124.217 20.9758C122.851 22.9604 120.772 24.341 118.414 24.8303V23.0568C122.276 21.9425 124.207 18.851 124.208 13.7822L124.207 12.0616ZM130.69 16.5011H133.131V18.1363H130.69V25.7422H128.816V10.1348H130.69V16.5011Z" fill="#002AC1"/>
<path d="M143.658 15.9337V10.4096H145.514V24.692H137.947V10.4096H139.803V15.9337H143.658ZM143.658 17.5513H139.807V23.0735H143.658V17.5513ZM150.141 16.5011H152.583V18.1363H150.141V25.7422H148.267V10.1348H150.141V16.5011Z" fill="#002AC1"/>
<path d="M154.624 11.3603C154.955 10.9548 155.376 10.6329 155.855 10.4208C156.333 10.2086 156.854 10.1122 157.376 10.1392C157.9 10.1158 158.423 10.2138 158.903 10.4256C159.383 10.6374 159.807 10.9573 160.143 11.3603C160.993 12.4046 161.417 14.458 161.416 17.5204C161.414 20.5829 160.99 22.6362 160.143 23.6806C159.805 24.0786 159.379 24.3928 158.899 24.5987C158.419 24.8046 157.898 24.8965 157.376 24.8673C156.857 24.9001 156.337 24.8097 155.858 24.6035C155.38 24.3973 154.957 24.0811 154.624 23.6806C153.776 22.6362 153.352 20.5829 153.353 17.5204C153.354 14.458 153.777 12.4046 154.624 11.3603ZM158.734 12.4105C158.581 12.1956 158.377 12.0228 158.139 11.9084C157.902 11.7939 157.64 11.7414 157.376 11.7559C157.114 11.7463 156.853 11.8009 156.616 11.915C156.379 12.029 156.173 12.1991 156.017 12.4105C155.478 13.1329 155.209 14.8353 155.209 17.5176C155.209 20.2 155.478 21.9092 156.017 22.6452C156.181 22.846 156.389 23.0063 156.624 23.1135C156.86 23.2208 157.118 23.2722 157.376 23.2636C157.636 23.2769 157.894 23.2276 158.13 23.12C158.367 23.0123 158.574 22.8495 158.734 22.6452C159.284 21.9339 159.559 20.2247 159.559 17.5176C159.558 14.8106 159.283 13.1082 158.734 12.4105ZM165.991 25.7457H164.117V10.1383H165.991V25.7457Z" fill="#002AC1"/>
<path d="M170.48 11.6007C171.976 10.7112 173.684 10.2417 175.424 10.2417C177.164 10.2417 178.872 10.7112 180.368 11.6007C180.862 11.9945 181.258 12.4983 181.524 13.072C181.789 13.6457 181.918 14.2734 181.899 14.9055C181.919 15.5398 181.791 16.17 181.525 16.7463C181.259 17.3225 180.863 17.8288 180.368 18.2251C179.203 19.0621 177.811 19.5243 176.378 19.5502V23.44H182.332V25.0576H168.486V23.44H174.517V19.5511C173.065 19.5437 171.651 19.0803 170.476 18.2261C169.979 17.8316 169.581 17.3255 169.316 16.7489C169.05 16.1722 168.923 15.5411 168.946 14.9064C168.925 14.2741 169.052 13.6456 169.318 13.0715C169.583 12.4974 169.98 11.9939 170.476 11.6016M171.784 16.9873C172.892 17.6188 174.145 17.9508 175.42 17.9508C176.695 17.9508 177.949 17.6188 179.057 16.9873C179.37 16.7407 179.62 16.4236 179.787 16.0618C179.955 15.7001 180.034 15.3039 180.02 14.9055C180.029 14.5077 179.947 14.1131 179.78 13.752C179.613 13.3909 179.366 13.073 179.057 12.8227C177.945 12.2023 176.693 11.8767 175.42 11.8767C174.147 11.8767 172.895 12.2023 171.784 12.8227C171.474 13.0726 171.226 13.3905 171.059 13.7516C170.892 14.1128 170.811 14.5076 170.821 14.9055C170.806 15.3039 170.885 15.7002 171.053 16.062C171.22 16.4238 171.471 16.7409 171.784 16.9873Z" fill="#002AC1"/>
<path d="M186.643 24.6892V10.4068H192.23V12.0578H188.465V23.054H190.632C191.456 23.0859 192.28 22.9871 193.073 22.7615V24.3094C192.256 24.594 191.393 24.7225 190.528 24.6883L186.643 24.6892ZM194.363 25.5491V17.9951H191.321V16.3608H194.363V10.2323H196.186V25.5491H194.363ZM197.611 10.1348H199.433V25.7394H197.612L197.611 10.1348Z" fill="#002AC1"/>
<path d="M203.303 11.3602C203.634 10.9549 204.055 10.6331 204.533 10.421C205.011 10.2089 205.533 10.1123 206.055 10.1391C206.579 10.1164 207.1 10.2147 207.58 10.4265C208.059 10.6383 208.483 10.9578 208.819 11.3602C209.667 12.4046 210.091 14.4579 210.091 17.5204C210.091 20.5828 209.667 22.6365 208.819 23.6814C208.48 24.0793 208.054 24.3935 207.574 24.5994C207.094 24.8052 206.573 24.8972 206.051 24.8681C205.532 24.9008 205.012 24.8103 204.533 24.6041C204.055 24.398 203.632 24.0818 203.299 23.6814C202.452 22.6371 202.028 20.5837 202.028 17.5213C202.028 14.4589 202.452 12.4055 203.299 11.3611M207.41 12.4114C207.257 12.1963 207.052 12.0235 206.814 11.909C206.577 11.7945 206.314 11.7421 206.05 11.7567C205.788 11.7473 205.527 11.802 205.291 11.916C205.054 12.0301 204.849 12.2001 204.693 12.4114C204.154 13.1338 203.884 14.8362 203.884 17.5185C203.883 20.2008 204.153 21.91 204.693 22.6461C204.856 22.8468 205.064 23.0071 205.299 23.1144C205.535 23.2216 205.792 23.273 206.05 23.2645C206.31 23.2779 206.569 23.2288 206.805 23.1211C207.042 23.0135 207.249 22.8506 207.41 22.6461C207.96 21.9348 208.235 20.2256 208.235 17.5185C208.234 14.8114 207.959 13.109 207.41 12.4114ZM214.666 25.7466H212.792V10.1382H214.666V25.7466Z" fill="#002AC1"/>
<path d="M217.696 24.692V10.4096H225.176V12.0625H219.553V16.6571H224.522V18.2913H219.553V23.0568H223.662C224.683 23.0975 225.705 22.9759 226.688 22.6965V24.2444C225.687 24.5824 224.632 24.7338 223.576 24.691L217.696 24.692ZM230.145 25.7422H228.271V18.0508H225.33V16.4156H228.271V10.1348H230.145V25.7422Z" fill="#002AC1"/>
<path d="M235.575 23.4404H249.417V25.058H235.575V23.4404ZM239.951 18.1058C238.7 18.9107 237.299 19.4552 235.833 19.7066V18.0352C237.439 17.735 238.912 16.9411 240.046 15.7639C241.06 14.6191 241.595 13.1281 241.542 11.5993V10.3271H243.397V11.6011C243.345 13.1331 243.888 14.6259 244.912 15.7658C246.054 16.9413 247.531 17.7347 249.141 18.0371V19.7085C247.678 19.4537 246.281 18.9095 245.031 18.1076C243.993 17.4501 243.122 16.56 242.487 15.5076C241.853 16.5584 240.985 17.4482 239.95 18.1076" fill="#002AC1"/>
<path d="M251.479 24.6892V10.4068H257.084V12.0578H253.3V16.6524H256.688V18.27H253.3V23.054H255.415C256.239 23.0892 257.064 22.9905 257.856 22.7615V24.3094C257.045 24.5932 256.188 24.7217 255.329 24.6883L251.479 24.6892ZM259.199 25.5491V18.0982H257.378V16.4453H259.199V10.2351H261.022V25.5491H259.199ZM262.447 10.1348H264.268V25.7394H262.447V10.1348Z" fill="#002AC1"/>
<path d="M268.145 11.3602C268.476 10.9549 268.898 10.6331 269.376 10.421C269.854 10.2089 270.375 10.1123 270.898 10.1391C271.422 10.1157 271.945 10.2137 272.425 10.4255C272.905 10.6373 273.33 10.9572 273.667 11.3602C274.515 12.4046 274.939 14.4579 274.939 17.5204C274.939 20.5828 274.515 22.6362 273.667 23.6805C273.328 24.0785 272.901 24.3928 272.421 24.5986C271.941 24.8045 271.419 24.8964 270.898 24.8672C270.378 24.8999 269.858 24.8094 269.38 24.6032C268.902 24.397 268.479 24.0809 268.145 23.6805C267.298 22.6362 266.874 20.5828 266.874 17.5204C266.874 14.4579 267.298 12.4046 268.145 11.3602ZM272.255 12.4104C272.103 12.1954 271.898 12.0225 271.661 11.9081C271.423 11.7936 271.161 11.7412 270.898 11.7558C270.635 11.7464 270.374 11.8011 270.137 11.9151C269.9 12.0292 269.695 12.1992 269.538 12.4104C269.001 13.1329 268.732 14.8352 268.731 17.5176C268.73 20.1999 268.999 21.9091 269.538 22.6451C269.702 22.8459 269.91 23.0062 270.146 23.1135C270.381 23.2207 270.639 23.2721 270.898 23.2636C271.157 23.277 271.416 23.2278 271.652 23.1202C271.888 23.0126 272.095 22.8496 272.255 22.6451C272.807 21.9339 273.082 20.2247 273.081 17.5176C273.08 14.8105 272.804 13.1081 272.255 12.4104ZM279.512 25.7456H277.638V10.1382H279.512V25.7456Z" fill="#002AC1"/>
<path d="M287.182 12.9038C287.111 13.9742 287.423 15.035 288.063 15.8959C288.703 16.7567 289.628 17.3614 290.673 17.6014V19.2543C289.742 19.0544 288.854 18.6899 288.05 18.1781C287.334 17.7367 286.727 17.1401 286.272 16.4323C285.842 17.1748 285.243 17.8053 284.524 18.2728C283.713 18.8238 282.807 19.2207 281.852 19.4437V17.7723C282.859 17.4801 283.747 16.8749 284.388 16.0442C285.042 15.1309 285.371 14.0252 285.325 12.9028V10.2378H287.181L287.182 12.9038ZM283.365 25.8109V20.5097H285.239V24.1924H295.298V25.81L283.365 25.8109ZM289.9 14.4888H293.147V13.2139H289.9V11.614H293.147V10.1348H295.022V21.0603H293.147V16.1083H289.9V14.4888Z" fill="#002AC1"/>
<path d="M103.436 5.75904V0.170898H104.113V2.94361H104.178L106.684 0.170898H107.567L105.225 2.6929L107.569 5.75718H106.751L104.815 3.16183L104.117 3.9474V5.75904H103.436Z" fill="#002AC1"/>
<path d="M109.751 5.85204C109.404 5.86217 109.062 5.77025 108.767 5.58769C108.472 5.40513 108.237 5.13995 108.092 4.82504C107.926 4.47022 107.844 4.08189 107.853 3.69032C107.844 3.29575 107.926 2.90436 108.092 2.54632C108.241 2.2322 108.476 1.96683 108.769 1.78102C109.063 1.59521 109.404 1.49658 109.751 1.49658C110.099 1.49658 110.439 1.59521 110.733 1.78102C111.027 1.96683 111.262 2.2322 111.411 2.54632C111.577 2.90436 111.658 3.29575 111.649 3.69032C111.658 4.08189 111.576 4.47022 111.411 4.82504C111.265 5.13995 111.03 5.40513 110.735 5.58769C110.44 5.77025 110.097 5.86217 109.751 5.85204ZM109.752 5.27354C110.005 5.28216 110.254 5.20314 110.457 5.04975C110.645 4.89805 110.788 4.69674 110.868 4.46847C110.959 4.21852 111.004 3.95436 111.001 3.68847C111.004 3.42137 110.958 3.15601 110.868 2.90475C110.787 2.67511 110.645 2.47208 110.457 2.31789C110.249 2.17248 110.001 2.0945 109.747 2.0945C109.494 2.0945 109.246 2.17248 109.038 2.31789C108.85 2.47208 108.708 2.67511 108.627 2.90475C108.536 3.15601 108.491 3.42137 108.493 3.68847C108.491 3.95436 108.536 4.21852 108.627 4.46847C108.707 4.69674 108.85 4.89805 109.038 5.04975C109.242 5.20296 109.492 5.28103 109.747 5.27075" fill="#002AC1"/>
<path d="M112.633 5.76309V1.57245H113.254V2.20667H113.299C113.377 1.99683 113.523 1.81908 113.714 1.70152C113.915 1.57151 114.15 1.50399 114.39 1.50745H114.566C114.638 1.50745 114.692 1.51302 114.728 1.51674V2.16767C114.706 2.16302 114.656 2.15374 114.579 2.14167C114.499 2.12969 114.417 2.12379 114.335 2.12402C114.146 2.12059 113.959 2.16397 113.791 2.25031C113.636 2.33159 113.506 2.45239 113.414 2.60038C113.322 2.75287 113.275 2.92828 113.278 3.10645V5.76309H112.633Z" fill="#002AC1"/>
<path d="M117.112 5.85302C116.746 5.86258 116.384 5.7693 116.068 5.58374C115.776 5.40331 115.542 5.14167 115.396 4.83066C115.232 4.47748 115.152 4.09158 115.16 3.70245C115.152 3.311 115.233 2.92288 115.396 2.56681C115.54 2.25381 115.769 1.98727 116.056 1.79702C116.352 1.6081 116.697 1.51115 117.047 1.51845C117.268 1.51832 117.488 1.55504 117.697 1.62709C117.913 1.70254 118.112 1.82348 118.278 1.98181C118.464 2.16216 118.607 2.38253 118.695 2.62624C118.807 2.94328 118.859 3.27818 118.85 3.61424V3.88631H115.618V3.32916H118.192C118.196 3.11027 118.148 2.89358 118.052 2.69681C117.963 2.51582 117.825 2.36336 117.654 2.25666C117.471 2.14628 117.261 2.09053 117.047 2.09602C116.812 2.0889 116.581 2.15369 116.384 2.28174C116.2 2.40509 116.052 2.57485 115.954 2.77388C115.855 2.97603 115.804 3.19855 115.805 3.42388V3.79531C115.796 4.07228 115.853 4.34735 115.97 4.59852C116.07 4.80731 116.23 4.98156 116.429 5.09902C116.638 5.21553 116.875 5.27418 117.114 5.26895C117.27 5.27123 117.425 5.24705 117.573 5.19745C117.707 5.15148 117.828 5.07666 117.93 4.97831C118.033 4.87525 118.112 4.75062 118.161 4.61338L118.782 4.78888C118.718 4.99808 118.605 5.18903 118.453 5.34602C118.291 5.50943 118.096 5.6361 117.88 5.71745C117.635 5.80836 117.375 5.85306 117.114 5.84931" fill="#002AC1"/>
<path d="M121.059 5.86285C120.81 5.8658 120.564 5.81381 120.337 5.71057C120.119 5.61371 119.935 5.45361 119.809 5.25097C119.683 5.04834 119.621 4.8125 119.63 4.574C119.621 4.36938 119.671 4.16649 119.773 3.989C119.866 3.83984 119.997 3.71758 120.151 3.63428C120.317 3.547 120.493 3.48235 120.676 3.44207C120.868 3.39842 121.062 3.365 121.256 3.33992C121.511 3.30742 121.72 3.28142 121.876 3.26471C121.997 3.25582 122.115 3.22432 122.224 3.17185C122.262 3.14975 122.292 3.11738 122.312 3.07855C122.332 3.03972 122.34 2.99606 122.336 2.95271V2.93692C122.343 2.82306 122.327 2.70895 122.289 2.60132C122.251 2.49368 122.192 2.39468 122.116 2.31014C122.026 2.22967 121.921 2.16826 121.807 2.12963C121.693 2.09101 121.572 2.07596 121.452 2.08542C121.196 2.07078 120.942 2.14201 120.731 2.28785C120.573 2.39916 120.446 2.54744 120.359 2.71964L119.748 2.5005C119.841 2.2677 119.991 2.0625 120.186 1.90435C120.363 1.76454 120.567 1.6622 120.785 1.60349C120.995 1.54803 121.21 1.51933 121.426 1.51807C121.582 1.52059 121.737 1.53675 121.89 1.56635C122.071 1.60001 122.244 1.66608 122.401 1.76135C122.575 1.87029 122.716 2.02388 122.811 2.20614C122.931 2.45402 122.987 2.72783 122.974 3.00285V5.76442H122.33V5.19614H122.298C122.241 5.30454 122.168 5.40327 122.081 5.48864C121.963 5.60217 121.825 5.69202 121.674 5.75328C121.477 5.83098 121.267 5.86824 121.055 5.86285M121.154 5.28435C121.38 5.29257 121.604 5.24066 121.803 5.13392C121.969 5.04413 122.107 4.91011 122.201 4.74671C122.289 4.59498 122.336 4.42262 122.336 4.24714V3.65657C122.286 3.70323 122.224 3.73534 122.157 3.74942C122.053 3.77869 121.948 3.80133 121.841 3.81721C121.722 3.83702 121.606 3.85342 121.494 3.86642L121.223 3.90171C121.065 3.92108 120.91 3.95623 120.759 4.00664C120.626 4.04722 120.506 4.12141 120.409 4.22207C120.317 4.32961 120.27 4.46867 120.278 4.61021C120.272 4.70906 120.292 4.80769 120.336 4.89641C120.38 4.98513 120.446 5.0609 120.528 5.11628C120.717 5.23647 120.938 5.29608 121.162 5.28714" fill="#002AC1"/>
<path d="M126.406 5.75953V0.17232H128.355C128.687 0.159949 129.018 0.228455 129.318 0.371963C129.555 0.491534 129.751 0.678603 129.882 0.909606C130.006 1.1375 130.07 1.39311 130.067 1.65246C130.075 1.85825 130.032 2.06274 129.941 2.24768C129.863 2.39755 129.749 2.52531 129.608 2.61911C129.471 2.71041 129.321 2.77879 129.162 2.82153V2.87632C129.346 2.89121 129.523 2.95289 129.677 3.05553C129.858 3.17426 130.007 3.33559 130.111 3.52539C130.233 3.75359 130.293 4.00965 130.286 4.26825C130.289 4.53277 130.223 4.79358 130.093 5.02411C129.954 5.26068 129.743 5.44695 129.491 5.55618C129.153 5.69969 128.787 5.76689 128.42 5.75303L126.406 5.75953ZM127.082 2.62746H128.336C128.528 2.63095 128.719 2.58963 128.893 2.50675C129.052 2.43142 129.187 2.31466 129.285 2.16875C129.384 2.0161 129.435 1.83717 129.431 1.65525C129.433 1.53892 129.411 1.42341 129.367 1.3158C129.323 1.20819 129.257 1.11073 129.174 1.02939C129.061 0.935356 128.931 0.864607 128.791 0.82125C128.651 0.777893 128.504 0.762791 128.358 0.77682H127.084L127.082 2.62746ZM127.082 5.15968H128.424C128.759 5.19201 129.094 5.10051 129.366 4.90246C129.455 4.82434 129.526 4.72785 129.574 4.61964C129.622 4.51143 129.646 4.39408 129.644 4.27568C129.646 4.09005 129.597 3.90753 129.501 3.74825C129.402 3.58396 129.259 3.45007 129.089 3.36103C128.894 3.25938 128.676 3.2092 128.457 3.21525H127.084L127.082 5.15968Z" fill="#002AC1"/>
<path d="M131.641 0.873854C131.581 0.874563 131.521 0.863361 131.465 0.840893C131.409 0.818425 131.358 0.785132 131.315 0.742926C131.273 0.703961 131.239 0.656472 131.216 0.60353C131.192 0.550587 131.181 0.493368 131.181 0.435569C131.181 0.377935 131.193 0.320912 131.216 0.268147C131.239 0.215382 131.273 0.168037 131.315 0.12914C131.359 0.0872685 131.41 0.0543176 131.465 0.0321708C131.521 0.0100239 131.581 -0.000884545 131.641 6.87935e-05C131.701 -0.000976511 131.76 0.00989991 131.816 0.032062C131.871 0.054224 131.922 0.0872268 131.964 0.12914C132.007 0.167864 132.042 0.215414 132.065 0.268591C132.089 0.321769 132.1 0.379338 132.1 0.437426C132.1 0.494984 132.088 0.551992 132.065 0.604664C132.042 0.657336 132.008 0.704467 131.965 0.742926C131.922 0.784839 131.872 0.817842 131.817 0.840004C131.761 0.862166 131.702 0.873043 131.642 0.871997M131.315 1.57028H131.958V5.76278H131.315L131.315 1.57028Z" fill="#002AC1"/>
<path d="M134.835 5.85327C134.488 5.86341 134.146 5.77149 133.851 5.58893C133.556 5.40636 133.322 5.14119 133.176 4.82627C133.01 4.47146 132.928 4.08313 132.937 3.69156C132.928 3.29699 133.01 2.9056 133.176 2.54756C133.325 2.23313 133.56 1.96745 133.853 1.7814C134.147 1.59535 134.488 1.49658 134.835 1.49658C135.183 1.49658 135.524 1.59535 135.817 1.7814C136.111 1.96745 136.346 2.23313 136.495 2.54756C136.661 2.90561 136.742 3.29699 136.733 3.69156C136.742 4.08313 136.661 4.47146 136.495 4.82627C136.349 5.14141 136.115 5.40679 135.82 5.5894C135.525 5.772 135.182 5.86377 134.835 5.85327ZM134.836 5.27477C135.091 5.28506 135.341 5.20699 135.545 5.05378C135.733 4.90208 135.875 4.70076 135.956 4.47249C136.047 4.22261 136.092 3.95844 136.09 3.69249C136.092 3.42534 136.047 3.15997 135.956 2.90877C135.875 2.67913 135.733 2.4761 135.545 2.32192C135.337 2.17646 135.089 2.09844 134.836 2.09844C134.582 2.09844 134.335 2.17646 134.127 2.32192C133.938 2.4756 133.795 2.67873 133.714 2.90877C133.623 3.16003 133.578 3.42539 133.58 3.69249C133.578 3.95838 133.623 4.22255 133.714 4.47249C133.795 4.70098 133.938 4.90232 134.127 5.05378C134.33 5.2072 134.581 5.2853 134.836 5.27477Z" fill="#002AC1"/>
<path d="M139.527 5.75933H137.802V0.172112H139.602C140.087 0.157625 140.568 0.273023 140.994 0.506398C141.379 0.728422 141.688 1.06222 141.881 1.46376C142.097 1.93051 142.202 2.44085 142.189 2.95504C142.202 3.47296 142.096 3.98698 141.877 4.45654C141.682 4.86377 141.366 5.20094 140.972 5.42226C140.528 5.65851 140.03 5.7747 139.527 5.75933ZM138.48 5.15947H139.484C139.883 5.17451 140.28 5.08251 140.632 4.89297C140.933 4.71742 141.171 4.45084 141.311 4.13154C141.469 3.75985 141.545 3.35869 141.535 2.95504C141.545 2.55469 141.469 2.15679 141.314 1.78783C141.177 1.4745 140.947 1.21132 140.655 1.03476C140.32 0.850493 139.941 0.761238 139.559 0.776612H138.479L138.48 5.15947Z" fill="#002AC1"/>
<path d="M144.468 5.86285C144.219 5.8658 143.972 5.81381 143.746 5.71057C143.536 5.61572 143.357 5.46307 143.231 5.27042C143.098 5.06251 143.031 4.81953 143.039 4.57307C143.03 4.36845 143.08 4.16556 143.182 3.98807C143.275 3.83891 143.405 3.71665 143.56 3.63335C143.726 3.54607 143.902 3.48142 144.084 3.44114C144.277 3.3975 144.469 3.36407 144.664 3.339C144.92 3.3065 145.128 3.2805 145.285 3.26378C145.406 3.25489 145.524 3.22339 145.633 3.17092C145.67 3.14865 145.701 3.11625 145.72 3.07747C145.74 3.03868 145.748 2.9951 145.744 2.95178V2.93692C145.751 2.82306 145.735 2.70895 145.698 2.60132C145.66 2.49368 145.601 2.39468 145.525 2.31014C145.435 2.22976 145.33 2.16841 145.216 2.12979C145.102 2.09116 144.981 2.07607 144.861 2.08542C144.605 2.07078 144.351 2.14201 144.139 2.28785C143.982 2.39916 143.855 2.54744 143.768 2.71964L143.157 2.5005C143.249 2.26787 143.399 2.06267 143.593 1.90435C143.771 1.76465 143.975 1.66232 144.193 1.60349C144.402 1.54804 144.618 1.51934 144.834 1.51807C144.99 1.52059 145.145 1.53675 145.298 1.56635C145.478 1.5998 145.651 1.66589 145.808 1.76135C145.982 1.86992 146.124 2.02358 146.219 2.20614C146.338 2.45411 146.394 2.72791 146.381 3.00285V5.76442H145.738V5.19614H145.705C145.648 5.3046 145.574 5.40332 145.487 5.48864C145.37 5.60245 145.232 5.69235 145.081 5.75328C144.884 5.83098 144.674 5.86824 144.462 5.86285M144.56 5.28435C144.786 5.29257 145.011 5.24066 145.21 5.13392C145.376 5.04431 145.513 4.91022 145.607 4.74671C145.696 4.59506 145.742 4.4227 145.743 4.24714V3.65657C145.692 3.70271 145.63 3.73473 145.564 3.74942C145.46 3.77869 145.355 3.80133 145.248 3.81721C145.129 3.83702 145.013 3.85342 144.901 3.86642L144.63 3.90171C144.472 3.92096 144.317 3.95611 144.166 4.00664C144.033 4.04722 143.912 4.12141 143.816 4.22207C143.724 4.32961 143.677 4.46867 143.685 4.61021C143.679 4.70886 143.699 4.80731 143.742 4.89598C143.786 4.98466 143.852 5.06055 143.933 5.11628C144.123 5.23622 144.344 5.2958 144.568 5.28714" fill="#002AC1"/>
<path d="M149.389 2.11619H147.219V1.57112H149.389V2.11619ZM147.85 0.566406H148.494V4.55926C148.485 4.70016 148.513 4.84098 148.575 4.96783C148.621 5.05057 148.694 5.11443 148.782 5.14798C148.868 5.17842 148.96 5.1935 149.051 5.19255C149.109 5.1935 149.168 5.18946 149.226 5.18048L149.334 5.15912L149.465 5.73762C149.404 5.75848 149.342 5.77523 149.279 5.78776C149.182 5.80704 149.082 5.81576 148.982 5.81376C148.799 5.81354 148.617 5.77363 148.45 5.69676C148.276 5.61904 148.127 5.49545 148.018 5.33926C147.899 5.16045 147.839 4.94859 147.848 4.73383L147.85 0.566406Z" fill="#002AC1"/>
<path d="M151.587 5.86285C151.338 5.86583 151.092 5.81383 150.865 5.71057C150.647 5.61371 150.463 5.45361 150.337 5.25097C150.211 5.04834 150.149 4.8125 150.158 4.57399C150.149 4.36938 150.199 4.16649 150.301 3.98899C150.395 3.84035 150.525 3.71823 150.68 3.63428C150.846 3.54694 151.023 3.48229 151.206 3.44207C151.398 3.39842 151.589 3.365 151.786 3.33992C152.039 3.30742 152.25 3.28142 152.405 3.26471C152.525 3.25581 152.643 3.22432 152.753 3.17185C152.79 3.14979 152.821 3.11745 152.841 3.07864C152.861 3.03982 152.869 2.99614 152.865 2.95271V2.93692C152.872 2.823 152.856 2.70887 152.818 2.60124C152.78 2.49361 152.721 2.39464 152.644 2.31014C152.555 2.22983 152.45 2.16852 152.336 2.1299C152.222 2.09128 152.101 2.07615 151.982 2.08542C151.725 2.07065 151.47 2.14187 151.258 2.28785C151.101 2.3995 150.973 2.54769 150.887 2.71964L150.275 2.50049C150.368 2.26746 150.518 2.06216 150.713 1.90435C150.891 1.76454 151.094 1.6622 151.313 1.60349C151.522 1.54803 151.737 1.51933 151.954 1.51807C152.109 1.52069 152.265 1.53685 152.418 1.56635C152.598 1.59999 152.77 1.66606 152.926 1.76135C153.101 1.86963 153.243 2.02336 153.337 2.20614C153.457 2.45403 153.513 2.72783 153.501 3.00285V5.76442H152.857V5.19614H152.825C152.767 5.30408 152.693 5.40268 152.606 5.48864C152.489 5.60218 152.351 5.69204 152.201 5.75328C152.003 5.83103 151.792 5.86829 151.58 5.86285M151.679 5.28435C151.903 5.29167 152.125 5.23979 152.323 5.13392C152.483 5.04774 152.618 4.91992 152.712 4.76388C152.806 4.60785 152.856 4.42935 152.857 4.24714V3.65657C152.807 3.70246 152.745 3.73445 152.678 3.74942C152.574 3.77855 152.469 3.80119 152.362 3.81721C152.243 3.83702 152.127 3.85342 152.015 3.86642L151.745 3.90171C151.587 3.92091 151.432 3.95606 151.281 4.00664C151.148 4.04782 151.028 4.12192 150.931 4.22207C150.84 4.32999 150.792 4.46877 150.799 4.61021C150.794 4.70886 150.814 4.80731 150.857 4.89598C150.901 4.98466 150.967 5.06055 151.048 5.11628C151.238 5.23635 151.459 5.29593 151.684 5.28714" fill="#002AC1"/>
<path d="M159.987 1.57022C159.974 1.43948 159.932 1.31339 159.863 1.20166C159.794 1.08993 159.7 0.995553 159.589 0.925796C159.332 0.766591 159.034 0.6868 158.733 0.696439C158.51 0.691257 158.289 0.732362 158.083 0.817153C157.913 0.886333 157.764 1.00022 157.653 1.1468C157.551 1.28509 157.497 1.45305 157.499 1.62501C157.496 1.76048 157.533 1.89385 157.607 2.00758C157.68 2.11494 157.775 2.20548 157.885 2.27315C157.997 2.34252 158.116 2.40009 158.24 2.44494C158.364 2.48951 158.477 2.5248 158.581 2.55265L159.148 2.70494C159.313 2.7496 159.476 2.80259 159.635 2.86372C159.818 2.93355 159.991 3.02555 160.15 3.13765C160.316 3.25517 160.455 3.40605 160.559 3.58058C160.671 3.78304 160.726 4.01214 160.719 4.24358C160.723 4.53388 160.641 4.81886 160.484 5.06258C160.314 5.31765 160.076 5.51925 159.796 5.64387C159.452 5.79692 159.078 5.87086 158.702 5.86022C158.346 5.86842 157.993 5.80232 157.665 5.66615C157.391 5.55161 157.153 5.36483 156.977 5.12572C156.81 4.88941 156.714 4.61058 156.699 4.32158H157.397C157.408 4.51492 157.483 4.69912 157.611 4.84437C157.74 4.98482 157.903 5.08995 158.085 5.14987C158.285 5.21767 158.495 5.25126 158.706 5.24922C158.942 5.25207 159.176 5.20821 159.395 5.12015C159.586 5.04648 159.754 4.92421 159.883 4.76544C160.003 4.61393 160.067 4.42559 160.063 4.23244C160.071 4.06735 160.015 3.90565 159.907 3.78022C159.794 3.65602 159.654 3.55892 159.498 3.49608C159.32 3.41998 159.137 3.35637 158.95 3.30572L158.262 3.10887C157.88 3.01217 157.526 2.82814 157.227 2.57122C157.1 2.45578 157.001 2.31426 156.935 2.15648C156.869 1.9987 156.838 1.82844 156.844 1.65751C156.839 1.3635 156.928 1.07554 157.099 0.836653C157.277 0.597652 157.514 0.409647 157.787 0.291582C158.092 0.158389 158.421 0.0919044 158.754 0.0965816C159.084 0.0904628 159.411 0.156372 159.713 0.289724C159.977 0.404218 160.207 0.584931 160.381 0.814367C160.544 1.03289 160.635 1.2972 160.641 1.57022H159.987Z" fill="#002AC1"/>
<path d="M163.564 2.11619H161.393V1.57112H163.564V2.11619ZM162.025 0.566406H162.669V4.55926C162.66 4.70016 162.688 4.84098 162.75 4.96783C162.795 5.05057 162.869 5.11443 162.957 5.14798C163.043 5.1784 163.134 5.19348 163.226 5.19255C163.284 5.1935 163.343 5.18946 163.4 5.18048L163.509 5.15912L163.64 5.73762C163.579 5.75848 163.517 5.77523 163.454 5.78776C163.356 5.80704 163.257 5.81576 163.157 5.81376C162.973 5.81354 162.792 5.77363 162.625 5.69676C162.451 5.61904 162.302 5.49545 162.193 5.33926C162.074 5.16045 162.014 4.94859 162.022 4.73383L162.025 0.566406Z" fill="#002AC1"/>
<path d="M165.767 5.86285C165.518 5.8658 165.272 5.81381 165.045 5.71057C164.836 5.61572 164.657 5.46307 164.53 5.27042C164.398 5.06251 164.331 4.81953 164.338 4.57307C164.33 4.36845 164.379 4.16556 164.481 3.98807C164.575 3.83891 164.705 3.71665 164.86 3.63335C165.025 3.54606 165.202 3.48141 165.384 3.44114C165.576 3.3975 165.768 3.36407 165.964 3.339C166.219 3.3065 166.428 3.2805 166.585 3.26378C166.706 3.25489 166.824 3.22339 166.933 3.17092C166.97 3.14865 167 3.11625 167.02 3.07747C167.04 3.03868 167.048 2.9951 167.044 2.95178V2.93692C167.051 2.82306 167.035 2.70895 166.997 2.60132C166.96 2.49368 166.901 2.39468 166.824 2.31014C166.735 2.22976 166.63 2.16841 166.516 2.12979C166.401 2.09116 166.281 2.07607 166.161 2.08542C165.904 2.07078 165.65 2.14201 165.439 2.28785C165.282 2.39916 165.154 2.54744 165.068 2.71964L164.456 2.5005C164.549 2.26776 164.699 2.06256 164.893 1.90435C165.071 1.76465 165.275 1.66232 165.494 1.60349C165.703 1.54803 165.918 1.51933 166.135 1.51807C166.291 1.52059 166.446 1.53675 166.599 1.56635C166.779 1.5998 166.952 1.66589 167.108 1.76135C167.283 1.86995 167.425 2.0236 167.519 2.20614C167.639 2.45411 167.694 2.72791 167.682 3.00285V5.76442H167.039V5.19614H167.006C166.949 5.3046 166.875 5.40332 166.787 5.48864C166.67 5.60244 166.533 5.69233 166.382 5.75328C166.185 5.83098 165.974 5.86824 165.763 5.86285M165.861 5.28435C166.087 5.29257 166.311 5.24066 166.511 5.13392C166.676 5.04431 166.814 4.91022 166.908 4.74671C166.996 4.59506 167.043 4.4227 167.043 4.24714V3.65657C166.993 3.70271 166.931 3.73473 166.864 3.74942C166.761 3.77869 166.655 3.80133 166.549 3.81721C166.429 3.83702 166.314 3.85342 166.202 3.86642L165.931 3.90171C165.773 3.92096 165.617 3.95611 165.467 4.00664C165.334 4.04722 165.213 4.12141 165.117 4.22207C165.025 4.32961 164.977 4.46867 164.985 4.61021C164.979 4.70886 164.999 4.80731 165.043 4.89598C165.087 4.98466 165.152 5.06055 165.234 5.11628C165.423 5.23622 165.645 5.2958 165.869 5.28714" fill="#002AC1"/>
<path d="M170.688 2.11619H168.513V1.57112H170.683L170.688 2.11619ZM169.149 0.566406H169.793V4.55926C169.784 4.70016 169.812 4.84096 169.874 4.96783C169.919 5.05052 169.993 5.11436 170.081 5.14798C170.167 5.1784 170.258 5.19348 170.35 5.19255C170.408 5.1935 170.467 5.18946 170.524 5.18048L170.633 5.15912L170.764 5.73762C170.703 5.75848 170.641 5.77523 170.578 5.78776C170.48 5.80704 170.381 5.81576 170.281 5.81376C170.097 5.81354 169.916 5.77363 169.749 5.69676C169.575 5.61904 169.426 5.49545 169.317 5.33926C169.198 5.16045 169.138 4.94859 169.146 4.73383L169.149 0.566406Z" fill="#002AC1"/>
<path d="M171.985 0.873844C171.864 0.87478 171.747 0.827702 171.661 0.742916C171.618 0.704135 171.584 0.656683 171.561 0.603698C171.538 0.550712 171.526 0.493402 171.527 0.435559C171.526 0.377568 171.538 0.320098 171.561 0.266951C171.584 0.213805 171.618 0.166195 171.661 0.127273C171.748 0.043844 171.864 -0.00187039 171.985 5.86622e-05C172.045 -0.000883218 172.104 0.0100407 172.159 0.032197C172.215 0.0543533 172.265 0.0873011 172.308 0.12913C172.351 0.168005 172.385 0.215585 172.409 0.268727C172.432 0.321869 172.444 0.379364 172.443 0.437416C172.444 0.495311 172.432 0.552628 172.408 0.6056C172.385 0.658572 172.351 0.706002 172.308 0.744773C172.265 0.786602 172.215 0.81955 172.159 0.841706C172.104 0.863862 172.045 0.874786 171.985 0.873844ZM171.657 1.57213H172.301V5.76277H171.657V1.57213Z" fill="#002AC1"/>
<path d="M175.182 5.85328C174.835 5.86377 174.493 5.77203 174.198 5.58945C173.902 5.40686 173.667 5.14148 173.521 4.82627C173.356 4.47146 173.274 4.08313 173.283 3.69156C173.274 3.29699 173.355 2.90561 173.521 2.54756C173.67 2.23313 173.905 1.96745 174.199 1.7814C174.493 1.59535 174.833 1.49658 175.181 1.49658C175.529 1.49658 175.869 1.59535 176.163 1.7814C176.457 1.96745 176.692 2.23313 176.84 2.54756C177.007 2.90542 177.089 3.29693 177.079 3.69156C177.088 4.08318 177.007 4.47164 176.84 4.82627C176.695 5.14134 176.461 5.40669 176.166 5.58929C175.871 5.7719 175.529 5.8637 175.182 5.85328ZM175.182 5.27478C175.437 5.28492 175.687 5.20685 175.89 5.05378C176.079 4.90232 176.222 4.70098 176.303 4.47249C176.393 4.22239 176.439 3.95833 176.437 3.69249C176.438 3.42544 176.393 3.16018 176.303 2.90877C176.222 2.67896 176.079 2.47593 175.89 2.32192C175.682 2.17646 175.435 2.09844 175.181 2.09844C174.928 2.09844 174.68 2.17646 174.472 2.32192C174.283 2.4756 174.14 2.67873 174.06 2.90877C173.969 3.16003 173.924 3.42539 173.926 3.69249C173.924 3.95838 173.969 4.22255 174.06 4.47249C174.14 4.70098 174.283 4.90232 174.472 5.05378C174.676 5.20733 174.928 5.28544 175.182 5.27478Z" fill="#002AC1"/>
<path d="M178.701 3.24463V5.7657H178.057V1.57413H178.679V2.22877H178.734C178.83 2.01785 178.985 1.83924 179.181 1.71434C179.414 1.5755 179.683 1.50774 179.955 1.51934C180.213 1.51402 180.468 1.57339 180.697 1.69206C180.913 1.81081 181.086 1.99385 181.193 2.21577C181.32 2.493 181.381 2.79601 181.37 3.1007V5.7657H180.727V3.1462C180.744 2.86589 180.652 2.58983 180.471 2.37548C180.38 2.28145 180.27 2.20793 180.149 2.15988C180.028 2.11183 179.898 2.09036 179.767 2.09691C179.575 2.09367 179.386 2.13971 179.217 2.23063C179.056 2.32164 178.924 2.45739 178.837 2.62156C178.739 2.81382 178.691 3.02788 178.698 3.2437" fill="#002AC1"/>
<path d="M15.0143 0.181641L4.28411 12.5632V0.181641H0V25.7601H4.28411V13.3785L15.0143 25.7601H21.1236L9.59727 12.9709L21.1236 0.181641H15.0143Z" fill="#002AC1"/>
<path d="M70.6274 3.19346C69.6601 2.24004 68.5133 1.48823 67.2536 0.981602C65.9026 0.440466 64.4589 0.168872 63.0038 0.182102H53.9048V25.7577H63.0038C64.4589 25.771 65.9026 25.4994 67.2536 24.9582C68.5169 24.4578 69.6651 23.7051 70.6284 22.7461C71.5916 21.7872 72.3496 20.642 72.8562 19.3803C73.4046 18.0177 73.6793 16.5602 73.6644 15.0912V10.8477C73.6775 9.38189 73.4029 7.92779 72.8562 6.56789C72.3464 5.30516 71.5885 4.15769 70.6274 3.19346ZM69.3747 15.0903C69.3858 15.9805 69.2303 16.8648 68.9163 17.6977C68.6263 18.454 68.1802 19.1407 67.6071 19.7127C67.0296 20.2796 66.3421 20.7221 65.587 21.0127C64.7606 21.3272 63.8823 21.4832 62.9982 21.4724H58.1889V4.46653H63.0038C63.8879 4.45598 64.7661 4.6119 65.5926 4.92617C66.3475 5.21702 67.035 5.65944 67.6127 6.22617C68.187 6.80088 68.6332 7.49077 68.9219 8.25046C69.2344 9.0812 69.3899 9.96285 69.3803 10.8505L69.3747 15.0903Z" fill="#002AC1"/>
<path d="M95.1584 15.8829C94.9543 15.2073 94.6493 14.5664 94.2537 13.9821C93.8889 13.4487 93.4478 12.9719 92.9445 12.5669C92.4636 12.1809 91.9395 11.8522 91.3828 11.5873C90.856 11.3353 90.3026 11.1431 89.733 11.0144C89.2173 10.8947 88.6912 10.8263 88.1621 10.8101H83.8149C83.4013 10.832 82.9876 10.7673 82.6005 10.62C82.2133 10.4727 81.8612 10.2462 81.5666 9.95485C81.005 9.32589 80.7137 8.50088 80.7556 7.6585C80.7187 6.8151 81.0081 5.98993 81.5638 5.35471C81.8542 5.055 82.2053 4.82095 82.5936 4.66832C82.9818 4.51568 83.3983 4.44799 83.8149 4.46978H93.1189V0.181641H83.8149C82.9991 0.194527 82.1898 0.328782 81.4135 0.579998C80.5042 0.861411 79.6616 1.32515 78.9372 1.94297C78.2128 2.56078 77.6217 3.31973 77.1999 4.17357C76.6836 5.2604 76.4339 6.45479 76.4715 7.65757C76.4342 8.86341 76.6842 10.0608 77.2008 11.1509C77.6386 12.041 78.2612 12.8273 79.0269 13.4574C79.7346 14.0306 80.5444 14.4645 81.4135 14.7361C82.1898 14.9873 82.9991 15.1215 83.8149 15.1344H88.1287C88.5619 15.1297 88.992 15.2089 89.3952 15.3675C89.7674 15.5163 90.1028 15.7444 90.3779 16.0361C90.6485 16.3302 90.8579 16.6752 90.994 17.051C91.1383 17.4591 91.2103 17.8893 91.2065 18.3222C91.2454 19.1614 90.9542 19.9823 90.3955 20.6093C90.0994 20.9044 89.7445 21.1338 89.354 21.2828C88.9634 21.4317 88.546 21.4968 88.1287 21.4738H77.2342V25.7601H88.1287C88.6592 25.7556 89.1878 25.6962 89.7061 25.5827C90.2742 25.4617 90.8271 25.2783 91.355 25.0358C91.9133 24.7781 92.4406 24.4578 92.9268 24.0812C93.4362 23.6869 93.8791 23.2135 94.2389 22.6791C94.6324 22.0893 94.9378 21.4452 95.1454 20.7671C95.3838 19.9738 95.4996 19.1487 95.4888 18.3204C95.4997 17.495 95.3868 16.6728 95.1538 15.881" fill="#002AC1"/>
<path d="M46.9526 2.02537C45.1308 0.645813 42.8759 -0.0359841 40.5955 0.103229H28.2211C28.2771 1.06372 28.6972 1.96662 29.3958 2.6277C30.0943 3.28878 31.0186 3.6582 31.98 3.66059H39.9729C41.2046 3.57237 42.43 3.90283 43.4507 4.59844C43.8357 4.90376 44.1437 5.29536 44.3496 5.74167C44.5556 6.18798 44.6539 6.67649 44.6365 7.1678C44.6444 7.71696 44.5224 8.26021 44.2805 8.75321C44.0386 9.24621 43.6837 9.67499 43.2447 10.0046C42.0453 10.8125 40.6107 11.1965 39.1684 11.0957H36.8487C39.6239 11.1918 42.3697 11.6971 44.9975 12.5953L45.2239 12.5322C45.3937 12.4857 45.557 12.4291 45.7185 12.3669C45.7955 12.4022 45.879 12.4337 45.9532 12.4709C46.8016 11.998 47.5315 11.3381 48.0874 10.5413C48.84 9.50653 49.2328 8.2533 49.2055 6.97373C49.2299 6.03326 49.0405 5.09953 48.6517 4.24298C48.2629 3.38643 47.6847 2.62943 46.9609 2.02909" fill="#00BE6E"/>
<path d="M33.7004 14.2552C33.1483 14.109 32.6179 13.8904 32.1229 13.6052C31.9141 13.4856 31.7141 13.3512 31.5244 13.2031C31.0288 13.6254 30.6333 14.1528 30.3667 14.7471C30.1001 15.3414 29.9691 15.9876 29.9832 16.6388V21.2418H32.1174C32.7348 21.2364 33.3248 20.9861 33.758 20.5458C34.1911 20.1055 34.432 19.5113 34.4278 18.8934V15.9907C34.4322 15.5679 34.604 15.1641 34.9057 14.8681C35.1288 14.6734 35.4171 14.5702 35.713 14.5793H35.932C35.1784 14.5551 34.4299 14.4467 33.7004 14.2561" fill="#00BE6E"/>
<path d="M48.6184 14.6313C47.8951 13.7266 46.9831 12.991 45.946 12.4761C43.514 13.9098 40.1169 14.3713 37.9169 14.5189C33.0324 14.3332 32.1444 13.5987 32.1444 13.5987L32.1268 13.608C32.6219 13.8929 33.1522 14.1115 33.7042 14.258C34.4344 14.4486 35.1835 14.557 35.9377 14.5811H36.6392C36.4183 14.5858 36.2235 14.5886 36.0824 14.5886C36.3719 14.5941 36.5464 14.5886 36.5464 14.5886H40.2144C44.6163 14.5886 45.0292 16.8784 45.0292 16.8784H38.9051C38.8202 16.8784 38.7388 16.9122 38.6787 16.9723C38.6187 17.0323 38.585 17.1138 38.585 17.1988C38.585 17.2838 38.6187 17.3652 38.6787 17.4253C38.7388 17.4854 38.8202 17.5191 38.9051 17.5191H45.2148C45.3115 18.0904 45.3171 18.6733 45.2315 19.2463H37.0818C37.0382 19.2439 36.9947 19.2505 36.9537 19.2656C36.9128 19.2806 36.8754 19.3039 36.8437 19.3339C36.812 19.3639 36.7868 19.4001 36.7696 19.4402C36.7524 19.4803 36.7435 19.5235 36.7435 19.5671C36.7435 19.6108 36.7524 19.6539 36.7696 19.694C36.7868 19.7341 36.812 19.7703 36.8437 19.8003C36.8754 19.8303 36.9128 19.8536 36.9537 19.8687C36.9947 19.8837 37.0382 19.8903 37.0818 19.8879H45.0617C45.0617 19.8879 44.6052 22.2094 40.3981 22.2094H31.9783C31.0163 22.2108 30.0911 22.5798 29.3917 23.241C28.6924 23.9021 28.2717 24.8056 28.2157 25.7667H41.9069C44.0276 25.8898 46.1162 25.2047 47.7526 23.8492C48.4364 23.2314 48.9779 22.4723 49.3398 21.6245C49.7017 20.7768 49.8754 19.8604 49.8488 18.9389C49.997 17.3995 49.5556 15.8612 48.6137 14.635" fill="#008CFF"/>
<path d="M31.3475 13.0642C31.4032 13.1134 31.4663 13.1515 31.5248 13.1988C33.8631 11.1393 38.0395 11.0966 38.0794 11.0947C37.3371 11.0687 36.8574 11.0706 36.837 11.0706C36.5376 11.0969 36.236 11.0617 35.9508 10.9671C35.6655 10.8724 35.4026 10.7205 35.1782 10.5204C34.9538 10.3204 34.7727 10.0765 34.6459 9.80387C34.5192 9.53119 34.4495 9.23546 34.4412 8.93484H39.823C39.905 8.93042 39.9822 8.8947 40.0388 8.83502C40.0953 8.77533 40.1268 8.69624 40.1268 8.61402C40.1268 8.5318 40.0953 8.45271 40.0388 8.39303C39.9822 8.33335 39.905 8.29762 39.823 8.2932H34.4282V6.55306H41.8337C41.9158 6.54864 41.993 6.51291 42.0495 6.45323C42.106 6.39355 42.1375 6.31446 42.1375 6.23223C42.1375 6.15001 42.106 6.07092 42.0495 6.01124C41.993 5.95156 41.9158 5.91583 41.8337 5.91141H34.289L34.2834 5.89563C34.1406 5.55176 33.899 5.25802 33.5893 5.05157C33.2796 4.84512 32.9157 4.73525 32.5436 4.73584H29.9835V9.6712C29.9353 10.3035 30.0333 10.9383 30.2698 11.5266C30.5064 12.1148 30.8751 12.6407 31.3475 13.0633" fill="#008CFF"/>
<path d="M36.0744 14.5764L35.9343 14.5718H35.7153C35.7153 14.5718 35.8462 14.5718 36.0744 14.5718" fill="#0096FF"/>
<path d="M45.3113 12.192C44.5015 11.9004 43.6661 11.6859 42.8161 11.5512C41.2502 11.2973 39.6695 11.1457 38.0839 11.0972C38.044 11.0972 33.8675 11.1417 31.5292 13.1995C32.1748 13.6943 32.9141 14.0528 33.7023 14.2534C34.4779 14.4552 35.2746 14.5646 36.0759 14.5793C37.4677 14.5793 42.6176 14.4354 45.9478 12.4724C45.7446 12.3721 45.534 12.2774 45.3122 12.1938" fill="#0264C8"/>
<path d="M25.9495 10.8296H17.3812V15.1168H25.9495V10.8296Z" fill="#002AC1"/>
</g>
</g>
<defs>
<clipPath id="clip0_2458_413">
<rect width="296" height="26" fill="white"/>
</clipPath>
</defs>
</svg>
