<svg width="91" height="36" viewBox="0 0 91 36" fill="none" xmlns="http://www.w3.org/2000/svg">
<g clip-path="url(#clip0_2361_1843)">
<path d="M47.8701 4.9834V21.8349H48.6862C49.5896 21.8349 50.3309 21.1618 50.3309 20.3343V4.9834H47.8763H47.8701Z" fill="#5C2B0D"/>
<path d="M12.597 8.41636H9.17676V10.028H12.597V14.4308H13.4131C14.3164 14.4308 15.0578 13.7577 15.0578 12.9364V4.98926H12.6032V8.42253L12.597 8.41636Z" fill="#5C2B0D"/>
<path d="M42.338 5.10693H39.8834V9.52203C39.8834 9.78755 39.846 10.9731 39.3414 11.9611C38.8243 12.9677 37.9521 13.9803 35.6533 15.0486L36.7062 16.4442C38.6748 15.7773 40.2634 14.5855 41.1045 13.4431C41.9455 14.5855 43.5341 15.7834 45.509 16.4442L46.5619 15.0486C44.263 13.9742 43.3908 12.9677 42.8738 11.9611C42.3691 10.9731 42.3318 9.78755 42.3318 9.52203V5.10693H42.338Z" fill="#5C2B0D"/>
<path d="M17.8676 16.3761H24.8388V21.9892H25.6923C26.6455 21.9892 27.418 21.3161 27.418 20.4887V16.37H34.383V14.7583H17.8613V16.37L17.8676 16.3761Z" fill="#5C2B0D"/>
<path d="M27.3801 6.98422H32.0774V5.37256H20.1036V6.98422H24.8009V7.09537C24.7947 7.26827 24.7511 8.37976 24.0471 9.26278C23.3369 10.1458 21.9975 11.1708 19.1006 11.671L19.9416 13.3815C22.9943 12.8072 24.9941 11.6834 26.0968 10.4051C27.1994 11.6834 29.1992 12.8072 32.2519 13.3815L33.0929 11.671C30.196 11.1708 28.8566 10.1396 28.1464 9.26278C27.4362 8.37359 27.3988 7.26827 27.3926 7.09537V6.98422H27.3801Z" fill="#5C2B0D"/>
<path d="M9.9802 14.709C7.36365 14.709 5.23926 16.4071 5.23926 18.5004C5.23926 20.5937 7.36365 22.2918 9.9802 22.2918C12.5968 22.2918 14.7211 20.5937 14.7211 18.5004C14.7211 16.4071 12.5968 14.709 9.9802 14.709ZM9.9802 20.6863C8.78407 20.6863 7.81843 19.7107 7.81843 18.5066C7.81843 17.3025 8.7903 16.3206 9.9802 16.3206C11.1701 16.3206 12.142 17.2963 12.142 18.5066C12.142 19.7169 11.1763 20.6863 9.9802 20.6863Z" fill="#5C2B0D"/>
<path d="M9.96159 13.9864L10.9708 12.4365C8.59725 11.4485 7.70637 10.4975 7.21421 9.50954C6.77189 8.58947 6.71582 7.6941 6.70959 7.17541H10.1859V5.56374H6.70959V4.21143H4.25501V5.56374H0.778736V7.17541H4.24878C4.24878 7.6941 4.19272 8.5833 3.75039 9.50954C3.25823 10.5037 2.36736 11.4485 0 12.4365L1.00301 13.9864C3.29561 13.1281 4.75341 11.9301 5.4823 10.7322C6.2112 11.9239 7.66899 13.1281 9.96159 13.9864Z" fill="#5C2B0D"/>
<path d="M3.56937 31.3196C2.367 31.3196 1.40137 30.4922 1.40137 28.7755C1.40137 27.0589 2.367 26.2314 3.56937 26.2314C4.0553 26.2314 4.49762 26.3426 4.75305 26.497L4.42286 27.2688C4.27335 27.1639 3.99923 27.0712 3.7002 27.0712C2.99622 27.0712 2.49783 27.6579 2.49783 28.7694C2.49783 29.8808 2.99622 30.4613 3.7002 30.4613C3.99923 30.4613 4.27335 30.3748 4.42286 30.2699L4.75305 31.0541C4.49762 31.2085 4.06776 31.3196 3.56937 31.3196Z" fill="#5C2B0D"/>
<path d="M8.26068 31.233V29.1335H6.58484V31.233H5.51953V26.3115H6.58484V28.3431H8.26068V26.3115H9.32599V31.233H8.26068Z" fill="#5C2B0D"/>
<path d="M10.335 31.233V26.3115H13.2443V27.1143H11.3816V28.3431H13.0637V29.1335H11.3816V30.4302H13.2443V31.233H10.335Z" fill="#5C2B0D"/>
<path d="M15.8857 31.3196C14.4529 31.3196 13.7676 30.2081 13.7676 28.7755C13.7676 27.3429 14.4466 26.2314 15.8857 26.2314C17.3248 26.2314 17.9977 27.3368 17.9977 28.7755C17.9977 30.2143 17.3186 31.3196 15.8857 31.3196ZM15.8857 27.0774C15.1942 27.0774 14.8391 27.7567 14.8391 28.7694C14.8391 29.782 15.1942 30.4613 15.8857 30.4613C16.5773 30.4613 16.9324 29.782 16.9324 28.7694C16.9324 27.7567 16.5773 27.0774 15.8857 27.0774Z" fill="#5C2B0D"/>
<path d="M21.8729 31.233L19.9167 28.3122C19.7361 28.0405 19.5928 27.7318 19.5928 27.7318H19.5803C19.5803 27.7318 19.5928 28.0652 19.5928 28.374V31.233H18.6895V26.3115H19.599L21.5116 29.152C21.686 29.4175 21.8355 29.7325 21.8355 29.7325H21.848C21.848 29.7325 21.8355 29.3867 21.8355 29.0717V26.3115H22.7451V31.233H21.8729Z" fill="#5C2B0D"/>
<path d="M25.9281 31.3196C24.4018 31.3196 23.4424 30.3316 23.4424 28.7755C23.4424 27.2194 24.4641 26.2314 26.0153 26.2314C26.576 26.2314 27.1056 26.3488 27.3797 26.497L27.0495 27.2441C26.8377 27.133 26.4826 27.0465 26.0527 27.0465C25.193 27.0465 24.5077 27.5899 24.5077 28.7694C24.5077 29.9488 25.1494 30.5107 25.8533 30.5107C26.115 30.5107 26.3393 30.4798 26.4327 30.4366V29.0658H25.5917V28.3371H27.4295V31.0603C27.1367 31.2023 26.576 31.3258 25.9281 31.3258V31.3196Z" fill="#5C2B0D"/>
<path d="M27.6543 32.7275V31.9062C28.2274 31.7765 28.6075 31.4184 28.6075 30.6959V26.3179H29.6728V30.6959C29.6728 31.9494 28.9127 32.5855 27.6605 32.7275H27.6543Z" fill="#5C2B0D"/>
<path d="M32.5444 31.3012C31.4791 31.3012 30.6816 30.7516 30.6816 29.776V26.3057H31.747V29.7822C31.747 30.2144 32.1021 30.4738 32.5506 30.4738C32.9992 30.4738 33.3543 30.2144 33.3543 29.7822V26.3057H34.4196V29.776C34.4196 30.7516 33.6221 31.3012 32.5568 31.3012H32.5444Z" fill="#5C2B0D"/>
<path d="M39.2979 31.3196C38.1017 31.3196 37.1299 30.486 37.1299 28.7755C37.1299 27.0651 38.0955 26.2314 39.2979 26.2314C39.7838 26.2314 40.2261 26.3426 40.4816 26.497L40.1514 27.2627C40.0019 27.1577 39.7277 27.0651 39.4287 27.0651C38.7247 27.0651 38.2263 27.6517 38.2263 28.7632C38.2263 29.8747 38.7247 30.4551 39.4287 30.4551C39.734 30.4551 40.0019 30.3687 40.1514 30.2637L40.4816 31.0479C40.2261 31.2023 39.7963 31.3134 39.2979 31.3134V31.3196Z" fill="#5C2B0D"/>
<path d="M41.248 31.233V26.3115H42.3134V31.233H41.248Z" fill="#5C2B0D"/>
<path d="M45.1417 27.1143V31.2391H44.0764V27.1143H42.9238V26.3115H46.288V27.1143H45.1417Z" fill="#5C2B0D"/>
<path d="M49.1284 29.3005V31.2333H48.0631V29.3005L46.4434 26.3057H47.5897L48.5864 28.3311H48.6051L49.6081 26.3057H50.7544L49.1284 29.3005Z" fill="#5C2B0D"/>
<path d="M81.213 0C80.3844 0 79.5559 0.0555746 78.7273 0.135849V8.68199C79.6119 8.55232 80.5028 8.48439 81.3937 8.48439C81.7363 8.48439 82.079 8.49057 82.4216 8.51527C82.4403 8.86106 82.4528 9.20069 82.4528 9.54648C82.4528 14.1592 80.6897 18.7286 77.1449 22.2484C74.8648 24.5022 72.1485 26.0274 69.2641 26.8302V35.5369C74.3664 34.5859 79.2568 32.153 83.2004 28.2443C88.4023 23.0882 91.0126 16.2957 91.0064 9.54031V0H81.2192H81.213ZM54.6924 36H64.3487C65.2022 36 66.0557 35.9568 66.9092 35.8765V27.3304C66.0557 27.4539 65.1897 27.5156 64.33 27.5156C63.9811 27.5156 63.6323 27.5033 63.2896 27.4847C63.2709 27.1389 63.2585 26.7931 63.2585 26.4535C63.2585 21.8408 65.0215 17.2714 68.5663 13.7516C70.8278 11.5101 73.5191 9.99726 76.3786 9.18834V0.475472C71.3013 1.43259 66.4357 3.85935 62.5171 7.74957C57.3525 12.8624 54.7298 19.587 54.6986 26.2868V35.9938L54.6924 36Z" fill="#7FBE26"/>
</g>
<defs>
<clipPath id="clip0_2361_1843">
<rect width="91" height="36" fill="white"/>
</clipPath>
</defs>
</svg>
