<svg width="155" height="30" viewBox="0 0 155 30" fill="none" xmlns="http://www.w3.org/2000/svg">
<path d="M146.756 19.2779C146.424 20.3695 145.96 21.3283 145.355 22.147C144.787 22.9068 144.108 23.4599 143.326 23.8214C142.545 24.1828 141.733 24.3598 140.907 24.3598C140.081 24.3598 139.292 24.1901 138.525 23.8582C137.758 23.5263 137.064 22.9658 136.46 22.1839C135.869 21.4168 135.405 20.458 135.058 19.3147C134.719 18.1715 134.549 16.7406 134.549 15.0072C134.549 13.2739 134.726 11.8799 135.088 10.6703C135.442 9.46063 135.914 8.48702 136.496 7.75681C137.153 6.96023 137.831 6.40704 138.539 6.10463C139.248 5.79485 140.037 5.63995 140.907 5.63995C141.726 5.63995 142.515 5.8096 143.282 6.14151C144.042 6.47342 144.728 7.02661 145.333 7.80107C145.915 8.56078 146.38 9.52701 146.727 10.7071C147.073 11.8873 147.243 13.3182 147.243 14.9925C147.243 16.7553 147.081 18.1862 146.749 19.2779H146.756ZM150.901 4.23117C148.467 1.60538 145.126 0.29248 140.885 0.29248C136.644 0.29248 133.295 1.61275 130.869 4.24592C128.442 6.87909 127.232 10.4711 127.232 15.0072C127.232 19.5434 128.442 23.0838 130.869 25.7317C133.288 28.3796 136.629 29.7073 140.885 29.7073C145.141 29.7073 148.46 28.4017 150.901 25.7833C153.335 23.1649 154.552 19.5803 154.552 15.0146C154.552 10.449 153.335 6.85696 150.901 4.23117Z" fill="#187FC4"/>
<path d="M24.7531 29.11H16.1677L8.47477 17.6628L7.0955 19.5805V29.11H0V0.890137H7.0955V13.4512L16.1308 0.890137H24.3253L14.2574 13.9822L24.7457 29.1027L24.7531 29.11Z" fill="#187FC4"/>
<path d="M43.052 19.2779C42.7201 20.3695 42.2554 21.3283 41.6506 22.147C41.0827 22.9068 40.4041 23.4599 39.6223 23.8214C38.8404 24.1828 38.0291 24.3598 37.203 24.3598C36.3769 24.3598 35.5877 24.1901 34.8206 23.8582C34.0536 23.5263 33.3602 22.9658 32.7554 22.1839C32.1654 21.4168 31.6933 20.458 31.354 19.3147C31.0147 18.1715 30.8451 16.7406 30.8451 15.0072C30.8451 13.2739 31.0221 11.8799 31.3835 10.6703C31.7449 9.46063 32.2096 8.48702 32.7923 7.75681C33.4487 6.96023 34.1273 6.40704 34.8354 6.10463C35.5435 5.79485 36.3327 5.63995 37.203 5.63995C38.0217 5.63995 38.8109 5.8096 39.578 6.14151C40.3377 6.47342 41.0237 7.02661 41.6285 7.80107C42.2112 8.56078 42.6758 9.52701 43.0225 10.7071C43.3692 11.8873 43.5462 13.3182 43.5462 14.9925C43.5462 16.7553 43.3839 18.1862 43.052 19.2779ZM47.1972 4.23117C44.7632 1.60538 41.422 0.29248 37.1809 0.29248C32.9398 0.29248 29.5912 1.61275 27.1646 4.24592C24.7379 6.87909 23.5283 10.4711 23.5283 15.0072C23.5283 19.5434 24.7379 23.0838 27.1646 25.7317C29.5838 28.3796 32.9251 29.7073 37.1809 29.7073C41.4367 29.7073 44.7558 28.4017 47.1972 25.7833C49.6312 23.1649 50.8482 19.5803 50.8482 15.0146C50.8482 10.449 49.6312 6.85696 47.1972 4.23117Z" fill="#187FC4"/>
<path d="M95.0444 18.5184L91.6294 17.7218C90.4493 17.4784 89.3208 17.1096 88.2956 16.7482C86.0017 15.9442 84.3348 14.8526 83.3243 13.5175C83.3096 13.4954 83.2874 13.4733 83.2727 13.4512C82.2769 12.0866 81.768 10.7295 81.768 8.65688C81.768 6.7908 82.2843 5.19024 83.3243 3.81096V0.897513H75.1077L68.8825 14.8231L62.6279 0.890137H54.4629V29.1027H61.1306V10.405L66.2641 22.4792H71.0953L76.2288 10.405V29.1027H83.3243V22.7373C84.4823 23.5192 85.7141 24.1609 86.9974 24.6403C88.9078 25.3557 90.796 25.7172 92.5957 25.7172C93.0603 25.7172 93.6725 25.6655 94.4101 25.5696C95.1846 25.4664 95.7894 25.3115 96.2835 25.0828C96.8662 24.8321 97.3604 24.478 97.7734 24.0207C98.2086 23.5339 98.3856 22.8996 98.4225 22.1251C98.4815 20.9966 98.0611 19.3592 95.0518 18.511L95.0444 18.5184Z" fill="#187FC4"/>
<path d="M111.049 7.79369C111.816 6.9971 112.627 6.44392 113.483 6.11938C114.339 5.80222 115.275 5.63995 116.3 5.63995C117.156 5.63995 117.982 5.78009 118.771 6.06037C119.561 6.34066 120.283 6.67994 120.947 7.07086C121.604 7.46916 122.194 7.87483 122.71 8.28787C123.226 8.70829 123.654 9.06234 124.001 9.35737H124.724V2.63799C124.259 2.39459 123.639 2.11431 122.88 1.78977C122.12 1.46524 121.419 1.20708 120.778 1.01531C119.951 0.786661 119.096 0.617017 118.196 0.484252C117.296 0.358863 116.286 0.29248 115.165 0.29248C110.931 0.29248 107.568 1.6275 105.075 4.29018C104.861 4.51883 104.654 4.76223 104.462 5.00563C103.968 5.61045 103.54 6.25952 103.164 6.95285C102.227 6.31853 101.165 5.76534 100 5.29329C98.2962 4.60734 96.526 4.26067 94.7337 4.26067C94.0404 4.26067 93.3987 4.3123 92.8308 4.40819C92.2628 4.50408 91.658 4.70322 91.0311 4.99088C90.5 5.22691 90.028 5.58832 89.6444 6.06037C89.2387 6.55455 89.0322 7.11512 89.0322 7.72731C89.0322 8.61979 89.3568 9.34999 90.0058 9.88105C90.618 10.3826 91.7318 10.8178 93.4208 11.2087L96.4449 11.8947C97.3964 12.1159 98.429 12.4183 99.5132 12.8019C100.192 13.0453 100.811 13.3256 101.379 13.6206C102.559 14.2475 103.503 14.9777 104.182 15.826C105.178 17.0725 105.687 18.7468 105.687 20.812C105.687 22.5011 105.325 23.9836 104.58 25.2818C104.735 25.4662 104.898 25.6432 105.067 25.8128C107.553 28.3796 110.916 29.6556 115.15 29.6556C116.5 29.6556 117.562 29.5893 118.329 29.4491C119.103 29.309 119.929 29.1098 120.814 28.8443C121.537 28.6304 122.238 28.3649 122.917 28.0551C123.595 27.7453 124.2 27.4724 124.716 27.229V20.5907H124.067C123.713 20.9005 123.3 21.2546 122.813 21.6529C122.334 22.0512 121.773 22.4421 121.146 22.833C120.564 23.2092 119.848 23.5411 119.007 23.8509C118.159 24.1533 117.267 24.3082 116.337 24.3082C115.408 24.3082 114.538 24.1533 113.638 23.8361C112.731 23.5189 111.912 23.01 111.182 22.3093C110.422 21.5791 109.81 20.6203 109.345 19.4254C108.88 18.2379 108.644 16.7627 108.644 15.0146C108.644 13.2666 108.866 11.9094 109.316 10.685C109.766 9.46063 110.341 8.4944 111.049 7.77894V7.79369Z" fill="#187FC4"/>
</svg>
