<svg width="159" height="40" viewBox="0 0 159 40" fill="none" xmlns="http://www.w3.org/2000/svg">
<g clip-path="url(#clip0_2361_1923)">
<path d="M41.4281 19.9794C41.4281 31.0423 32.1506 39.9587 20.7354 39.9587C9.27749 40 0 31.0423 0 19.9794C0 8.95769 9.27749 0 20.6927 0C32.1506 0 41.4281 8.95769 41.4281 19.9794Z" fill="white"/>
<path d="M30.4404 18.6173C27.1484 16.4708 22.9158 17.3377 20.6926 20.5987C18.8542 23.3232 16.0752 23.6534 14.9637 23.6534C11.4579 23.6534 9.02093 21.2592 8.29412 18.7824C8.29412 18.7412 8.29412 18.7412 8.29412 18.6999C8.29412 18.6586 8.29412 18.6586 8.25137 18.6173C7.95209 17.5853 7.90934 17.09 7.90934 15.9754C7.90934 10.0724 14.1941 3.46769 23.2578 3.46769C32.5353 3.46769 37.8367 10.2788 39.2049 14.0766C39.1621 13.994 39.1621 13.9527 39.1193 13.8702C36.4686 6.43982 29.2005 1.11475 20.6499 1.11475C9.91875 1.15603 1.1543 9.57708 1.1543 19.9796C1.1543 29.3088 8.12311 37.2757 17.7854 37.2757C25.481 37.2757 30.6542 33.1065 33.0056 27.3686C34.2882 24.2314 33.3904 20.5575 30.4404 18.6173Z" fill="#003964"/>
<path d="M39.3759 14.4482C38.2216 10.733 32.8774 3.46777 23.3006 3.46777C14.2369 3.46777 7.95215 10.0725 7.95215 15.9755C7.95215 17.0901 8.03765 17.5854 8.29418 18.6174C8.16592 18.1633 8.12316 17.7093 8.12316 17.2552C8.12316 11.1045 14.4934 6.81143 21.0775 6.81143C29.9702 6.81143 37.1955 13.7877 37.1955 22.3739C37.1955 29.1024 33.1767 34.9229 27.3622 37.7299C34.8868 35.088 40.231 28.153 40.231 19.9796C40.231 18.0808 39.9745 16.347 39.3759 14.4482Z" fill="#ED193A"/>
<path d="M61.5221 27.4927H58.9142V13.2512H50.791V10.9808H61.5221V27.4927ZM66.8236 9.70117H69.4315V30.1346H66.8236V9.70117Z" fill="#595757"/>
<path d="M86.3621 11.187V13.2923H83.8396C84.5237 14.0766 84.8657 14.9435 84.8657 15.8516C84.8657 16.4295 84.7374 16.9662 84.4809 17.5028C84.2244 17.9982 83.8396 18.4523 83.4121 18.865C82.7708 19.4017 82.044 19.7732 81.2317 19.9383V20.929H87.0034V23.0343H72.9375V20.929H78.6237V19.9383C77.7259 19.6906 76.9991 19.3191 76.4005 18.8238C75.9302 18.4523 75.5882 17.9982 75.3317 17.4615C75.0752 16.9662 74.9469 16.3883 74.9469 15.8104C74.9469 14.9022 75.2889 14.0353 75.973 13.251H73.365V11.1458H78.4527V9.12305H81.3172V11.1458H86.3621V11.187ZM91.3215 24.3965V30.1757H88.7135V26.4605H74.2629V24.3552L91.3215 24.3965ZM82.3433 15.8104C82.3433 15.1912 82.0867 14.6545 81.6592 14.2417C81.1889 13.7876 80.6331 13.5813 79.9491 13.5813C79.265 13.5813 78.7092 13.7876 78.2389 14.2417C77.7686 14.6958 77.5549 15.2324 77.5549 15.8104C77.5549 16.4295 77.7686 16.9662 78.2389 17.379C78.7092 17.8331 79.265 18.0395 79.9491 18.0395C80.6331 18.0395 81.1889 17.8331 81.6592 17.379C82.0867 16.9249 82.3433 16.3883 82.3433 15.8104ZM88.7135 9.70096H91.3215V23.2407H88.7135V9.70096Z" fill="#595757"/>
<path d="M94.9981 13.2099V10.9808H105.344V13.2099H101.069L105.815 26.8735L103.592 27.534L100.299 17.7507L96.9647 27.7404L94.6133 27.0386L99.4017 13.2099H94.9981ZM111.672 9.70117H114.194V30.1346H111.672V20.5577H109.235V30.0521H106.798V9.74245H109.235V18.2048H111.672V9.70117Z" fill="#595757"/>
<path d="M117.315 12.5082V10.3204H129.457V12.5082H124.284L129.671 18.8653L127.833 20.31L123.514 15.1088L119.196 20.6403L117.272 19.1542L122.659 12.5082H117.315ZM134.16 25.8002C134.16 26.502 134.032 27.1212 133.733 27.7404C133.433 28.3596 133.048 28.8549 132.578 29.309C132.065 29.7631 131.467 30.1346 130.825 30.3823C130.141 30.63 129.457 30.7951 128.688 30.7951C127.961 30.7951 127.234 30.6712 126.55 30.3823C125.866 30.1346 125.267 29.7631 124.754 29.309C124.284 28.8549 123.899 28.3183 123.6 27.7404C123.301 27.1212 123.172 26.502 123.172 25.8002C123.172 25.0985 123.301 24.4793 123.6 23.8601C123.899 23.2409 124.284 22.7043 124.754 22.2502C125.267 21.7961 125.866 21.4246 126.55 21.1769C127.234 20.9292 127.961 20.7641 128.688 20.7641C129.414 20.7641 130.141 20.888 130.825 21.1769C131.509 21.4246 132.065 21.7961 132.578 22.2502C133.048 22.7043 133.433 23.2409 133.733 23.8601C133.989 24.4793 134.16 25.1398 134.16 25.8002ZM131.552 25.8002C131.552 25.0159 131.253 24.3555 130.697 23.8188C130.099 23.2822 129.414 22.9932 128.645 22.9932C127.833 22.9932 127.149 23.2822 126.593 23.8188C126.037 24.3555 125.738 25.0159 125.738 25.8002C125.738 26.5846 126.037 27.245 126.593 27.7817C127.149 28.3183 127.833 28.6073 128.645 28.6073C129.457 28.6073 130.141 28.3183 130.697 27.7817C131.253 27.2038 131.552 26.5433 131.552 25.8002ZM133.305 20.5577V16.1408H129.372V13.953H133.305V9.70117H135.913V20.5577H133.305Z" fill="#595757"/>
<path d="M139.547 22.6628H159V24.9332H150.577V30.1757H147.927V24.8919H139.547V22.6628ZM143.737 12.6319H154.853V10.0312H157.461V19.8558H141.129V10.0725H143.737V12.6319ZM154.853 14.861H143.737V17.668H154.853V14.861Z" fill="#595757"/>
</g>
<defs>
<clipPath id="clip0_2361_1923">
<rect width="159" height="40" fill="white"/>
</clipPath>
</defs>
</svg>
