<svg width="143" height="42" viewBox="0 0 143 42" fill="none" xmlns="http://www.w3.org/2000/svg">
<g clip-path="url(#clip0_2361_1950)">
<path d="M17.5723 4.79518C17.5723 2.45518 19.4423 0.555176 21.7523 0.555176C24.0623 0.555176 25.9323 2.45518 25.9323 4.79518C25.9323 7.13518 24.0623 9.03518 21.7523 9.03518C19.4423 9.03518 17.5723 7.13518 17.5723 4.79518Z" fill="#D8202A"/>
<path d="M3.90273 8.32523C3.90273 8.32523 3.14273 5.21523 0.552734 6.27523C0.552734 6.27523 3.17273 6.75523 2.38273 10.3452C1.59273 13.9352 3.93273 15.3752 4.66273 15.3152C4.66273 15.3152 4.94273 9.69523 9.56273 9.25523C13.9827 8.83523 16.0027 13.6752 15.6227 15.1252C15.6227 15.1252 18.3127 10.3152 13.4727 6.72523C8.59273 3.09523 4.09273 7.88523 3.90273 8.32523Z" fill="#FABE00"/>
<path d="M15.5229 15.2751C15.5229 15.2751 6.98286 27.0751 23.8729 41.3951C23.8729 41.3951 13.5129 37.7651 9.59286 30.1051C5.82286 22.7351 10.5229 16.1251 15.5229 15.2651V15.2751Z" fill="#FABE00"/>
<path d="M24.0929 41.445C24.0929 41.445 18.4229 35.425 17.0129 28.575C15.6629 22.035 17.4729 15.665 22.6129 12.885C22.6129 12.885 27.3929 9.77498 35.6729 11.555C42.2029 12.965 52.8129 15.055 58.5829 8.60498C58.5829 8.60498 57.4029 17.325 47.0429 19.845C47.0429 19.845 43.5029 20.615 38.7829 20.145C34.0629 19.675 26.8629 17.405 22.7729 21.595C18.6929 25.785 21.1329 35.445 24.0829 41.435L24.0929 41.445Z" fill="#004098"/>
<path d="M24.0932 41.2251C24.0932 41.2251 23.3032 32.4351 28.3032 28.8751C32.9832 25.5451 40.0532 30.7951 46.3732 24.2151C46.3732 24.2151 43.8632 25.2551 38.7932 24.5151C34.3932 23.8751 27.5232 21.0951 24.1732 26.3951C20.9832 31.4551 24.0932 41.2251 24.0932 41.2251Z" fill="#004098"/>
<path d="M83.8423 10.5451L85.3423 12.0451V13.0451H73.9223V10.4751H68.5723L69.8423 12.4751V18.1051L71.4623 19.9251H89.1923V10.5351H83.8423V10.5451ZM85.3423 17.8051H73.8623V15.3651H85.3423V17.8051Z" fill="#4C4948"/>
<path d="M90.5727 22.6152H68.5127V24.8052H77.6527V30.9952H81.9227V24.8052H90.5727V22.6152Z" fill="#4C4948"/>
<path d="M110.942 10.6152L112.512 12.3652V14.9252H107.662C106.482 12.5152 104.122 10.8652 101.392 10.8652C97.4825 10.8652 94.3125 14.2652 94.3125 18.4652C94.3125 22.6652 97.4825 26.0652 101.392 26.0652C103.822 26.0652 105.963 24.7452 107.243 22.7452H112.502V30.9352H116.222V10.6152H110.932H110.942ZM101.603 24.3652C99.5625 24.3652 97.9025 21.7652 97.9025 18.5552C97.9025 15.3452 99.5525 12.7352 101.603 12.7352C103.653 12.7352 105.302 15.3352 105.302 18.5552C105.302 21.7752 103.653 24.3652 101.603 24.3652ZM108.132 20.8052C108.362 20.0652 108.482 19.2752 108.482 18.4552C108.482 17.7752 108.392 17.1152 108.232 16.4852H112.512V20.8052H108.132Z" fill="#4C4948"/>
<path d="M122.113 13.1749V10.7349H140.033L141.523 12.3049V17.9249H137.683V13.1749H122.113Z" fill="#4C4948"/>
<path d="M142.493 18.9946H120.913V21.0546H129.573V24.6846H133.423V21.0546H142.493V18.9946Z" fill="#4C4948"/>
<path d="M120.973 23.4946H126.203V28.7446H141.353V30.9346H124.343L122.353 29.1846V25.1146L120.973 23.4946Z" fill="#4C4948"/>
</g>
<defs>
<clipPath id="clip0_2361_1950">
<rect width="141.94" height="40.89" fill="white" transform="translate(0.552734 0.555176)"/>
</clipPath>
</defs>
</svg>
