<svg width="213" height="42" viewBox="0 0 213 42" fill="none" xmlns="http://www.w3.org/2000/svg">
<g clip-path="url(#clip0_2361_1869)">
<path d="M162.308 28.7192H160.243V40.5931H162.308V28.7192Z" fill="#9FA0A0"/>
<path d="M153.752 37.4424H152.794L155.271 28.835H156.945L159.395 37.4424H157.281L155.536 31.191L153.752 37.4424Z" fill="#9FA0A0"/>
<path d="M145.681 35.7925H147.784V39.0644H151.732V39.8976H142.004V39.0092H145.681V35.7925Z" fill="#9FA0A0"/>
<path d="M150.773 28.835V29.6626H145.158V34.5291H150.773V35.3899H143.798C143.798 35.3899 143.011 35.1968 143.011 34.4629V28.8405H150.773V28.835Z" fill="#9FA0A0"/>
<path d="M112.721 35.5166C110.552 35.5166 108.79 36.6643 108.79 38.0768C108.79 39.4893 110.552 40.6369 112.721 40.6369C114.89 40.6369 116.652 39.4893 116.652 38.0768C116.652 36.6643 114.89 35.5166 112.721 35.5166ZM112.809 39.9803C111.785 39.9803 110.959 39.103 110.959 38.0216C110.959 36.9401 111.79 36.0628 112.809 36.0628C113.827 36.0628 114.659 36.9401 114.659 38.0216C114.659 39.103 113.827 39.9803 112.809 39.9803Z" fill="#1F2A66"/>
<path d="M124.745 35.583C122.609 35.583 120.88 36.7141 120.88 38.1156C120.88 39.5171 122.609 40.6482 124.745 40.6482C126.881 40.6482 128.609 39.5171 128.609 38.1156C128.609 36.7141 126.881 35.583 124.745 35.583ZM124.827 39.953C123.82 39.953 123.005 39.1308 123.005 38.1156C123.005 37.1004 123.82 36.2782 124.827 36.2782C125.835 36.2782 126.649 37.1004 126.649 38.1156C126.649 39.1308 125.835 39.953 124.827 39.953Z" fill="#9FA0A0"/>
<path d="M125.62 34.6782H123.754V36.0024H125.62V34.6782Z" fill="#9FA0A0"/>
<path d="M126.776 33.1661L124.128 29.5024H126.38L129.017 33.1661H126.776Z" fill="#9FA0A0"/>
<path d="M120.61 33.1661L123.391 29.5576H124.222L121.535 33.1661H120.61Z" fill="#9FA0A0"/>
<path d="M128.686 28.7358H120.924V29.6628H128.686V28.7358Z" fill="#9FA0A0"/>
<path d="M129.573 33.9829H119.834V34.783H129.573V33.9829Z" fill="#9FA0A0"/>
<path d="M91.6744 35.6108H89.5273V40.6153H91.6744V35.6108Z" fill="#1F2A66"/>
<path d="M138.513 28.7355L138.541 35.6491H132.826V39.9473C132.98 40.5156 133.41 40.5708 133.41 40.5708H140.506V28.73H138.513V28.7355ZM138.458 39.7873H134.83V36.4877H138.458V39.7873Z" fill="#9FA0A0"/>
<path d="M133.492 28.835L131.048 34.8216H132L133.701 30.5068L135.414 34.8216H137.588L135.105 28.835H133.492Z" fill="#9FA0A0"/>
<path d="M93.2212 33.8064H95.4674L92.2798 29.4641H94.9003V28.5371H86.4552V29.4641H89.0867L85.8496 33.8064H86.7745L89.9235 29.4641H90.0226L93.2212 33.8064Z" fill="#1F2A66"/>
<path d="M168.038 39.1033V37.2715H188.865V39.1033H168.038Z" fill="#1F2A66"/>
<path d="M177.838 38.0662V26.7109H173.67V38.0662H177.838Z" fill="#1F2A66"/>
<path d="M117.621 34.6838V33.812H107.673V34.6838H117.621Z" fill="#1F2A66"/>
<path d="M107.414 32.2559V30.9868H105.421V32.2559H107.414Z" fill="#1F2A66"/>
<path d="M112.578 34.187V30.9868H110.585V34.187H112.578Z" fill="#1F2A66"/>
<path d="M185.584 15.8354H170.004V17.5128H182.633V32.2007H187.037V17.2314C187.037 15.8741 185.584 15.8354 185.584 15.8354Z" fill="#1F2A66"/>
<path d="M116.068 28.6641H108.636V29.4641H114.664V33.3926H116.767V29.3317C116.767 28.6861 116.073 28.6641 116.073 28.6641H116.068Z" fill="#1F2A66"/>
<path d="M106.037 37.8399V28.3496H104.044V37.8399H106.037Z" fill="#1F2A66"/>
<path d="M95.5889 34.9209H85.6133V35.8479H95.5889V34.9209Z" fill="#1F2A66"/>
<path d="M80.609 35.6108H78.4619V40.6153H80.609V35.6108Z" fill="#1F2A66"/>
<path d="M84.5176 34.9209H74.542V35.8479H84.5176V34.9209Z" fill="#1F2A66"/>
<path d="M79.3696 28.6421C76.9913 28.6421 75.0645 29.8615 75.0645 31.3623C75.0645 32.8631 76.9913 34.0824 79.3696 34.0824C81.7479 34.0824 83.6747 32.8631 83.6747 31.3623C83.6747 29.8615 81.7479 28.6421 79.3696 28.6421ZM80.4927 32.8962L79.3751 32.3168L78.263 32.9072L78.4722 31.6657L77.5694 30.7884L78.8136 30.6008L79.3641 29.4697L79.9256 30.5953L81.1698 30.7719L80.2725 31.6547L80.4927 32.8962Z" fill="#1F2A66"/>
<path d="M102.107 35.1416C99.9375 35.1416 98.1758 36.35 98.1758 37.8452C98.1758 39.3405 99.9375 40.5489 102.107 40.5489C104.276 40.5489 106.037 39.3405 106.037 37.8452C106.037 36.35 104.276 35.1416 102.107 35.1416ZM102.195 39.804C101.171 39.804 100.345 38.9267 100.345 37.8452C100.345 36.7638 101.176 35.8865 102.195 35.8865C103.213 35.8865 104.044 36.7638 104.044 37.8452C104.044 38.9267 103.213 39.804 102.195 39.804Z" fill="#1F2A66"/>
<path d="M203.757 14.0811H199.353V16.426H203.757V14.0811Z" fill="#1F2A66"/>
<path d="M212.147 28.3384H191.337V29.9716H212.147V28.3384Z" fill="#1F2A66"/>
<path d="M210.143 15.3442H193.341V16.9774H210.143V15.3442Z" fill="#1F2A66"/>
<path d="M201.39 17.9541C196.644 17.9541 192.796 20.1004 192.796 22.7434C192.796 25.3863 196.644 27.5327 201.39 27.5327C206.135 27.5327 209.983 25.3863 209.983 22.7434C209.983 20.1004 206.135 17.9541 201.39 17.9541ZM201.417 26.2195C199.072 26.2195 197.167 24.6635 197.167 22.7434C197.167 20.8233 199.072 19.2673 201.417 19.2673C203.762 19.2673 205.667 20.8233 205.667 22.7434C205.667 24.6635 203.762 26.2195 201.417 26.2195Z" fill="#1F2A66"/>
<path d="M100.962 28.0405H98.8643V29.2654H100.962V28.0405Z" fill="#1F2A66"/>
<path d="M103.164 28.835H96.8496V29.7619H103.164V28.835Z" fill="#1F2A66"/>
<path d="M99.916 29.9824C98.0497 29.9824 96.5303 31.1356 96.5303 32.5647C96.5303 33.9937 98.0442 35.1469 99.916 35.1469C101.788 35.1469 103.302 33.9937 103.302 32.5647C103.302 31.1356 101.788 29.9824 99.916 29.9824ZM99.9876 34.4351C99.1783 34.4351 98.5232 33.5965 98.5232 32.5647C98.5232 31.5329 99.1783 30.6942 99.9876 30.6942C100.797 30.6942 101.452 31.5329 101.452 32.5647C101.452 33.5965 100.797 34.4351 99.9876 34.4351Z" fill="#1F2A66"/>
<path d="M196.275 40.1572C197.712 41.2883 199.81 42.0001 202.15 42.0001C206.378 42.0001 209.818 39.6772 209.973 36.7749C208.315 37.4922 205.866 38.2702 202.353 39.1033C199.887 39.6882 197.883 40.0137 196.275 40.1627V40.1572Z" fill="#1F2A66"/>
<path d="M212.758 33.6353C212.053 32.747 209.416 32.9015 208.106 33.0394C208.381 33.2601 208.629 33.4974 208.849 33.7457C209.532 33.7898 209.801 33.9222 209.801 33.9222C209.801 33.9222 210.401 34.0988 209.504 34.6837C208.899 35.0754 207.616 35.6548 205.012 36.4934C200.641 37.8949 196.77 38.2922 194.7 38.2315C193.638 38.1984 193.049 38.0494 193.098 37.8563C193.208 37.448 193.919 37.0121 194.332 36.7914C194.332 36.7197 194.326 36.6424 194.326 36.5652C194.326 36.4438 194.332 36.3279 194.343 36.2065C191.006 37.1114 190.263 37.9501 190.324 38.8936C190.368 39.5998 191.838 40.5599 196.28 40.1571C197.893 40.0081 199.892 39.6826 202.358 39.0977C205.871 38.2646 208.326 37.4866 209.978 36.7693C212.967 35.4782 213.369 34.4023 212.758 33.6353Z" fill="#ABC824"/>
<path d="M208.849 33.7456C208.629 33.4973 208.381 33.26 208.106 33.0393C206.669 31.8751 204.533 31.1357 202.149 31.1357C197.998 31.1357 194.601 33.3759 194.337 36.2119C194.326 36.3278 194.32 36.4492 194.32 36.5706C194.32 36.6478 194.32 36.7196 194.326 36.7968C194.353 37.2989 194.48 37.7845 194.695 38.2424C196.77 38.3031 200.635 37.9058 205.006 36.5044C207.61 35.6712 208.893 35.0919 209.498 34.6946C209.322 34.3635 209.102 34.049 208.843 33.7566L208.849 33.7456Z" fill="#1F2A66"/>
<path d="M37.7278 33.5748V15.5378C36.3185 15.3612 34.8816 15.2729 33.4227 15.2729C17.5894 15.2729 4.22807 25.8612 0 40.3615H30.9508C34.6944 40.3615 37.7223 37.3213 37.7223 33.5748H37.7278Z" fill="url(#paint0_linear_2361_1869)"/>
<path d="M40.068 15.9131V33.5749C40.068 37.3269 43.1014 40.3616 46.8395 40.3616H66.8403C63.2233 27.947 52.9009 18.4015 40.0625 15.9131H40.068Z" fill="url(#paint1_linear_2361_1869)"/>
<path d="M32.1566 38.4134V39.379C32.1566 39.379 32.1786 40.4659 31.6611 40.4659H33.3953C33.3953 40.4659 32.9494 40.2673 32.9494 39.379V38.4023L32.1566 38.4134Z" fill="white"/>
<path d="M28.6386 38.9489V39.7103C28.6386 39.7103 28.6496 40.5655 28.3027 40.5655H29.4864C29.4864 40.5655 29.1781 40.411 29.1781 39.7103V38.9434H28.6331L28.6386 38.9489Z" fill="white"/>
<path d="M26.9921 24.5977L27.1462 25.4805L28.0381 25.6074L27.2453 26.0267L27.3995 26.9095L26.7553 26.2916L25.9681 26.7109L26.359 25.9053L25.7148 25.2818L26.6012 25.4032L26.9921 24.5977Z" fill="white"/>
<path d="M27.2123 18.6992L28.0106 19.9352L29.4309 19.5544L28.506 20.7021L29.3043 21.9381L27.9335 21.4084L27.0086 22.5505L27.0857 21.0828L25.7148 20.5531L27.1352 20.1724L27.2123 18.6992Z" fill="white"/>
<path d="M2.3291 40.5653L4.27247 37.5747L5.58273 36.5264L7.0031 37.0174L7.56464 37.9554L7.95001 37.2602L8.46751 37.3099L9.51352 35.6325L10.0035 35.5498L10.9119 36.5871H11.4073L12.2386 35.0918L12.7616 35.169L13.2131 36.4326L14.182 35.4449L14.8647 35.5167L15.0298 35.798L15.2941 35.787L15.5143 35.5939L15.8391 35.627L16.8796 36.3112L17.2485 35.7318L18.1018 35.7153L18.5477 36.725L18.7624 36.3443L18.9991 36.4602L19.2359 37.3871L19.8855 37.1885L20.403 37.4809L21.1682 36.9016L21.6197 37.1554L22.1427 36.6698L22.7813 36.8078L23.2658 37.6023L23.8548 37.6906L26.0459 40.5653H2.3291Z" fill="white"/>
<path d="M21.4761 25.9877C21.4761 25.9877 21.4486 25.9988 21.4376 26.0043L21.4046 26.0264L15.2607 30.308C15.2607 30.308 15.2331 30.3191 15.2001 30.3411L14.9579 30.4018L14.077 28.9948L13.9669 30.6501L12.3594 31.0529L13.8954 31.6709L13.7852 33.3262L14.8478 32.0516L16.3837 32.6696L15.5029 31.2626L15.8442 30.8543C16.2021 30.5618 19.4667 27.8582 21.5257 26.1478C21.5312 26.1478 21.5367 26.1367 21.5477 26.1312C21.5587 26.1146 21.5697 26.0981 21.5697 26.0705C21.5697 26.0153 21.5257 25.9712 21.4706 25.9712L21.4761 25.9877Z" fill="white"/>
<path d="M53.7263 27.8641C53.7263 27.8641 53.7042 27.8145 53.6767 27.8145C53.6657 27.8145 53.6602 27.8145 53.6492 27.8255H53.6382L45.9748 33.1776C45.9748 33.1776 45.4518 33.4314 45.683 33.8066C45.9142 34.1818 46.3106 34.0273 46.5804 33.8066L53.7042 27.9027C53.7042 27.9027 53.7208 27.8807 53.7208 27.8641H53.7263Z" fill="white"/>
<path d="M53.7094 24.1781C53.7094 24.1781 53.6929 24.145 53.6764 24.145C53.6709 24.145 53.6654 24.145 53.6599 24.1505H53.6544L48.2151 27.9522C48.2151 27.9522 47.8408 28.1342 48.0059 28.3991C48.1711 28.6639 48.4519 28.5591 48.6446 28.3991L53.7039 24.2112C53.7039 24.2112 53.7149 24.1947 53.7149 24.1836L53.7094 24.1781Z" fill="white"/>
<path d="M33.4944 36.0189H34.557C34.089 35.6602 33.2632 33.6518 33.2632 33.6518H34.1881C33.3128 33.0725 32.4264 30.4902 32.4264 30.4902C32.3273 30.7827 31.5511 33.0725 30.6757 33.6518H31.6006C31.6006 33.6518 30.7748 35.6602 30.3069 36.0189H31.3694L30.0371 38.9873L32.3438 38.579L32.5145 38.557L34.8212 38.9873L33.4889 36.0189H33.4944Z" fill="white"/>
<path d="M29.7448 37.1778H30.6311C30.2403 36.8743 29.5521 35.2025 29.5521 35.2025H30.3228C29.5906 34.717 28.8529 32.5596 28.8529 32.5596C28.7703 32.8023 28.1207 34.717 27.3885 35.2025H28.1592C28.1592 35.2025 27.4711 36.8799 27.0802 37.1778H27.9666L26.8545 39.6607L28.7813 39.3186L28.9245 39.3021L30.8513 39.6607L29.7393 37.1778H29.7448Z" fill="white"/>
<path d="M40.6076 11.1564V7.51478L39.8533 6.15194V5.98089H40.1561V5.36292H39.8533V1.06471C39.8533 1.06471 39.1652 0.104643 39.1266 0.0494666C39.0881 -0.00570944 39.022 -0.000191837 39.022 -0.000191837C39.022 -0.000191837 38.9505 -0.011227 38.9174 0.0494666C38.8844 0.11016 38.1907 1.06471 38.1907 1.06471V5.36292H37.8714V5.98089H38.1907V6.15194L37.4365 7.51478V11.1564H36.9961V12.6958H37.4365V13.6559H37.976C37.91 13.7773 37.7448 14.1249 37.7448 14.4173H38.9064C38.9064 14.1249 38.7413 13.7773 38.6752 13.6559H39.446C39.3799 13.7773 39.2147 14.1249 39.2147 14.4173H40.3763C40.3763 14.1249 40.2112 13.7773 40.1451 13.6559H40.5911V12.6958H41.0315V11.1564H40.5911H40.6076Z" fill="#1F2A66"/>
</g>
<defs>
<linearGradient id="paint0_linear_2361_1869" x1="18.8612" y1="41.2829" x2="18.8612" y2="24.0128" gradientUnits="userSpaceOnUse">
<stop stop-color="#0091DB"/>
<stop offset="0.39" stop-color="#0D63A7"/>
<stop offset="0.8" stop-color="#1A3A78"/>
<stop offset="1" stop-color="#1F2A66"/>
</linearGradient>
<linearGradient id="paint1_linear_2361_1869" x1="53.4569" y1="41.261" x2="53.4569" y2="24.4323" gradientUnits="userSpaceOnUse">
<stop stop-color="#0091DB"/>
<stop offset="0.39" stop-color="#0D63A7"/>
<stop offset="0.8" stop-color="#1A3A78"/>
<stop offset="1" stop-color="#1F2A66"/>
</linearGradient>
<clipPath id="clip0_2361_1869">
<rect width="213" height="42" fill="white"/>
</clipPath>
</defs>
</svg>
