<svg width="162" height="103" viewBox="0 0 162 103" fill="none" xmlns="http://www.w3.org/2000/svg">
<g clip-path="url(#clip0_2361_1501)">
<path d="M110.451 0C99.4879 0 89.3534 3.44507 81 9.26933C72.6466 3.44507 62.5026 0 51.5489 0C23.0789 0 0 23.0591 0 51.5048C0 79.9504 23.0789 103.01 51.5489 103.01C62.5121 103.01 72.6466 99.5644 81 93.7402C89.3534 99.5644 99.4974 103.01 110.451 103.01C138.921 103.01 161.99 79.9504 161.99 51.5048C161.99 23.0591 138.921 0 110.451 0Z" fill="#FFF3EB"/>
<path d="M158.124 31.8811C157.285 29.8445 156.314 27.8746 155.238 25.9807L100.517 67.6071L81.0003 82.4532L73.3708 87.2592L48.5488 102.914C49.5394 102.971 50.5395 103 51.5397 103C54.721 103 57.8356 102.714 60.8646 102.153L75.2567 89.1245L80.9907 83.9283L98.8976 71.842L158.105 31.8811H158.124Z" fill="#F37723"/>
<path d="M159.037 34.2509L81.5137 94.1113C89.7623 99.7167 99.7253 103 110.46 103C138.93 103 161.999 79.9409 161.999 51.4952C161.999 45.4426 160.952 39.6373 159.037 34.2509Z" fill="#F37723"/>
<path d="M51.5489 0C23.0789 0 0 23.0591 0 51.5048C0 57.5574 1.04774 63.3627 2.97178 68.7587L80.4761 8.87915C72.2275 3.27377 62.274 0 51.5489 0Z" fill="#F37723"/>
<path d="M81.0009 41.6549L98.4601 30.1586L134.902 6.15732C132.759 5.00579 130.531 3.99702 128.226 3.15002L97.1552 27.513L80.9914 40.1988L59.0174 54.9117L13.0215 85.708C14.4788 87.3449 16.0409 88.8866 17.6887 90.3236L59.3603 58.2902L81.0009 41.6549Z" fill="#F37723"/>
<path d="M80.9998 52.228L101.469 38.619L142.626 11.2583C140.854 9.84033 138.988 8.53653 137.035 7.36597L100.593 35.5927L81.0093 50.7529L60.5403 64.3619L19.3926 91.7417C21.1642 93.1596 23.0311 94.4634 24.9837 95.634L61.4261 67.3978L81.0093 52.228H80.9998Z" fill="#F37723"/>
<path d="M81.0009 62.7916L102.975 48.0882L148.98 17.3014C147.523 15.6645 145.97 14.1228 144.313 12.6858L102.632 44.7002L80.9914 61.326L63.5227 72.8413L27.0898 96.8521C29.233 98.0131 31.4618 99.0219 33.7668 99.8594L64.8276 75.487L80.9914 62.7916H81.0009Z" fill="#F37723"/>
<path d="M80.9994 31.0913L94.1723 22.5452L125.481 2.22691C122.842 1.4275 120.118 0.827941 117.327 0.456787L92.5722 20.3278L80.9994 29.6162L59.4444 44.1197L7.85742 78.8274C9.00994 80.6641 10.2768 82.4342 11.6483 84.1092L59.0349 47.8789L80.9994 31.0913Z" fill="#F37723"/>
<path d="M81.0003 20.5182L88.6107 15.7217L113.423 0.0856509C112.442 0.0285503 111.451 0 110.451 0C107.289 0 104.194 0.285503 101.184 0.837476L86.7343 13.885L81.0003 19.0621L63.103 31.1484L3.87695 71.1283C4.71515 73.1649 5.68669 75.1349 6.77253 77.0287L61.4932 35.3643L81.0003 20.5182Z" fill="#F37723"/>
<path d="M81.001 73.3649L102.565 58.8708L154.152 24.1822C152.99 22.3455 151.733 20.5753 150.361 18.9004L102.965 55.1117L81.001 71.8993L67.828 80.4549L36.5195 100.783C39.1579 101.582 41.8821 102.182 44.6729 102.553L69.4282 82.6723L81.001 73.3744V73.3649Z" fill="#F37723"/>
</g>
<defs>
<clipPath id="clip0_2361_1501">
<rect width="162" height="103" fill="white"/>
</clipPath>
</defs>
</svg>
