<svg width="211" height="123" viewBox="0 0 211 123" fill="none" xmlns="http://www.w3.org/2000/svg">
<g clip-path="url(#clip0_2361_1518)">
<path d="M191.515 19.7123C190.369 19.7946 199.459 -4.55458 170.112 0.764945C92.555 14.8041 37.7652 66.6832 26.2176 81.545C14.67 96.3793 -20.6827 158.349 72.7357 151.11C166.154 143.871 217.777 90.0178 224.93 80.1191C252.939 41.3469 241.964 15.6541 191.515 19.7397V19.7123ZM172.406 7.04418C172.406 7.04418 190.751 2.82146 183.216 21.0559C183.216 21.0559 137.517 25.4157 73.8004 63.3105C73.8004 63.3105 106.969 17.0526 172.378 7.04418H172.406ZM148.082 126.432C103.775 143.021 61.7067 139.923 54.1175 119.44C46.5283 98.9842 76.2573 68.9591 120.564 52.3424C164.871 35.7257 206.939 38.8516 214.528 59.3071C222.145 79.7626 192.389 109.815 148.082 126.404V126.432Z" fill="#EEEEEE"/>
</g>
<defs>
<clipPath id="clip0_2361_1518">
<rect width="211" height="123" fill="white"/>
</clipPath>
</defs>
</svg>
