<svg width="360" height="139" viewBox="0 0 360 139" fill="none" xmlns="http://www.w3.org/2000/svg">
<g clip-path="url(#clip0_2361_1479)">
<mask id="mask0_2361_1479" style="mask-type:luminance" maskUnits="userSpaceOnUse" x="0" y="0" width="664" height="139">
<path d="M663.613 0H0V139H663.613V0Z" fill="white"/>
</mask>
<g mask="url(#mask0_2361_1479)">
<path d="M136.495 110.458H179.09V114.984C179.09 119.281 175.313 122.628 170.706 122.78H131.484C126.858 122.78 123.1 119.281 123.1 114.984V88.3625C123.1 84.0651 127.09 80.3382 131.715 80.3382H198.904V64.2133H122.522C112.191 64.2133 103.826 72.2757 103.826 82.2209V120.878C103.826 130.842 110.996 137.612 122.984 138.905H179.803C191.869 137.612 198.942 130.842 198.942 120.878V91.7474H136.495V110.439V110.458Z" fill="#F06F18"/>
<path d="M384.708 64.3274H325.731C313.338 65.5824 305.859 72.371 305.859 82.2777V120.783C307.112 132.078 313.569 137.554 326.213 138.734H384.708C398.084 138.049 404.579 130.69 404.579 120.783V82.2777C404.579 72.371 396.716 65.5824 384.708 64.3274ZM384.342 114.451C384.342 118.615 380.429 122.019 375.572 122.019H334.866C330.029 122.019 326.097 118.635 326.097 114.451V89.5415C326 84.7115 330.105 81.0038 335.309 81.0607H375.572C380.41 81.0607 384.342 84.4456 384.342 88.6286V114.451Z" fill="#F06F18"/>
<path d="M236.491 65.127H217.275V137.593H298.456V121.811H236.491V65.127Z" fill="#F06F18"/>
<path d="M33.2857 18.4827H10.8125V0H0V48.051H10.8125V27.9902H33.2857V48.051H44.2138V0H33.2857V18.4827Z" fill="#F06F18"/>
<path d="M73.7565 20.8025L60.9205 0H48.3926L67.8781 29.3973V48.051H79.6353V30.1959L99.3522 0H86.7086L73.7565 20.8025Z" fill="#F06F18"/>
<path d="M146.942 40.4447H147V40.0834C147.154 38.6003 147 37.4974 147 37.4974V0.208862H136.939V35.1775C136.939 38.7714 135.552 38.9805 135.552 38.9805H113.502V0.208862H103.441V48.0507H136.958C144.591 48.127 146.538 43.6012 146.981 40.4447H146.942Z" fill="#F06F18"/>
<path d="M201.158 7.8152H201.1C200.657 4.65873 198.71 0.133138 191.078 0.209198H157.58V48.0512H167.641V9.29837H189.69C189.69 9.29837 191.078 9.50755 191.078 13.1014V48.0701H201.139V10.7625C201.139 10.7625 201.293 9.65969 201.139 8.17651V7.8152H201.158Z" fill="#F06F18"/>
<path d="M244.963 48.0512C252.596 48.127 254.542 43.6016 254.986 40.4451H255.044V40.0838C255.198 38.6006 255.044 37.4977 255.044 37.4977V10.7625C255.044 10.7625 255.198 9.65969 255.044 8.17651V7.8152H254.986C254.542 4.65874 252.596 0.133138 244.963 0.209198H210.791V48.0512H244.963ZM244.963 13.1014V35.1779C244.963 38.7717 243.576 38.9809 243.576 38.9809H220.852V9.29838H243.576C243.576 9.29838 244.963 9.50755 244.963 13.1014Z" fill="#F06F18"/>
<path d="M264.182 10.7625V48.0512H274.243V32.4777H297.545V48.0512H308.415V0.209194H274.243C266.61 0.133134 264.664 4.67774 264.24 7.8152H264.182V8.17651C264.028 9.65969 264.182 10.7625 264.182 10.7625ZM275.631 9.29837H297.545V23.9019H274.243V13.1014C274.243 9.50755 275.631 9.29837 275.631 9.29837Z" fill="#F06F18"/>
<path d="M330.119 0.209106H318.67V48.0509H330.119V0.209106Z" fill="#F06F18"/>
</g>
</g>
<defs>
<clipPath id="clip0_2361_1479">
<rect width="360" height="139" fill="white"/>
</clipPath>
</defs>
</svg>
